<?xml version="1.0" encoding="utf-8" standalone="no"?>
<!DOCTYPE svg PUBLIC "-//W3C//DTD SVG 1.1//EN"
  "http://www.w3.org/Graphics/SVG/1.1/DTD/svg11.dtd">
<svg xmlns:xlink="http://www.w3.org/1999/xlink" width="432pt" height="360pt" viewBox="0 0 432 360" xmlns="http://www.w3.org/2000/svg" version="1.1">
 <metadata>
  <rdf:RDF xmlns:dc="http://purl.org/dc/elements/1.1/" xmlns:cc="http://creativecommons.org/ns#" xmlns:rdf="http://www.w3.org/1999/02/22-rdf-syntax-ns#">
   <cc:Work>
    <dc:type rdf:resource="http://purl.org/dc/dcmitype/StillImage"/>
    <dc:date>2022-06-15T09:16:25.135872</dc:date>
    <dc:format>image/svg+xml</dc:format>
    <dc:creator>
     <cc:Agent>
      <dc:title>Matplotlib v3.5.2, https://matplotlib.org/</dc:title>
     </cc:Agent>
    </dc:creator>
   </cc:Work>
  </rdf:RDF>
 </metadata>
 <defs>
  <style type="text/css">*{stroke-linejoin: round; stroke-linecap: butt}</style>
 </defs>
 <g id="figure_1">
  <g id="patch_1">
   <path d="M 0 360 
L 432 360 
L 432 0 
L 0 0 
z
" style="fill: #ffffff"/>
  </g>
  <g id="axes_1">
   <g id="patch_2">
    <path d="M 54 315 
L 388.8 315 
L 388.8 43.2 
L 54 43.2 
z
" style="fill: #fffafa"/>
   </g>
   <g id="patch_3">
    <path d="M 69.218182 88826.289788 
L 91.457696 88826.289788 
L 91.457696 135.739314 
L 69.218182 135.739314 
z
" clip-path="url(#p8939cade9f)" style="fill: url(#h5814a47213); stroke: #000000; stroke-linejoin: miter"/>
   </g>
   <g id="patch_4">
    <path d="M 132.759651 88826.289788 
L 154.999165 88826.289788 
L 154.999165 299.763409 
L 132.759651 299.763409 
z
" clip-path="url(#p8939cade9f)" style="fill: url(#he2eeb4364b); stroke: #000000; stroke-linejoin: miter"/>
   </g>
   <g id="patch_5">
    <path d="M 196.30112 88826.289788 
L 218.540634 88826.289788 
L 218.540634 258.177416 
L 196.30112 258.177416 
z
" clip-path="url(#p8939cade9f)" style="fill: url(#hedf03f62b8); stroke: #000000; stroke-linejoin: miter"/>
   </g>
   <g id="patch_6">
    <path d="M 259.842589 88826.289788 
L 282.082103 88826.289788 
L 282.082103 115.044061 
L 259.842589 115.044061 
z
" clip-path="url(#p8939cade9f)" style="fill: url(#hc74ec92001); stroke: #000000; stroke-linejoin: miter"/>
   </g>
   <g id="patch_7">
    <path d="M 323.384058 88826.289788 
L 345.623572 88826.289788 
L 345.623572 185.32976 
L 323.384058 185.32976 
z
" clip-path="url(#p8939cade9f)" style="fill: url(#h98b292ff9e); stroke: #000000; stroke-linejoin: miter"/>
   </g>
   <g id="patch_8">
    <path d="M 97.176428 88826.289788 
L 119.415942 88826.289788 
L 119.415942 118.171211 
L 97.176428 118.171211 
z
" clip-path="url(#p8939cade9f)" style="fill: #a9a9a9; stroke: #000000; stroke-linejoin: miter"/>
   </g>
   <g id="patch_9">
    <path d="M 160.717897 88826.289788 
L 182.957411 88826.289788 
L 182.957411 304.614092 
L 160.717897 304.614092 
z
" clip-path="url(#p8939cade9f)" style="fill: #008000; stroke: #000000; stroke-linejoin: miter"/>
   </g>
   <g id="patch_10">
    <path d="M 224.259366 88826.289788 
L 246.49888 88826.289788 
L 246.49888 275.570101 
L 224.259366 275.570101 
z
" clip-path="url(#p8939cade9f)" style="fill: #ff8c00; stroke: #000000; stroke-linejoin: miter"/>
   </g>
   <g id="patch_11">
    <path d="M 287.800835 88826.289788 
L 310.040349 88826.289788 
L 310.040349 96.895932 
L 287.800835 96.895932 
z
" clip-path="url(#p8939cade9f)" style="fill: #6a5acd; stroke: #000000; stroke-linejoin: miter"/>
   </g>
   <g id="patch_12">
    <path d="M 351.342304 88826.289788 
L 373.581818 88826.289788 
L 373.581818 166.697033 
L 351.342304 166.697033 
z
" clip-path="url(#p8939cade9f)" style="fill: #ffc0cb; stroke: #000000; stroke-linejoin: miter"/>
   </g>
   <g id="matplotlib.axis_1">
    <g id="xtick_1">
     <g id="line2d_1">
      <defs>
       <path id="ma9f397e3cb" d="M 0 0 
L 0 3.5 
" style="stroke: #696969; stroke-width: 0.8"/>
      </defs>
      <g>
       <use xlink:href="#ma9f397e3cb" x="94.317062" y="315" style="fill: #696969; stroke: #696969; stroke-width: 0.8"/>
      </g>
     </g>
     <g id="text_1">
      <!-- Aerobic -->
      <g style="fill: #696969" transform="translate(75.592843 329.598437)scale(0.1 -0.1)">
       <defs>
        <path id="DejaVuSans-41" d="M 2188 4044 
L 1331 1722 
L 3047 1722 
L 2188 4044 
z
M 1831 4666 
L 2547 4666 
L 4325 0 
L 3669 0 
L 3244 1197 
L 1141 1197 
L 716 0 
L 50 0 
L 1831 4666 
z
" transform="scale(0.015625)"/>
        <path id="DejaVuSans-65" d="M 3597 1894 
L 3597 1613 
L 953 1613 
Q 991 1019 1311 708 
Q 1631 397 2203 397 
Q 2534 397 2845 478 
Q 3156 559 3463 722 
L 3463 178 
Q 3153 47 2828 -22 
Q 2503 -91 2169 -91 
Q 1331 -91 842 396 
Q 353 884 353 1716 
Q 353 2575 817 3079 
Q 1281 3584 2069 3584 
Q 2775 3584 3186 3129 
Q 3597 2675 3597 1894 
z
M 3022 2063 
Q 3016 2534 2758 2815 
Q 2500 3097 2075 3097 
Q 1594 3097 1305 2825 
Q 1016 2553 972 2059 
L 3022 2063 
z
" transform="scale(0.015625)"/>
        <path id="DejaVuSans-72" d="M 2631 2963 
Q 2534 3019 2420 3045 
Q 2306 3072 2169 3072 
Q 1681 3072 1420 2755 
Q 1159 2438 1159 1844 
L 1159 0 
L 581 0 
L 581 3500 
L 1159 3500 
L 1159 2956 
Q 1341 3275 1631 3429 
Q 1922 3584 2338 3584 
Q 2397 3584 2469 3576 
Q 2541 3569 2628 3553 
L 2631 2963 
z
" transform="scale(0.015625)"/>
        <path id="DejaVuSans-6f" d="M 1959 3097 
Q 1497 3097 1228 2736 
Q 959 2375 959 1747 
Q 959 1119 1226 758 
Q 1494 397 1959 397 
Q 2419 397 2687 759 
Q 2956 1122 2956 1747 
Q 2956 2369 2687 2733 
Q 2419 3097 1959 3097 
z
M 1959 3584 
Q 2709 3584 3137 3096 
Q 3566 2609 3566 1747 
Q 3566 888 3137 398 
Q 2709 -91 1959 -91 
Q 1206 -91 779 398 
Q 353 888 353 1747 
Q 353 2609 779 3096 
Q 1206 3584 1959 3584 
z
" transform="scale(0.015625)"/>
        <path id="DejaVuSans-62" d="M 3116 1747 
Q 3116 2381 2855 2742 
Q 2594 3103 2138 3103 
Q 1681 3103 1420 2742 
Q 1159 2381 1159 1747 
Q 1159 1113 1420 752 
Q 1681 391 2138 391 
Q 2594 391 2855 752 
Q 3116 1113 3116 1747 
z
M 1159 2969 
Q 1341 3281 1617 3432 
Q 1894 3584 2278 3584 
Q 2916 3584 3314 3078 
Q 3713 2572 3713 1747 
Q 3713 922 3314 415 
Q 2916 -91 2278 -91 
Q 1894 -91 1617 61 
Q 1341 213 1159 525 
L 1159 0 
L 581 0 
L 581 4863 
L 1159 4863 
L 1159 2969 
z
" transform="scale(0.015625)"/>
        <path id="DejaVuSans-69" d="M 603 3500 
L 1178 3500 
L 1178 0 
L 603 0 
L 603 3500 
z
M 603 4863 
L 1178 4863 
L 1178 4134 
L 603 4134 
L 603 4863 
z
" transform="scale(0.015625)"/>
        <path id="DejaVuSans-63" d="M 3122 3366 
L 3122 2828 
Q 2878 2963 2633 3030 
Q 2388 3097 2138 3097 
Q 1578 3097 1268 2742 
Q 959 2388 959 1747 
Q 959 1106 1268 751 
Q 1578 397 2138 397 
Q 2388 397 2633 464 
Q 2878 531 3122 666 
L 3122 134 
Q 2881 22 2623 -34 
Q 2366 -91 2075 -91 
Q 1284 -91 818 406 
Q 353 903 353 1747 
Q 353 2603 823 3093 
Q 1294 3584 2113 3584 
Q 2378 3584 2631 3529 
Q 2884 3475 3122 3366 
z
" transform="scale(0.015625)"/>
       </defs>
       <use xlink:href="#DejaVuSans-41"/>
       <use xlink:href="#DejaVuSans-65" x="66.658203"/>
       <use xlink:href="#DejaVuSans-72" x="128.181641"/>
       <use xlink:href="#DejaVuSans-6f" x="167.044922"/>
       <use xlink:href="#DejaVuSans-62" x="228.226562"/>
       <use xlink:href="#DejaVuSans-69" x="291.703125"/>
       <use xlink:href="#DejaVuSans-63" x="319.486328"/>
      </g>
      <!-- respirators -->
      <g style="fill: #696969" transform="translate(67.330343 340.79625)scale(0.1 -0.1)">
       <defs>
        <path id="DejaVuSans-73" d="M 2834 3397 
L 2834 2853 
Q 2591 2978 2328 3040 
Q 2066 3103 1784 3103 
Q 1356 3103 1142 2972 
Q 928 2841 928 2578 
Q 928 2378 1081 2264 
Q 1234 2150 1697 2047 
L 1894 2003 
Q 2506 1872 2764 1633 
Q 3022 1394 3022 966 
Q 3022 478 2636 193 
Q 2250 -91 1575 -91 
Q 1294 -91 989 -36 
Q 684 19 347 128 
L 347 722 
Q 666 556 975 473 
Q 1284 391 1588 391 
Q 1994 391 2212 530 
Q 2431 669 2431 922 
Q 2431 1156 2273 1281 
Q 2116 1406 1581 1522 
L 1381 1569 
Q 847 1681 609 1914 
Q 372 2147 372 2553 
Q 372 3047 722 3315 
Q 1072 3584 1716 3584 
Q 2034 3584 2315 3537 
Q 2597 3491 2834 3397 
z
" transform="scale(0.015625)"/>
        <path id="DejaVuSans-70" d="M 1159 525 
L 1159 -1331 
L 581 -1331 
L 581 3500 
L 1159 3500 
L 1159 2969 
Q 1341 3281 1617 3432 
Q 1894 3584 2278 3584 
Q 2916 3584 3314 3078 
Q 3713 2572 3713 1747 
Q 3713 922 3314 415 
Q 2916 -91 2278 -91 
Q 1894 -91 1617 61 
Q 1341 213 1159 525 
z
M 3116 1747 
Q 3116 2381 2855 2742 
Q 2594 3103 2138 3103 
Q 1681 3103 1420 2742 
Q 1159 2381 1159 1747 
Q 1159 1113 1420 752 
Q 1681 391 2138 391 
Q 2594 391 2855 752 
Q 3116 1113 3116 1747 
z
" transform="scale(0.015625)"/>
        <path id="DejaVuSans-61" d="M 2194 1759 
Q 1497 1759 1228 1600 
Q 959 1441 959 1056 
Q 959 750 1161 570 
Q 1363 391 1709 391 
Q 2188 391 2477 730 
Q 2766 1069 2766 1631 
L 2766 1759 
L 2194 1759 
z
M 3341 1997 
L 3341 0 
L 2766 0 
L 2766 531 
Q 2569 213 2275 61 
Q 1981 -91 1556 -91 
Q 1019 -91 701 211 
Q 384 513 384 1019 
Q 384 1609 779 1909 
Q 1175 2209 1959 2209 
L 2766 2209 
L 2766 2266 
Q 2766 2663 2505 2880 
Q 2244 3097 1772 3097 
Q 1472 3097 1187 3025 
Q 903 2953 641 2809 
L 641 3341 
Q 956 3463 1253 3523 
Q 1550 3584 1831 3584 
Q 2591 3584 2966 3190 
Q 3341 2797 3341 1997 
z
" transform="scale(0.015625)"/>
        <path id="DejaVuSans-74" d="M 1172 4494 
L 1172 3500 
L 2356 3500 
L 2356 3053 
L 1172 3053 
L 1172 1153 
Q 1172 725 1289 603 
Q 1406 481 1766 481 
L 2356 481 
L 2356 0 
L 1766 0 
Q 1100 0 847 248 
Q 594 497 594 1153 
L 594 3053 
L 172 3053 
L 172 3500 
L 594 3500 
L 594 4494 
L 1172 4494 
z
" transform="scale(0.015625)"/>
       </defs>
       <use xlink:href="#DejaVuSans-72"/>
       <use xlink:href="#DejaVuSans-65" x="38.863281"/>
       <use xlink:href="#DejaVuSans-73" x="100.386719"/>
       <use xlink:href="#DejaVuSans-70" x="152.486328"/>
       <use xlink:href="#DejaVuSans-69" x="215.962891"/>
       <use xlink:href="#DejaVuSans-72" x="243.746094"/>
       <use xlink:href="#DejaVuSans-61" x="284.859375"/>
       <use xlink:href="#DejaVuSans-74" x="346.138672"/>
       <use xlink:href="#DejaVuSans-6f" x="385.347656"/>
       <use xlink:href="#DejaVuSans-72" x="446.529297"/>
       <use xlink:href="#DejaVuSans-73" x="487.642578"/>
      </g>
     </g>
    </g>
    <g id="xtick_2">
     <g id="line2d_2">
      <g>
       <use xlink:href="#ma9f397e3cb" x="157.858531" y="315" style="fill: #696969; stroke: #696969; stroke-width: 0.8"/>
      </g>
     </g>
     <g id="text_2">
      <!-- Nitrifiers -->
      <g style="fill: #696969" transform="translate(136.438219 329.598437)scale(0.1 -0.1)">
       <defs>
        <path id="DejaVuSans-4e" d="M 628 4666 
L 1478 4666 
L 3547 763 
L 3547 4666 
L 4159 4666 
L 4159 0 
L 3309 0 
L 1241 3903 
L 1241 0 
L 628 0 
L 628 4666 
z
" transform="scale(0.015625)"/>
        <path id="DejaVuSans-66" d="M 2375 4863 
L 2375 4384 
L 1825 4384 
Q 1516 4384 1395 4259 
Q 1275 4134 1275 3809 
L 1275 3500 
L 2222 3500 
L 2222 3053 
L 1275 3053 
L 1275 0 
L 697 0 
L 697 3053 
L 147 3053 
L 147 3500 
L 697 3500 
L 697 3744 
Q 697 4328 969 4595 
Q 1241 4863 1831 4863 
L 2375 4863 
z
" transform="scale(0.015625)"/>
       </defs>
       <use xlink:href="#DejaVuSans-4e"/>
       <use xlink:href="#DejaVuSans-69" x="74.804688"/>
       <use xlink:href="#DejaVuSans-74" x="102.587891"/>
       <use xlink:href="#DejaVuSans-72" x="141.796875"/>
       <use xlink:href="#DejaVuSans-69" x="182.910156"/>
       <use xlink:href="#DejaVuSans-66" x="210.693359"/>
       <use xlink:href="#DejaVuSans-69" x="245.898438"/>
       <use xlink:href="#DejaVuSans-65" x="273.681641"/>
       <use xlink:href="#DejaVuSans-72" x="335.205078"/>
       <use xlink:href="#DejaVuSans-73" x="376.318359"/>
      </g>
     </g>
    </g>
    <g id="xtick_3">
     <g id="line2d_3">
      <g>
       <use xlink:href="#ma9f397e3cb" x="221.4" y="315" style="fill: #696969; stroke: #696969; stroke-width: 0.8"/>
      </g>
     </g>
     <g id="text_3">
      <!-- Denitrifiers -->
      <g style="fill: #696969" transform="translate(193.625 329.598437)scale(0.1 -0.1)">
       <defs>
        <path id="DejaVuSans-44" d="M 1259 4147 
L 1259 519 
L 2022 519 
Q 2988 519 3436 956 
Q 3884 1394 3884 2338 
Q 3884 3275 3436 3711 
Q 2988 4147 2022 4147 
L 1259 4147 
z
M 628 4666 
L 1925 4666 
Q 3281 4666 3915 4102 
Q 4550 3538 4550 2338 
Q 4550 1131 3912 565 
Q 3275 0 1925 0 
L 628 0 
L 628 4666 
z
" transform="scale(0.015625)"/>
        <path id="DejaVuSans-6e" d="M 3513 2113 
L 3513 0 
L 2938 0 
L 2938 2094 
Q 2938 2591 2744 2837 
Q 2550 3084 2163 3084 
Q 1697 3084 1428 2787 
Q 1159 2491 1159 1978 
L 1159 0 
L 581 0 
L 581 3500 
L 1159 3500 
L 1159 2956 
Q 1366 3272 1645 3428 
Q 1925 3584 2291 3584 
Q 2894 3584 3203 3211 
Q 3513 2838 3513 2113 
z
" transform="scale(0.015625)"/>
       </defs>
       <use xlink:href="#DejaVuSans-44"/>
       <use xlink:href="#DejaVuSans-65" x="77.001953"/>
       <use xlink:href="#DejaVuSans-6e" x="138.525391"/>
       <use xlink:href="#DejaVuSans-69" x="201.904297"/>
       <use xlink:href="#DejaVuSans-74" x="229.6875"/>
       <use xlink:href="#DejaVuSans-72" x="268.896484"/>
       <use xlink:href="#DejaVuSans-69" x="310.009766"/>
       <use xlink:href="#DejaVuSans-66" x="337.792969"/>
       <use xlink:href="#DejaVuSans-69" x="372.998047"/>
       <use xlink:href="#DejaVuSans-65" x="400.78125"/>
       <use xlink:href="#DejaVuSans-72" x="462.304688"/>
       <use xlink:href="#DejaVuSans-73" x="503.417969"/>
      </g>
     </g>
    </g>
    <g id="xtick_4">
     <g id="line2d_4">
      <g>
       <use xlink:href="#ma9f397e3cb" x="284.941469" y="315" style="fill: #696969; stroke: #696969; stroke-width: 0.8"/>
      </g>
     </g>
     <g id="text_4">
      <!-- EPS -->
      <g style="fill: #696969" transform="translate(275.593031 329.598437)scale(0.1 -0.1)">
       <defs>
        <path id="DejaVuSans-45" d="M 628 4666 
L 3578 4666 
L 3578 4134 
L 1259 4134 
L 1259 2753 
L 3481 2753 
L 3481 2222 
L 1259 2222 
L 1259 531 
L 3634 531 
L 3634 0 
L 628 0 
L 628 4666 
z
" transform="scale(0.015625)"/>
        <path id="DejaVuSans-50" d="M 1259 4147 
L 1259 2394 
L 2053 2394 
Q 2494 2394 2734 2622 
Q 2975 2850 2975 3272 
Q 2975 3691 2734 3919 
Q 2494 4147 2053 4147 
L 1259 4147 
z
M 628 4666 
L 2053 4666 
Q 2838 4666 3239 4311 
Q 3641 3956 3641 3272 
Q 3641 2581 3239 2228 
Q 2838 1875 2053 1875 
L 1259 1875 
L 1259 0 
L 628 0 
L 628 4666 
z
" transform="scale(0.015625)"/>
        <path id="DejaVuSans-53" d="M 3425 4513 
L 3425 3897 
Q 3066 4069 2747 4153 
Q 2428 4238 2131 4238 
Q 1616 4238 1336 4038 
Q 1056 3838 1056 3469 
Q 1056 3159 1242 3001 
Q 1428 2844 1947 2747 
L 2328 2669 
Q 3034 2534 3370 2195 
Q 3706 1856 3706 1288 
Q 3706 609 3251 259 
Q 2797 -91 1919 -91 
Q 1588 -91 1214 -16 
Q 841 59 441 206 
L 441 856 
Q 825 641 1194 531 
Q 1563 422 1919 422 
Q 2459 422 2753 634 
Q 3047 847 3047 1241 
Q 3047 1584 2836 1778 
Q 2625 1972 2144 2069 
L 1759 2144 
Q 1053 2284 737 2584 
Q 422 2884 422 3419 
Q 422 4038 858 4394 
Q 1294 4750 2059 4750 
Q 2388 4750 2728 4690 
Q 3069 4631 3425 4513 
z
" transform="scale(0.015625)"/>
       </defs>
       <use xlink:href="#DejaVuSans-45"/>
       <use xlink:href="#DejaVuSans-50" x="63.183594"/>
       <use xlink:href="#DejaVuSans-53" x="123.486328"/>
      </g>
     </g>
    </g>
    <g id="xtick_5">
     <g id="line2d_5">
      <g>
       <use xlink:href="#ma9f397e3cb" x="348.482938" y="315" style="fill: #696969; stroke: #696969; stroke-width: 0.8"/>
      </g>
     </g>
     <g id="text_5">
      <!-- Inert -->
      <g style="fill: #696969" transform="translate(336.747 329.598437)scale(0.1 -0.1)">
       <defs>
        <path id="DejaVuSans-49" d="M 628 4666 
L 1259 4666 
L 1259 0 
L 628 0 
L 628 4666 
z
" transform="scale(0.015625)"/>
       </defs>
       <use xlink:href="#DejaVuSans-49"/>
       <use xlink:href="#DejaVuSans-6e" x="29.492188"/>
       <use xlink:href="#DejaVuSans-65" x="92.871094"/>
       <use xlink:href="#DejaVuSans-72" x="154.394531"/>
       <use xlink:href="#DejaVuSans-74" x="195.507812"/>
      </g>
      <!-- biomass -->
      <g style="fill: #696969" transform="translate(327.716532 340.79625)scale(0.1 -0.1)">
       <defs>
        <path id="DejaVuSans-6d" d="M 3328 2828 
Q 3544 3216 3844 3400 
Q 4144 3584 4550 3584 
Q 5097 3584 5394 3201 
Q 5691 2819 5691 2113 
L 5691 0 
L 5113 0 
L 5113 2094 
Q 5113 2597 4934 2840 
Q 4756 3084 4391 3084 
Q 3944 3084 3684 2787 
Q 3425 2491 3425 1978 
L 3425 0 
L 2847 0 
L 2847 2094 
Q 2847 2600 2669 2842 
Q 2491 3084 2119 3084 
Q 1678 3084 1418 2786 
Q 1159 2488 1159 1978 
L 1159 0 
L 581 0 
L 581 3500 
L 1159 3500 
L 1159 2956 
Q 1356 3278 1631 3431 
Q 1906 3584 2284 3584 
Q 2666 3584 2933 3390 
Q 3200 3197 3328 2828 
z
" transform="scale(0.015625)"/>
       </defs>
       <use xlink:href="#DejaVuSans-62"/>
       <use xlink:href="#DejaVuSans-69" x="63.476562"/>
       <use xlink:href="#DejaVuSans-6f" x="91.259766"/>
       <use xlink:href="#DejaVuSans-6d" x="152.441406"/>
       <use xlink:href="#DejaVuSans-61" x="249.853516"/>
       <use xlink:href="#DejaVuSans-73" x="311.132812"/>
       <use xlink:href="#DejaVuSans-73" x="363.232422"/>
      </g>
     </g>
    </g>
   </g>
   <g id="matplotlib.axis_2">
    <g id="ytick_1">
     <g id="line2d_6">
      <defs>
       <path id="md616003caf" d="M 0 0 
L -3.5 0 
" style="stroke: #696969; stroke-width: 0.8"/>
      </defs>
      <g>
       <use xlink:href="#md616003caf" x="54" y="290.402098" style="fill: #696969; stroke: #696969; stroke-width: 0.8"/>
      </g>
     </g>
     <g id="text_6">
      <!-- $\mathdefault{10^{-5}}$ -->
      <g style="fill: #696969" transform="translate(23.5 294.201316)scale(0.1 -0.1)">
       <defs>
        <path id="DejaVuSans-31" d="M 794 531 
L 1825 531 
L 1825 4091 
L 703 3866 
L 703 4441 
L 1819 4666 
L 2450 4666 
L 2450 531 
L 3481 531 
L 3481 0 
L 794 0 
L 794 531 
z
" transform="scale(0.015625)"/>
        <path id="DejaVuSans-30" d="M 2034 4250 
Q 1547 4250 1301 3770 
Q 1056 3291 1056 2328 
Q 1056 1369 1301 889 
Q 1547 409 2034 409 
Q 2525 409 2770 889 
Q 3016 1369 3016 2328 
Q 3016 3291 2770 3770 
Q 2525 4250 2034 4250 
z
M 2034 4750 
Q 2819 4750 3233 4129 
Q 3647 3509 3647 2328 
Q 3647 1150 3233 529 
Q 2819 -91 2034 -91 
Q 1250 -91 836 529 
Q 422 1150 422 2328 
Q 422 3509 836 4129 
Q 1250 4750 2034 4750 
z
" transform="scale(0.015625)"/>
        <path id="DejaVuSans-2212" d="M 678 2272 
L 4684 2272 
L 4684 1741 
L 678 1741 
L 678 2272 
z
" transform="scale(0.015625)"/>
        <path id="DejaVuSans-35" d="M 691 4666 
L 3169 4666 
L 3169 4134 
L 1269 4134 
L 1269 2991 
Q 1406 3038 1543 3061 
Q 1681 3084 1819 3084 
Q 2600 3084 3056 2656 
Q 3513 2228 3513 1497 
Q 3513 744 3044 326 
Q 2575 -91 1722 -91 
Q 1428 -91 1123 -41 
Q 819 9 494 109 
L 494 744 
Q 775 591 1075 516 
Q 1375 441 1709 441 
Q 2250 441 2565 725 
Q 2881 1009 2881 1497 
Q 2881 1984 2565 2268 
Q 2250 2553 1709 2553 
Q 1456 2553 1204 2497 
Q 953 2441 691 2322 
L 691 4666 
z
" transform="scale(0.015625)"/>
       </defs>
       <use xlink:href="#DejaVuSans-31" transform="translate(0 0.684375)"/>
       <use xlink:href="#DejaVuSans-30" transform="translate(63.623047 0.684375)"/>
       <use xlink:href="#DejaVuSans-2212" transform="translate(128.203125 38.965625)scale(0.7)"/>
       <use xlink:href="#DejaVuSans-35" transform="translate(186.855469 38.965625)scale(0.7)"/>
      </g>
     </g>
    </g>
    <g id="ytick_2">
     <g id="line2d_7">
      <g>
       <use xlink:href="#md616003caf" x="54" y="201.421306" style="fill: #696969; stroke: #696969; stroke-width: 0.8"/>
      </g>
     </g>
     <g id="text_7">
      <!-- $\mathdefault{10^{-4}}$ -->
      <g style="fill: #696969" transform="translate(23.5 205.220525)scale(0.1 -0.1)">
       <defs>
        <path id="DejaVuSans-34" d="M 2419 4116 
L 825 1625 
L 2419 1625 
L 2419 4116 
z
M 2253 4666 
L 3047 4666 
L 3047 1625 
L 3713 1625 
L 3713 1100 
L 3047 1100 
L 3047 0 
L 2419 0 
L 2419 1100 
L 313 1100 
L 313 1709 
L 2253 4666 
z
" transform="scale(0.015625)"/>
       </defs>
       <use xlink:href="#DejaVuSans-31" transform="translate(0 0.684375)"/>
       <use xlink:href="#DejaVuSans-30" transform="translate(63.623047 0.684375)"/>
       <use xlink:href="#DejaVuSans-2212" transform="translate(128.203125 38.965625)scale(0.7)"/>
       <use xlink:href="#DejaVuSans-34" transform="translate(186.855469 38.965625)scale(0.7)"/>
      </g>
     </g>
    </g>
    <g id="ytick_3">
     <g id="line2d_8">
      <g>
       <use xlink:href="#md616003caf" x="54" y="112.440514" style="fill: #696969; stroke: #696969; stroke-width: 0.8"/>
      </g>
     </g>
     <g id="text_8">
      <!-- $\mathdefault{10^{-3}}$ -->
      <g style="fill: #696969" transform="translate(23.5 116.239733)scale(0.1 -0.1)">
       <defs>
        <path id="DejaVuSans-33" d="M 2597 2516 
Q 3050 2419 3304 2112 
Q 3559 1806 3559 1356 
Q 3559 666 3084 287 
Q 2609 -91 1734 -91 
Q 1441 -91 1130 -33 
Q 819 25 488 141 
L 488 750 
Q 750 597 1062 519 
Q 1375 441 1716 441 
Q 2309 441 2620 675 
Q 2931 909 2931 1356 
Q 2931 1769 2642 2001 
Q 2353 2234 1838 2234 
L 1294 2234 
L 1294 2753 
L 1863 2753 
Q 2328 2753 2575 2939 
Q 2822 3125 2822 3475 
Q 2822 3834 2567 4026 
Q 2313 4219 1838 4219 
Q 1578 4219 1281 4162 
Q 984 4106 628 3988 
L 628 4550 
Q 988 4650 1302 4700 
Q 1616 4750 1894 4750 
Q 2613 4750 3031 4423 
Q 3450 4097 3450 3541 
Q 3450 3153 3228 2886 
Q 3006 2619 2597 2516 
z
" transform="scale(0.015625)"/>
       </defs>
       <use xlink:href="#DejaVuSans-31" transform="translate(0 0.765625)"/>
       <use xlink:href="#DejaVuSans-30" transform="translate(63.623047 0.765625)"/>
       <use xlink:href="#DejaVuSans-2212" transform="translate(128.203125 39.046875)scale(0.7)"/>
       <use xlink:href="#DejaVuSans-33" transform="translate(186.855469 39.046875)scale(0.7)"/>
      </g>
     </g>
    </g>
    <g id="ytick_4">
     <g id="line2d_9">
      <defs>
       <path id="m171d1dce2b" d="M 0 0 
L -2 0 
" style="stroke: #696969; stroke-width: 0.6"/>
      </defs>
      <g>
       <use xlink:href="#m171d1dce2b" x="54" y="310.142375" style="fill: #696969; stroke: #696969; stroke-width: 0.6"/>
      </g>
     </g>
    </g>
    <g id="ytick_5">
     <g id="line2d_10">
      <g>
       <use xlink:href="#m171d1dce2b" x="54" y="304.185397" style="fill: #696969; stroke: #696969; stroke-width: 0.6"/>
      </g>
     </g>
    </g>
    <g id="ytick_6">
     <g id="line2d_11">
      <g>
       <use xlink:href="#m171d1dce2b" x="54" y="299.025227" style="fill: #696969; stroke: #696969; stroke-width: 0.6"/>
      </g>
     </g>
    </g>
    <g id="ytick_7">
     <g id="line2d_12">
      <g>
       <use xlink:href="#m171d1dce2b" x="54" y="294.473635" style="fill: #696969; stroke: #696969; stroke-width: 0.6"/>
      </g>
     </g>
    </g>
    <g id="ytick_8">
     <g id="line2d_13">
      <g>
       <use xlink:href="#m171d1dce2b" x="54" y="263.61621" style="fill: #696969; stroke: #696969; stroke-width: 0.6"/>
      </g>
     </g>
    </g>
    <g id="ytick_9">
     <g id="line2d_14">
      <g>
       <use xlink:href="#m171d1dce2b" x="54" y="247.947471" style="fill: #696969; stroke: #696969; stroke-width: 0.6"/>
      </g>
     </g>
    </g>
    <g id="ytick_10">
     <g id="line2d_15">
      <g>
       <use xlink:href="#m171d1dce2b" x="54" y="236.830323" style="fill: #696969; stroke: #696969; stroke-width: 0.6"/>
      </g>
     </g>
    </g>
    <g id="ytick_11">
     <g id="line2d_16">
      <g>
       <use xlink:href="#m171d1dce2b" x="54" y="228.207193" style="fill: #696969; stroke: #696969; stroke-width: 0.6"/>
      </g>
     </g>
    </g>
    <g id="ytick_12">
     <g id="line2d_17">
      <g>
       <use xlink:href="#m171d1dce2b" x="54" y="221.161583" style="fill: #696969; stroke: #696969; stroke-width: 0.6"/>
      </g>
     </g>
    </g>
    <g id="ytick_13">
     <g id="line2d_18">
      <g>
       <use xlink:href="#m171d1dce2b" x="54" y="215.204605" style="fill: #696969; stroke: #696969; stroke-width: 0.6"/>
      </g>
     </g>
    </g>
    <g id="ytick_14">
     <g id="line2d_19">
      <g>
       <use xlink:href="#m171d1dce2b" x="54" y="210.044436" style="fill: #696969; stroke: #696969; stroke-width: 0.6"/>
      </g>
     </g>
    </g>
    <g id="ytick_15">
     <g id="line2d_20">
      <g>
       <use xlink:href="#m171d1dce2b" x="54" y="205.492844" style="fill: #696969; stroke: #696969; stroke-width: 0.6"/>
      </g>
     </g>
    </g>
    <g id="ytick_16">
     <g id="line2d_21">
      <g>
       <use xlink:href="#m171d1dce2b" x="54" y="174.635419" style="fill: #696969; stroke: #696969; stroke-width: 0.6"/>
      </g>
     </g>
    </g>
    <g id="ytick_17">
     <g id="line2d_22">
      <g>
       <use xlink:href="#m171d1dce2b" x="54" y="158.966679" style="fill: #696969; stroke: #696969; stroke-width: 0.6"/>
      </g>
     </g>
    </g>
    <g id="ytick_18">
     <g id="line2d_23">
      <g>
       <use xlink:href="#m171d1dce2b" x="54" y="147.849531" style="fill: #696969; stroke: #696969; stroke-width: 0.6"/>
      </g>
     </g>
    </g>
    <g id="ytick_19">
     <g id="line2d_24">
      <g>
       <use xlink:href="#m171d1dce2b" x="54" y="139.226402" style="fill: #696969; stroke: #696969; stroke-width: 0.6"/>
      </g>
     </g>
    </g>
    <g id="ytick_20">
     <g id="line2d_25">
      <g>
       <use xlink:href="#m171d1dce2b" x="54" y="132.180792" style="fill: #696969; stroke: #696969; stroke-width: 0.6"/>
      </g>
     </g>
    </g>
    <g id="ytick_21">
     <g id="line2d_26">
      <g>
       <use xlink:href="#m171d1dce2b" x="54" y="126.223813" style="fill: #696969; stroke: #696969; stroke-width: 0.6"/>
      </g>
     </g>
    </g>
    <g id="ytick_22">
     <g id="line2d_27">
      <g>
       <use xlink:href="#m171d1dce2b" x="54" y="121.063644" style="fill: #696969; stroke: #696969; stroke-width: 0.6"/>
      </g>
     </g>
    </g>
    <g id="ytick_23">
     <g id="line2d_28">
      <g>
       <use xlink:href="#m171d1dce2b" x="54" y="116.512052" style="fill: #696969; stroke: #696969; stroke-width: 0.6"/>
      </g>
     </g>
    </g>
    <g id="ytick_24">
     <g id="line2d_29">
      <g>
       <use xlink:href="#m171d1dce2b" x="54" y="85.654627" style="fill: #696969; stroke: #696969; stroke-width: 0.6"/>
      </g>
     </g>
    </g>
    <g id="ytick_25">
     <g id="line2d_30">
      <g>
       <use xlink:href="#m171d1dce2b" x="54" y="69.985887" style="fill: #696969; stroke: #696969; stroke-width: 0.6"/>
      </g>
     </g>
    </g>
    <g id="ytick_26">
     <g id="line2d_31">
      <g>
       <use xlink:href="#m171d1dce2b" x="54" y="58.86874" style="fill: #696969; stroke: #696969; stroke-width: 0.6"/>
      </g>
     </g>
    </g>
    <g id="ytick_27">
     <g id="line2d_32">
      <g>
       <use xlink:href="#m171d1dce2b" x="54" y="50.24561" style="fill: #696969; stroke: #696969; stroke-width: 0.6"/>
      </g>
     </g>
    </g>
    <g id="ytick_28">
     <g id="line2d_33">
      <g>
       <use xlink:href="#m171d1dce2b" x="54" y="43.2" style="fill: #696969; stroke: #696969; stroke-width: 0.6"/>
      </g>
     </g>
    </g>
    <g id="text_9">
     <!-- Total biomass at end time  [kg/m²] -->
     <g transform="translate(15.588437 299.603906)rotate(-90)scale(0.14 -0.14)">
      <defs>
       <path id="DejaVuSans-ExtraLight-54" d="M 141 4666 
L 3769 4666 
L 3769 4409 
L 2113 4409 
L 2113 0 
L 1797 0 
L 1797 4409 
L 141 4409 
L 141 4666 
z
" transform="scale(0.015625)"/>
       <path id="DejaVuSans-ExtraLight-6f" d="M 2806 2900 
Q 2497 3331 1962 3331 
Q 1428 3331 1119 2903 
Q 806 2478 806 1753 
Q 806 1009 1116 584 
Q 1425 156 1963 156 
Q 2497 156 2806 584 
Q 3119 1016 3119 1753 
Q 3119 2469 2806 2900 
z
M 1959 3584 
Q 2628 3584 3016 3084 
Q 3406 2581 3406 1750 
Q 3406 891 3016 394 
Q 2628 -106 1959 -106 
Q 1284 -106 894 391 
Q 506 888 506 1750 
Q 506 2591 897 3087 
Q 1288 3584 1959 3584 
z
" transform="scale(0.015625)"/>
       <path id="DejaVuSans-ExtraLight-74" d="M 1028 4494 
L 1028 3500 
L 2213 3500 
L 2213 3256 
L 1028 3256 
L 1028 1153 
Q 1028 753 1131 594 
Q 1344 244 1750 244 
L 2213 244 
L 2213 0 
L 1766 0 
Q 1338 0 1038 250 
Q 738 500 738 1153 
L 738 3256 
L 319 3256 
L 319 3500 
L 738 3500 
L 738 4494 
L 1028 4494 
z
" transform="scale(0.015625)"/>
       <path id="DejaVuSans-ExtraLight-61" d="M 2125 1975 
Q 1431 1975 1125 1728 
Q 819 1481 819 1006 
Q 819 544 1072 350 
Q 1325 156 1672 156 
Q 2328 156 2616 713 
Q 2906 1269 2906 1759 
L 2906 1975 
L 2125 1975 
z
M 3197 1997 
L 3197 0 
L 2913 0 
L 2913 950 
Q 2672 253 2275 63 
Q 1959 -91 1647 -91 
Q 1125 -91 825 188 
Q 525 469 525 1012 
Q 525 1556 916 1881 
Q 1306 2209 2194 2209 
L 2906 2209 
L 2906 2266 
Q 2906 2731 2641 3031 
Q 2378 3331 1772 3331 
Q 1472 3331 1159 3219 
Q 959 3147 641 2928 
L 641 3238 
Q 919 3409 1159 3481 
Q 1509 3584 1831 3584 
Q 2450 3584 2850 3209 
Q 3197 2888 3197 1997 
z
" transform="scale(0.015625)"/>
       <path id="DejaVuSans-ExtraLight-6c" d="M 725 4863 
L 1013 4863 
L 1013 0 
L 725 0 
L 725 4863 
z
" transform="scale(0.015625)"/>
       <path id="DejaVuSans-ExtraLight-20" transform="scale(0.015625)"/>
       <path id="DejaVuSans-ExtraLight-62" d="M 2888 528 
Q 3250 894 3250 1747 
Q 3250 2600 2888 2966 
Q 2528 3331 2128 3331 
Q 1738 3331 1375 2966 
Q 1016 2600 1016 1747 
Q 1016 894 1375 528 
Q 1738 163 2128 163 
Q 2528 163 2888 528 
z
M 1013 2700 
Q 1209 3156 1441 3325 
Q 1794 3584 2106 3584 
Q 2728 3584 3140 3078 
Q 3553 2572 3553 1747 
Q 3553 922 3140 415 
Q 2728 -91 2106 -91 
Q 1794 -91 1441 169 
Q 1209 338 1013 794 
L 1013 0 
L 731 0 
L 731 4863 
L 1013 4863 
L 1013 2700 
z
" transform="scale(0.015625)"/>
       <path id="DejaVuSans-ExtraLight-69" d="M 719 3500 
L 1006 3500 
L 1006 0 
L 719 0 
L 719 3500 
z
M 719 4863 
L 1006 4863 
L 1006 4469 
L 719 4469 
L 719 4863 
z
" transform="scale(0.015625)"/>
       <path id="DejaVuSans-ExtraLight-6d" d="M 3244 2738 
Q 3406 3159 3756 3375 
Q 4088 3584 4544 3584 
Q 5000 3584 5275 3263 
Q 5553 2944 5553 2113 
L 5553 0 
L 5269 0 
L 5269 2094 
Q 5269 2819 5069 3075 
Q 4869 3331 4538 3331 
Q 4056 3331 3688 3034 
Q 3284 2713 3284 1978 
L 3284 0 
L 2997 0 
L 2997 2094 
Q 2997 2794 2803 3062 
Q 2609 3331 2266 3331 
Q 1784 3331 1416 3031 
Q 1013 2709 1013 1978 
L 1013 0 
L 725 0 
L 725 3500 
L 1013 3500 
L 1013 2844 
Q 1166 3188 1488 3388 
Q 1813 3584 2284 3584 
Q 2591 3584 2875 3378 
Q 3094 3219 3244 2738 
z
" transform="scale(0.015625)"/>
       <path id="DejaVuSans-ExtraLight-73" d="M 2706 3397 
L 2706 3081 
Q 2403 3250 2328 3269 
Q 2109 3322 1784 3331 
Q 1291 3331 1009 3134 
Q 794 2972 794 2578 
Q 794 2313 997 2163 
Q 1213 2000 1613 1913 
L 1809 1869 
Q 2306 1759 2563 1559 
Q 2859 1331 2875 966 
Q 2875 469 2581 188 
Q 2269 -91 1575 -91 
Q 1188 -91 988 -38 
Q 747 31 481 128 
L 481 488 
Q 863 269 975 238 
Q 1284 156 1588 156 
Q 2094 156 2334 366 
Q 2578 578 2578 922 
Q 2578 1209 2416 1341 
Q 2181 1528 1669 1647 
L 1469 1694 
Q 1028 1797 797 1984 
Q 506 2219 506 2553 
Q 506 3103 856 3343 
Q 1206 3584 1716 3584 
Q 2150 3584 2316 3538 
Q 2516 3481 2706 3397 
z
" transform="scale(0.015625)"/>
       <path id="DejaVuSans-ExtraLight-65" d="M 3453 1894 
L 3453 1713 
L 797 1713 
Q 797 869 1125 531 
Q 1488 156 2203 156 
Q 2391 156 2700 238 
Q 3013 319 3319 481 
L 3319 178 
Q 3009 47 2684 -22 
Q 2359 -91 2169 -91 
Q 1359 -91 950 347 
Q 506 813 506 1713 
Q 506 2647 913 3106 
Q 1328 3584 2069 3584 
Q 2756 3584 3106 3131 
Q 3453 2656 3453 1894 
z
M 3163 1956 
Q 3163 2694 2831 3031 
Q 2553 3331 2075 3331 
Q 1553 3331 1200 3019 
Q 875 2728 809 1956 
L 3163 1956 
z
" transform="scale(0.015625)"/>
       <path id="DejaVuSans-ExtraLight-6e" d="M 3369 2113 
L 3369 0 
L 3081 0 
L 3081 2094 
Q 3081 2775 2862 3053 
Q 2644 3331 2219 3331 
Q 1722 3331 1369 3031 
Q 1013 2728 1013 1978 
L 1013 0 
L 725 0 
L 725 3500 
L 1013 3500 
L 1013 2844 
Q 1166 3163 1416 3331 
Q 1784 3584 2231 3584 
Q 2750 3584 3059 3231 
Q 3369 2881 3369 2113 
z
" transform="scale(0.015625)"/>
       <path id="DejaVuSans-ExtraLight-64" d="M 3050 2700 
L 3050 4863 
L 3331 4863 
L 3331 0 
L 3050 0 
L 3050 794 
Q 2853 338 2622 169 
Q 2269 -91 1956 -91 
Q 1334 -91 921 415 
Q 509 922 509 1747 
Q 509 2572 921 3078 
Q 1334 3584 1956 3584 
Q 2269 3584 2622 3325 
Q 2853 3156 3050 2700 
z
M 1175 2966 
Q 813 2600 813 1747 
Q 813 894 1175 528 
Q 1534 163 1934 163 
Q 2325 163 2688 528 
Q 3047 894 3047 1747 
Q 3047 2600 2688 2966 
Q 2325 3331 1934 3331 
Q 1534 3331 1175 2966 
z
" transform="scale(0.015625)"/>
       <path id="DejaVuSans-ExtraLight-5b" d="M 725 4863 
L 1791 4863 
L 1791 4538 
L 1038 4538 
L 1038 -581 
L 1791 -581 
L 1791 -844 
L 725 -844 
L 725 4863 
z
" transform="scale(0.015625)"/>
       <path id="DejaVuSans-ExtraLight-6b" d="M 1016 4863 
L 1306 4863 
L 1306 1909 
L 3047 3500 
L 3441 3500 
L 1631 1847 
L 3500 0 
L 3128 0 
L 1306 1794 
L 1306 0 
L 1016 0 
L 1016 4863 
z
" transform="scale(0.015625)"/>
       <path id="DejaVuSans-ExtraLight-67" d="M 3050 1791 
Q 3050 2519 2754 2920 
Q 2459 3322 1925 3322 
Q 1397 3322 1101 2920 
Q 806 2519 806 1791 
Q 806 1066 1101 664 
Q 1397 263 1925 263 
Q 2459 263 2754 664 
Q 3050 1066 3050 1791 
z
M 3338 434 
Q 3338 -656 2922 -993 
Q 2506 -1331 1869 -1331 
Q 1566 -1331 1297 -1288 
Q 1028 -1241 775 -1147 
L 775 -819 
Q 1028 -956 1275 -1022 
Q 1522 -1088 1778 -1088 
Q 2300 -1088 2675 -866 
Q 3050 -644 3050 331 
L 3050 878 
Q 2922 519 2697 313 
Q 2353 -3 1925 0 
Q 1259 0 887 470 
Q 516 941 516 1794 
Q 516 2644 887 3114 
Q 1259 3584 1925 3584 
Q 2350 3584 2656 3316 
Q 2894 3106 3050 2756 
L 3050 3500 
L 3338 3500 
L 3338 434 
z
" transform="scale(0.015625)"/>
       <path id="DejaVuSans-ExtraLight-2f" d="M 1725 4666 
L 2056 4666 
L 431 -594 
L 100 -594 
L 1725 4666 
z
" transform="scale(0.015625)"/>
       <path id="DejaVuSans-ExtraLight-b2" d="M 653 2550 
L 2163 2550 
L 2163 2291 
L 294 2291 
L 294 2597 
Q 547 2803 597 2838 
Q 1772 3700 1772 3950 
Q 1772 4247 1597 4369 
Q 1422 4494 1081 4494 
Q 919 4494 728 4416 
Q 538 4334 313 4178 
L 313 4466 
Q 553 4609 763 4678 
Q 969 4750 1150 4750 
Q 1563 4750 1809 4544 
Q 2056 4338 2056 3994 
Q 2056 3528 966 2769 
Q 766 2628 653 2550 
z
" transform="scale(0.015625)"/>
       <path id="DejaVuSans-ExtraLight-5d" d="M 1791 4863 
L 1791 -844 
L 725 -844 
L 725 -581 
L 1478 -581 
L 1478 4538 
L 725 4538 
L 725 4863 
L 1791 4863 
z
" transform="scale(0.015625)"/>
      </defs>
      <use xlink:href="#DejaVuSans-ExtraLight-54"/>
      <use xlink:href="#DejaVuSans-ExtraLight-6f" x="44.083984"/>
      <use xlink:href="#DejaVuSans-ExtraLight-74" x="105.265625"/>
      <use xlink:href="#DejaVuSans-ExtraLight-61" x="144.474609"/>
      <use xlink:href="#DejaVuSans-ExtraLight-6c" x="205.753906"/>
      <use xlink:href="#DejaVuSans-ExtraLight-20" x="233.537109"/>
      <use xlink:href="#DejaVuSans-ExtraLight-62" x="265.324219"/>
      <use xlink:href="#DejaVuSans-ExtraLight-69" x="328.800781"/>
      <use xlink:href="#DejaVuSans-ExtraLight-6f" x="356.583984"/>
      <use xlink:href="#DejaVuSans-ExtraLight-6d" x="417.765625"/>
      <use xlink:href="#DejaVuSans-ExtraLight-61" x="515.177734"/>
      <use xlink:href="#DejaVuSans-ExtraLight-73" x="576.457031"/>
      <use xlink:href="#DejaVuSans-ExtraLight-73" x="628.556641"/>
      <use xlink:href="#DejaVuSans-ExtraLight-20" x="680.65625"/>
      <use xlink:href="#DejaVuSans-ExtraLight-61" x="712.443359"/>
      <use xlink:href="#DejaVuSans-ExtraLight-74" x="773.722656"/>
      <use xlink:href="#DejaVuSans-ExtraLight-20" x="812.931641"/>
      <use xlink:href="#DejaVuSans-ExtraLight-65" x="844.71875"/>
      <use xlink:href="#DejaVuSans-ExtraLight-6e" x="906.242188"/>
      <use xlink:href="#DejaVuSans-ExtraLight-64" x="969.621094"/>
      <use xlink:href="#DejaVuSans-ExtraLight-20" x="1033.097656"/>
      <use xlink:href="#DejaVuSans-ExtraLight-74" x="1064.884766"/>
      <use xlink:href="#DejaVuSans-ExtraLight-69" x="1104.09375"/>
      <use xlink:href="#DejaVuSans-ExtraLight-6d" x="1131.876953"/>
      <use xlink:href="#DejaVuSans-ExtraLight-65" x="1229.289062"/>
      <use xlink:href="#DejaVuSans-ExtraLight-20" x="1290.8125"/>
      <use xlink:href="#DejaVuSans-ExtraLight-20" x="1322.599609"/>
      <use xlink:href="#DejaVuSans-ExtraLight-5b" x="1354.386719"/>
      <use xlink:href="#DejaVuSans-ExtraLight-6b" x="1393.400391"/>
      <use xlink:href="#DejaVuSans-ExtraLight-67" x="1451.310547"/>
      <use xlink:href="#DejaVuSans-ExtraLight-2f" x="1511.320312"/>
      <use xlink:href="#DejaVuSans-ExtraLight-6d" x="1545.011719"/>
      <use xlink:href="#DejaVuSans-ExtraLight-b2" x="1642.423828"/>
      <use xlink:href="#DejaVuSans-ExtraLight-5d" x="1682.511719"/>
     </g>
    </g>
   </g>
   <g id="patch_13">
    <path d="M 54 315 
L 54 43.2 
" style="fill: none; stroke: #696969; stroke-width: 0.5; stroke-linejoin: miter; stroke-linecap: square"/>
   </g>
   <g id="patch_14">
    <path d="M 388.8 315 
L 388.8 43.2 
" style="fill: none; stroke: #696969; stroke-width: 0.5; stroke-linejoin: miter; stroke-linecap: square"/>
   </g>
   <g id="patch_15">
    <path d="M 54 315 
L 388.8 315 
" style="fill: none; stroke: #696969; stroke-width: 0.5; stroke-linejoin: miter; stroke-linecap: square"/>
   </g>
   <g id="legend_1">
    <g id="patch_16">
     <path d="M 42.359687 90.626312 
L 400.440313 90.626312 
Q 403.240313 90.626312 403.240313 87.826312 
L 403.240313 53 
Q 403.240313 50.2 400.440313 50.2 
L 42.359687 50.2 
Q 39.559687 50.2 39.559687 53 
L 39.559687 87.826312 
Q 39.559687 90.626312 42.359687 90.626312 
z
" style="fill: #fffafa; opacity: 0.8; stroke: #cccccc; stroke-linejoin: miter"/>
    </g>
    <g id="patch_17">
     <path d="M 45.159687 75.732062 
L 73.159687 75.732062 
L 73.159687 65.932062 
L 45.159687 65.932062 
z
" style="fill: url(#h5814a47213); stroke: #000000; stroke-linejoin: miter"/>
    </g>
    <g id="text_10">
     <!-- Instantaneous -->
     <g transform="translate(84.359688 66.437812)scale(0.14 -0.14)">
      <defs>
       <path id="DejaVuSans-75" d="M 544 1381 
L 544 3500 
L 1119 3500 
L 1119 1403 
Q 1119 906 1312 657 
Q 1506 409 1894 409 
Q 2359 409 2629 706 
Q 2900 1003 2900 1516 
L 2900 3500 
L 3475 3500 
L 3475 0 
L 2900 0 
L 2900 538 
Q 2691 219 2414 64 
Q 2138 -91 1772 -91 
Q 1169 -91 856 284 
Q 544 659 544 1381 
z
M 1991 3584 
L 1991 3584 
z
" transform="scale(0.015625)"/>
      </defs>
      <use xlink:href="#DejaVuSans-49"/>
      <use xlink:href="#DejaVuSans-6e" x="29.492188"/>
      <use xlink:href="#DejaVuSans-73" x="92.871094"/>
      <use xlink:href="#DejaVuSans-74" x="144.970703"/>
      <use xlink:href="#DejaVuSans-61" x="184.179688"/>
      <use xlink:href="#DejaVuSans-6e" x="245.458984"/>
      <use xlink:href="#DejaVuSans-74" x="308.837891"/>
      <use xlink:href="#DejaVuSans-61" x="348.046875"/>
      <use xlink:href="#DejaVuSans-6e" x="409.326172"/>
      <use xlink:href="#DejaVuSans-65" x="472.705078"/>
      <use xlink:href="#DejaVuSans-6f" x="534.228516"/>
      <use xlink:href="#DejaVuSans-75" x="595.410156"/>
      <use xlink:href="#DejaVuSans-73" x="658.789062"/>
     </g>
     <!-- (turbulent) pressure -->
     <g transform="translate(84.359688 82.11475)scale(0.14 -0.14)">
      <defs>
       <path id="DejaVuSans-28" d="M 1984 4856 
Q 1566 4138 1362 3434 
Q 1159 2731 1159 2009 
Q 1159 1288 1364 580 
Q 1569 -128 1984 -844 
L 1484 -844 
Q 1016 -109 783 600 
Q 550 1309 550 2009 
Q 550 2706 781 3412 
Q 1013 4119 1484 4856 
L 1984 4856 
z
" transform="scale(0.015625)"/>
       <path id="DejaVuSans-6c" d="M 603 4863 
L 1178 4863 
L 1178 0 
L 603 0 
L 603 4863 
z
" transform="scale(0.015625)"/>
       <path id="DejaVuSans-29" d="M 513 4856 
L 1013 4856 
Q 1481 4119 1714 3412 
Q 1947 2706 1947 2009 
Q 1947 1309 1714 600 
Q 1481 -109 1013 -844 
L 513 -844 
Q 928 -128 1133 580 
Q 1338 1288 1338 2009 
Q 1338 2731 1133 3434 
Q 928 4138 513 4856 
z
" transform="scale(0.015625)"/>
       <path id="DejaVuSans-20" transform="scale(0.015625)"/>
      </defs>
      <use xlink:href="#DejaVuSans-28"/>
      <use xlink:href="#DejaVuSans-74" x="39.013672"/>
      <use xlink:href="#DejaVuSans-75" x="78.222656"/>
      <use xlink:href="#DejaVuSans-72" x="141.601562"/>
      <use xlink:href="#DejaVuSans-62" x="182.714844"/>
      <use xlink:href="#DejaVuSans-75" x="246.191406"/>
      <use xlink:href="#DejaVuSans-6c" x="309.570312"/>
      <use xlink:href="#DejaVuSans-65" x="337.353516"/>
      <use xlink:href="#DejaVuSans-6e" x="398.876953"/>
      <use xlink:href="#DejaVuSans-74" x="462.255859"/>
      <use xlink:href="#DejaVuSans-29" x="501.464844"/>
      <use xlink:href="#DejaVuSans-20" x="540.478516"/>
      <use xlink:href="#DejaVuSans-70" x="572.265625"/>
      <use xlink:href="#DejaVuSans-72" x="635.742188"/>
      <use xlink:href="#DejaVuSans-65" x="674.605469"/>
      <use xlink:href="#DejaVuSans-73" x="736.128906"/>
      <use xlink:href="#DejaVuSans-73" x="788.228516"/>
      <use xlink:href="#DejaVuSans-75" x="840.328125"/>
      <use xlink:href="#DejaVuSans-72" x="903.707031"/>
      <use xlink:href="#DejaVuSans-65" x="942.570312"/>
     </g>
    </g>
    <g id="patch_18">
     <path d="M 252.930625 75.732062 
L 280.930625 75.732062 
L 280.930625 65.932062 
L 252.930625 65.932062 
z
" style="fill: #a9a9a9; stroke: #000000; stroke-linejoin: miter"/>
    </g>
    <g id="text_11">
     <!-- Time-averaged -->
     <g transform="translate(292.130625 66.437812)scale(0.14 -0.14)">
      <defs>
       <path id="DejaVuSans-54" d="M -19 4666 
L 3928 4666 
L 3928 4134 
L 2272 4134 
L 2272 0 
L 1638 0 
L 1638 4134 
L -19 4134 
L -19 4666 
z
" transform="scale(0.015625)"/>
       <path id="DejaVuSans-2d" d="M 313 2009 
L 1997 2009 
L 1997 1497 
L 313 1497 
L 313 2009 
z
" transform="scale(0.015625)"/>
       <path id="DejaVuSans-76" d="M 191 3500 
L 800 3500 
L 1894 563 
L 2988 3500 
L 3597 3500 
L 2284 0 
L 1503 0 
L 191 3500 
z
" transform="scale(0.015625)"/>
       <path id="DejaVuSans-67" d="M 2906 1791 
Q 2906 2416 2648 2759 
Q 2391 3103 1925 3103 
Q 1463 3103 1205 2759 
Q 947 2416 947 1791 
Q 947 1169 1205 825 
Q 1463 481 1925 481 
Q 2391 481 2648 825 
Q 2906 1169 2906 1791 
z
M 3481 434 
Q 3481 -459 3084 -895 
Q 2688 -1331 1869 -1331 
Q 1566 -1331 1297 -1286 
Q 1028 -1241 775 -1147 
L 775 -588 
Q 1028 -725 1275 -790 
Q 1522 -856 1778 -856 
Q 2344 -856 2625 -561 
Q 2906 -266 2906 331 
L 2906 616 
Q 2728 306 2450 153 
Q 2172 0 1784 0 
Q 1141 0 747 490 
Q 353 981 353 1791 
Q 353 2603 747 3093 
Q 1141 3584 1784 3584 
Q 2172 3584 2450 3431 
Q 2728 3278 2906 2969 
L 2906 3500 
L 3481 3500 
L 3481 434 
z
" transform="scale(0.015625)"/>
       <path id="DejaVuSans-64" d="M 2906 2969 
L 2906 4863 
L 3481 4863 
L 3481 0 
L 2906 0 
L 2906 525 
Q 2725 213 2448 61 
Q 2172 -91 1784 -91 
Q 1150 -91 751 415 
Q 353 922 353 1747 
Q 353 2572 751 3078 
Q 1150 3584 1784 3584 
Q 2172 3584 2448 3432 
Q 2725 3281 2906 2969 
z
M 947 1747 
Q 947 1113 1208 752 
Q 1469 391 1925 391 
Q 2381 391 2643 752 
Q 2906 1113 2906 1747 
Q 2906 2381 2643 2742 
Q 2381 3103 1925 3103 
Q 1469 3103 1208 2742 
Q 947 2381 947 1747 
z
" transform="scale(0.015625)"/>
      </defs>
      <use xlink:href="#DejaVuSans-54"/>
      <use xlink:href="#DejaVuSans-69" x="57.958984"/>
      <use xlink:href="#DejaVuSans-6d" x="85.742188"/>
      <use xlink:href="#DejaVuSans-65" x="183.154297"/>
      <use xlink:href="#DejaVuSans-2d" x="244.677734"/>
      <use xlink:href="#DejaVuSans-61" x="280.761719"/>
      <use xlink:href="#DejaVuSans-76" x="342.041016"/>
      <use xlink:href="#DejaVuSans-65" x="401.220703"/>
      <use xlink:href="#DejaVuSans-72" x="462.744141"/>
      <use xlink:href="#DejaVuSans-61" x="503.857422"/>
      <use xlink:href="#DejaVuSans-67" x="565.136719"/>
      <use xlink:href="#DejaVuSans-65" x="628.613281"/>
      <use xlink:href="#DejaVuSans-64" x="690.136719"/>
     </g>
     <!-- pressure -->
     <g transform="translate(292.130625 82.11475)scale(0.14 -0.14)">
      <use xlink:href="#DejaVuSans-70"/>
      <use xlink:href="#DejaVuSans-72" x="63.476562"/>
      <use xlink:href="#DejaVuSans-65" x="102.339844"/>
      <use xlink:href="#DejaVuSans-73" x="163.863281"/>
      <use xlink:href="#DejaVuSans-73" x="215.962891"/>
      <use xlink:href="#DejaVuSans-75" x="268.0625"/>
      <use xlink:href="#DejaVuSans-72" x="331.441406"/>
      <use xlink:href="#DejaVuSans-65" x="370.304688"/>
     </g>
    </g>
   </g>
  </g>
 </g>
 <defs>
  <clipPath id="p8939cade9f">
   <rect x="54" y="43.2" width="334.8" height="271.8"/>
  </clipPath>
 </defs>
 <defs>
  <pattern id="h5814a47213" patternUnits="userSpaceOnUse" x="0" y="0" width="72" height="72">
   <rect x="0" y="0" width="73" height="73" fill="#a9a9a9"/>
   <path d="M -36 36 
L 36 -36 
M -32 40 
L 40 -32 
M -28 44 
L 44 -28 
M -24 48 
L 48 -24 
M -20 52 
L 52 -20 
M -16 56 
L 56 -16 
M -12 60 
L 60 -12 
M -8 64 
L 64 -8 
M -4 68 
L 68 -4 
M 0 72 
L 72 0 
M 4 76 
L 76 4 
M 8 80 
L 80 8 
M 12 84 
L 84 12 
M 16 88 
L 88 16 
M 20 92 
L 92 20 
M 24 96 
L 96 24 
M 28 100 
L 100 28 
M 32 104 
L 104 32 
M 36 108 
L 108 36 
" style="fill: #000000; stroke: #000000; stroke-width: 1.0; stroke-linecap: butt; stroke-linejoin: miter"/>
  </pattern>
  <pattern id="he2eeb4364b" patternUnits="userSpaceOnUse" x="0" y="0" width="72" height="72">
   <rect x="0" y="0" width="73" height="73" fill="#008000"/>
   <path d="M -36 36 
L 36 -36 
M -32 40 
L 40 -32 
M -28 44 
L 44 -28 
M -24 48 
L 48 -24 
M -20 52 
L 52 -20 
M -16 56 
L 56 -16 
M -12 60 
L 60 -12 
M -8 64 
L 64 -8 
M -4 68 
L 68 -4 
M 0 72 
L 72 0 
M 4 76 
L 76 4 
M 8 80 
L 80 8 
M 12 84 
L 84 12 
M 16 88 
L 88 16 
M 20 92 
L 92 20 
M 24 96 
L 96 24 
M 28 100 
L 100 28 
M 32 104 
L 104 32 
M 36 108 
L 108 36 
" style="fill: #000000; stroke: #000000; stroke-width: 1.0; stroke-linecap: butt; stroke-linejoin: miter"/>
  </pattern>
  <pattern id="hedf03f62b8" patternUnits="userSpaceOnUse" x="0" y="0" width="72" height="72">
   <rect x="0" y="0" width="73" height="73" fill="#ff8c00"/>
   <path d="M -36 36 
L 36 -36 
M -32 40 
L 40 -32 
M -28 44 
L 44 -28 
M -24 48 
L 48 -24 
M -20 52 
L 52 -20 
M -16 56 
L 56 -16 
M -12 60 
L 60 -12 
M -8 64 
L 64 -8 
M -4 68 
L 68 -4 
M 0 72 
L 72 0 
M 4 76 
L 76 4 
M 8 80 
L 80 8 
M 12 84 
L 84 12 
M 16 88 
L 88 16 
M 20 92 
L 92 20 
M 24 96 
L 96 24 
M 28 100 
L 100 28 
M 32 104 
L 104 32 
M 36 108 
L 108 36 
" style="fill: #000000; stroke: #000000; stroke-width: 1.0; stroke-linecap: butt; stroke-linejoin: miter"/>
  </pattern>
  <pattern id="hc74ec92001" patternUnits="userSpaceOnUse" x="0" y="0" width="72" height="72">
   <rect x="0" y="0" width="73" height="73" fill="#6a5acd"/>
   <path d="M -36 36 
L 36 -36 
M -32 40 
L 40 -32 
M -28 44 
L 44 -28 
M -24 48 
L 48 -24 
M -20 52 
L 52 -20 
M -16 56 
L 56 -16 
M -12 60 
L 60 -12 
M -8 64 
L 64 -8 
M -4 68 
L 68 -4 
M 0 72 
L 72 0 
M 4 76 
L 76 4 
M 8 80 
L 80 8 
M 12 84 
L 84 12 
M 16 88 
L 88 16 
M 20 92 
L 92 20 
M 24 96 
L 96 24 
M 28 100 
L 100 28 
M 32 104 
L 104 32 
M 36 108 
L 108 36 
" style="fill: #000000; stroke: #000000; stroke-width: 1.0; stroke-linecap: butt; stroke-linejoin: miter"/>
  </pattern>
  <pattern id="h98b292ff9e" patternUnits="userSpaceOnUse" x="0" y="0" width="72" height="72">
   <rect x="0" y="0" width="73" height="73" fill="#ffc0cb"/>
   <path d="M -36 36 
L 36 -36 
M -32 40 
L 40 -32 
M -28 44 
L 44 -28 
M -24 48 
L 48 -24 
M -20 52 
L 52 -20 
M -16 56 
L 56 -16 
M -12 60 
L 60 -12 
M -8 64 
L 64 -8 
M -4 68 
L 68 -4 
M 0 72 
L 72 0 
M 4 76 
L 76 4 
M 8 80 
L 80 8 
M 12 84 
L 84 12 
M 16 88 
L 88 16 
M 20 92 
L 92 20 
M 24 96 
L 96 24 
M 28 100 
L 100 28 
M 32 104 
L 104 32 
M 36 108 
L 108 36 
" style="fill: #000000; stroke: #000000; stroke-width: 1.0; stroke-linecap: butt; stroke-linejoin: miter"/>
  </pattern>
 </defs>
</svg>
