<?xml version="1.0" encoding="utf-8" standalone="no"?>
<!DOCTYPE svg PUBLIC "-//W3C//DTD SVG 1.1//EN"
  "http://www.w3.org/Graphics/SVG/1.1/DTD/svg11.dtd">
<svg xmlns:xlink="http://www.w3.org/1999/xlink" width="360pt" height="324pt" viewBox="0 0 360 324" xmlns="http://www.w3.org/2000/svg" version="1.1">
 <metadata>
  <rdf:RDF xmlns:dc="http://purl.org/dc/elements/1.1/" xmlns:cc="http://creativecommons.org/ns#" xmlns:rdf="http://www.w3.org/1999/02/22-rdf-syntax-ns#">
   <cc:Work>
    <dc:type rdf:resource="http://purl.org/dc/dcmitype/StillImage"/>
    <dc:date>2023-08-21T17:27:43.142111</dc:date>
    <dc:format>image/svg+xml</dc:format>
    <dc:creator>
     <cc:Agent>
      <dc:title>Matplotlib v3.7.1, https://matplotlib.org/</dc:title>
     </cc:Agent>
    </dc:creator>
   </cc:Work>
  </rdf:RDF>
 </metadata>
 <defs>
  <style type="text/css">*{stroke-linejoin: round; stroke-linecap: butt}</style>
 </defs>
 <g id="figure_1">
  <g id="patch_1">
   <path d="M 0 324 
L 360 324 
L 360 0 
L 0 0 
L 0 324 
z
" style="fill: none"/>
  </g>
  <g id="axes_1">
   <g id="patch_2">
    <path d="M 45 288.36 
L 324 288.36 
L 324 38.88 
L 45 38.88 
z
" style="fill: #ffffff"/>
   </g>
   <g id="matplotlib.axis_1">
    <g id="xtick_1">
     <g id="line2d_1">
      <defs>
       <path id="m3269035962" d="M 0 0 
L 0 3.5 
" style="stroke: #696969; stroke-width: 0.8"/>
      </defs>
      <g>
       <use xlink:href="#m3269035962" x="57.638453" y="288.36" style="fill: #696969; stroke: #696969; stroke-width: 0.8"/>
      </g>
     </g>
     <g id="text_1">
      <!-- 0 -->
      <g style="fill: #696969" transform="translate(53.820953 304.478125) scale(0.12 -0.12)">
       <defs>
        <path id="DejaVuSans-30" d="M 2034 4250 
Q 1547 4250 1301 3770 
Q 1056 3291 1056 2328 
Q 1056 1369 1301 889 
Q 1547 409 2034 409 
Q 2525 409 2770 889 
Q 3016 1369 3016 2328 
Q 3016 3291 2770 3770 
Q 2525 4250 2034 4250 
z
M 2034 4750 
Q 2819 4750 3233 4129 
Q 3647 3509 3647 2328 
Q 3647 1150 3233 529 
Q 2819 -91 2034 -91 
Q 1250 -91 836 529 
Q 422 1150 422 2328 
Q 422 3509 836 4129 
Q 1250 4750 2034 4750 
z
" transform="scale(0.015625)"/>
       </defs>
       <use xlink:href="#DejaVuSans-30"/>
      </g>
     </g>
    </g>
    <g id="xtick_2">
     <g id="line2d_2">
      <g>
       <use xlink:href="#m3269035962" x="121.058385" y="288.36" style="fill: #696969; stroke: #696969; stroke-width: 0.8"/>
      </g>
     </g>
     <g id="text_2">
      <!-- 5 -->
      <g style="fill: #696969" transform="translate(117.240885 304.478125) scale(0.12 -0.12)">
       <defs>
        <path id="DejaVuSans-35" d="M 691 4666 
L 3169 4666 
L 3169 4134 
L 1269 4134 
L 1269 2991 
Q 1406 3038 1543 3061 
Q 1681 3084 1819 3084 
Q 2600 3084 3056 2656 
Q 3513 2228 3513 1497 
Q 3513 744 3044 326 
Q 2575 -91 1722 -91 
Q 1428 -91 1123 -41 
Q 819 9 494 109 
L 494 744 
Q 775 591 1075 516 
Q 1375 441 1709 441 
Q 2250 441 2565 725 
Q 2881 1009 2881 1497 
Q 2881 1984 2565 2268 
Q 2250 2553 1709 2553 
Q 1456 2553 1204 2497 
Q 953 2441 691 2322 
L 691 4666 
z
" transform="scale(0.015625)"/>
       </defs>
       <use xlink:href="#DejaVuSans-35"/>
      </g>
     </g>
    </g>
    <g id="xtick_3">
     <g id="line2d_3">
      <g>
       <use xlink:href="#m3269035962" x="184.478318" y="288.36" style="fill: #696969; stroke: #696969; stroke-width: 0.8"/>
      </g>
     </g>
     <g id="text_3">
      <!-- 10 -->
      <g style="fill: #696969" transform="translate(176.843318 304.478125) scale(0.12 -0.12)">
       <defs>
        <path id="DejaVuSans-31" d="M 794 531 
L 1825 531 
L 1825 4091 
L 703 3866 
L 703 4441 
L 1819 4666 
L 2450 4666 
L 2450 531 
L 3481 531 
L 3481 0 
L 794 0 
L 794 531 
z
" transform="scale(0.015625)"/>
       </defs>
       <use xlink:href="#DejaVuSans-31"/>
       <use xlink:href="#DejaVuSans-30" x="63.623047"/>
      </g>
     </g>
    </g>
    <g id="xtick_4">
     <g id="line2d_4">
      <g>
       <use xlink:href="#m3269035962" x="247.89825" y="288.36" style="fill: #696969; stroke: #696969; stroke-width: 0.8"/>
      </g>
     </g>
     <g id="text_4">
      <!-- 15 -->
      <g style="fill: #696969" transform="translate(240.26325 304.478125) scale(0.12 -0.12)">
       <use xlink:href="#DejaVuSans-31"/>
       <use xlink:href="#DejaVuSans-35" x="63.623047"/>
      </g>
     </g>
    </g>
    <g id="xtick_5">
     <g id="line2d_5">
      <g>
       <use xlink:href="#m3269035962" x="311.318182" y="288.36" style="fill: #696969; stroke: #696969; stroke-width: 0.8"/>
      </g>
     </g>
     <g id="text_5">
      <!-- 20 -->
      <g style="fill: #696969" transform="translate(303.683182 304.478125) scale(0.12 -0.12)">
       <defs>
        <path id="DejaVuSans-32" d="M 1228 531 
L 3431 531 
L 3431 0 
L 469 0 
L 469 531 
Q 828 903 1448 1529 
Q 2069 2156 2228 2338 
Q 2531 2678 2651 2914 
Q 2772 3150 2772 3378 
Q 2772 3750 2511 3984 
Q 2250 4219 1831 4219 
Q 1534 4219 1204 4116 
Q 875 4013 500 3803 
L 500 4441 
Q 881 4594 1212 4672 
Q 1544 4750 1819 4750 
Q 2544 4750 2975 4387 
Q 3406 4025 3406 3419 
Q 3406 3131 3298 2873 
Q 3191 2616 2906 2266 
Q 2828 2175 2409 1742 
Q 1991 1309 1228 531 
z
" transform="scale(0.015625)"/>
       </defs>
       <use xlink:href="#DejaVuSans-32"/>
       <use xlink:href="#DejaVuSans-30" x="63.623047"/>
      </g>
     </g>
    </g>
    <g id="text_6">
     <!-- Time [d] -->
     <g transform="translate(159.421875 326.091875) scale(0.12 -0.12)">
      <defs>
       <path id="DejaVuSans-ExtraLight-54" d="M 141 4666 
L 3769 4666 
L 3769 4409 
L 2113 4409 
L 2113 0 
L 1797 0 
L 1797 4409 
L 141 4409 
L 141 4666 
z
" transform="scale(0.015625)"/>
       <path id="DejaVuSans-ExtraLight-69" d="M 719 3500 
L 1006 3500 
L 1006 0 
L 719 0 
L 719 3500 
z
M 719 4863 
L 1006 4863 
L 1006 4469 
L 719 4469 
L 719 4863 
z
" transform="scale(0.015625)"/>
       <path id="DejaVuSans-ExtraLight-6d" d="M 3244 2738 
Q 3406 3159 3756 3375 
Q 4088 3584 4544 3584 
Q 5000 3584 5275 3263 
Q 5553 2944 5553 2113 
L 5553 0 
L 5269 0 
L 5269 2094 
Q 5269 2819 5069 3075 
Q 4869 3331 4538 3331 
Q 4056 3331 3688 3034 
Q 3284 2713 3284 1978 
L 3284 0 
L 2997 0 
L 2997 2094 
Q 2997 2794 2803 3062 
Q 2609 3331 2266 3331 
Q 1784 3331 1416 3031 
Q 1013 2709 1013 1978 
L 1013 0 
L 725 0 
L 725 3500 
L 1013 3500 
L 1013 2844 
Q 1166 3188 1488 3388 
Q 1813 3584 2284 3584 
Q 2591 3584 2875 3378 
Q 3094 3219 3244 2738 
z
" transform="scale(0.015625)"/>
       <path id="DejaVuSans-ExtraLight-65" d="M 3453 1894 
L 3453 1713 
L 797 1713 
Q 797 869 1125 531 
Q 1488 156 2203 156 
Q 2391 156 2700 238 
Q 3013 319 3319 481 
L 3319 178 
Q 3009 47 2684 -22 
Q 2359 -91 2169 -91 
Q 1359 -91 950 347 
Q 506 813 506 1713 
Q 506 2647 913 3106 
Q 1328 3584 2069 3584 
Q 2756 3584 3106 3131 
Q 3453 2656 3453 1894 
z
M 3163 1956 
Q 3163 2694 2831 3031 
Q 2553 3331 2075 3331 
Q 1553 3331 1200 3019 
Q 875 2728 809 1956 
L 3163 1956 
z
" transform="scale(0.015625)"/>
       <path id="DejaVuSans-ExtraLight-20" transform="scale(0.015625)"/>
       <path id="DejaVuSans-ExtraLight-5b" d="M 725 4863 
L 1791 4863 
L 1791 4538 
L 1038 4538 
L 1038 -581 
L 1791 -581 
L 1791 -844 
L 725 -844 
L 725 4863 
z
" transform="scale(0.015625)"/>
       <path id="DejaVuSans-ExtraLight-64" d="M 3050 2700 
L 3050 4863 
L 3331 4863 
L 3331 0 
L 3050 0 
L 3050 794 
Q 2853 338 2622 169 
Q 2269 -91 1956 -91 
Q 1334 -91 921 415 
Q 509 922 509 1747 
Q 509 2572 921 3078 
Q 1334 3584 1956 3584 
Q 2269 3584 2622 3325 
Q 2853 3156 3050 2700 
z
M 1175 2966 
Q 813 2600 813 1747 
Q 813 894 1175 528 
Q 1534 163 1934 163 
Q 2325 163 2688 528 
Q 3047 894 3047 1747 
Q 3047 2600 2688 2966 
Q 2325 3331 1934 3331 
Q 1534 3331 1175 2966 
z
" transform="scale(0.015625)"/>
       <path id="DejaVuSans-ExtraLight-5d" d="M 1791 4863 
L 1791 -844 
L 725 -844 
L 725 -581 
L 1478 -581 
L 1478 4538 
L 725 4538 
L 725 4863 
L 1791 4863 
z
" transform="scale(0.015625)"/>
      </defs>
      <use xlink:href="#DejaVuSans-ExtraLight-54"/>
      <use xlink:href="#DejaVuSans-ExtraLight-69" x="57.958984"/>
      <use xlink:href="#DejaVuSans-ExtraLight-6d" x="85.742188"/>
      <use xlink:href="#DejaVuSans-ExtraLight-65" x="183.154297"/>
      <use xlink:href="#DejaVuSans-ExtraLight-20" x="244.677734"/>
      <use xlink:href="#DejaVuSans-ExtraLight-5b" x="276.464844"/>
      <use xlink:href="#DejaVuSans-ExtraLight-64" x="315.478516"/>
      <use xlink:href="#DejaVuSans-ExtraLight-5d" x="378.955078"/>
     </g>
    </g>
   </g>
   <g id="matplotlib.axis_2">
    <g id="ytick_1">
     <g id="line2d_6">
      <defs>
       <path id="maf4b148721" d="M 0 0 
L -3.5 0 
" style="stroke: #696969; stroke-width: 0.8"/>
      </defs>
      <g>
       <use xlink:href="#maf4b148721" x="45" y="288.36" style="fill: #696969; stroke: #696969; stroke-width: 0.8"/>
      </g>
     </g>
     <g id="text_7">
      <!-- 0.0 -->
      <g style="fill: #696969" transform="translate(18.91625 292.919062) scale(0.12 -0.12)">
       <defs>
        <path id="DejaVuSans-2e" d="M 684 794 
L 1344 794 
L 1344 0 
L 684 0 
L 684 794 
z
" transform="scale(0.015625)"/>
       </defs>
       <use xlink:href="#DejaVuSans-30"/>
       <use xlink:href="#DejaVuSans-2e" x="63.623047"/>
       <use xlink:href="#DejaVuSans-30" x="95.410156"/>
      </g>
     </g>
    </g>
    <g id="ytick_2">
     <g id="line2d_7">
      <g>
       <use xlink:href="#maf4b148721" x="45" y="243" style="fill: #696969; stroke: #696969; stroke-width: 0.8"/>
      </g>
     </g>
     <g id="text_8">
      <!-- 0.2 -->
      <g style="fill: #696969" transform="translate(18.91625 247.559062) scale(0.12 -0.12)">
       <use xlink:href="#DejaVuSans-30"/>
       <use xlink:href="#DejaVuSans-2e" x="63.623047"/>
       <use xlink:href="#DejaVuSans-32" x="95.410156"/>
      </g>
     </g>
    </g>
    <g id="ytick_3">
     <g id="line2d_8">
      <g>
       <use xlink:href="#maf4b148721" x="45" y="197.64" style="fill: #696969; stroke: #696969; stroke-width: 0.8"/>
      </g>
     </g>
     <g id="text_9">
      <!-- 0.4 -->
      <g style="fill: #696969" transform="translate(18.91625 202.199062) scale(0.12 -0.12)">
       <defs>
        <path id="DejaVuSans-34" d="M 2419 4116 
L 825 1625 
L 2419 1625 
L 2419 4116 
z
M 2253 4666 
L 3047 4666 
L 3047 1625 
L 3713 1625 
L 3713 1100 
L 3047 1100 
L 3047 0 
L 2419 0 
L 2419 1100 
L 313 1100 
L 313 1709 
L 2253 4666 
z
" transform="scale(0.015625)"/>
       </defs>
       <use xlink:href="#DejaVuSans-30"/>
       <use xlink:href="#DejaVuSans-2e" x="63.623047"/>
       <use xlink:href="#DejaVuSans-34" x="95.410156"/>
      </g>
     </g>
    </g>
    <g id="ytick_4">
     <g id="line2d_9">
      <g>
       <use xlink:href="#maf4b148721" x="45" y="152.28" style="fill: #696969; stroke: #696969; stroke-width: 0.8"/>
      </g>
     </g>
     <g id="text_10">
      <!-- 0.6 -->
      <g style="fill: #696969" transform="translate(18.91625 156.839062) scale(0.12 -0.12)">
       <defs>
        <path id="DejaVuSans-36" d="M 2113 2584 
Q 1688 2584 1439 2293 
Q 1191 2003 1191 1497 
Q 1191 994 1439 701 
Q 1688 409 2113 409 
Q 2538 409 2786 701 
Q 3034 994 3034 1497 
Q 3034 2003 2786 2293 
Q 2538 2584 2113 2584 
z
M 3366 4563 
L 3366 3988 
Q 3128 4100 2886 4159 
Q 2644 4219 2406 4219 
Q 1781 4219 1451 3797 
Q 1122 3375 1075 2522 
Q 1259 2794 1537 2939 
Q 1816 3084 2150 3084 
Q 2853 3084 3261 2657 
Q 3669 2231 3669 1497 
Q 3669 778 3244 343 
Q 2819 -91 2113 -91 
Q 1303 -91 875 529 
Q 447 1150 447 2328 
Q 447 3434 972 4092 
Q 1497 4750 2381 4750 
Q 2619 4750 2861 4703 
Q 3103 4656 3366 4563 
z
" transform="scale(0.015625)"/>
       </defs>
       <use xlink:href="#DejaVuSans-30"/>
       <use xlink:href="#DejaVuSans-2e" x="63.623047"/>
       <use xlink:href="#DejaVuSans-36" x="95.410156"/>
      </g>
     </g>
    </g>
    <g id="ytick_5">
     <g id="line2d_10">
      <g>
       <use xlink:href="#maf4b148721" x="45" y="106.92" style="fill: #696969; stroke: #696969; stroke-width: 0.8"/>
      </g>
     </g>
     <g id="text_11">
      <!-- 0.8 -->
      <g style="fill: #696969" transform="translate(18.91625 111.479062) scale(0.12 -0.12)">
       <defs>
        <path id="DejaVuSans-38" d="M 2034 2216 
Q 1584 2216 1326 1975 
Q 1069 1734 1069 1313 
Q 1069 891 1326 650 
Q 1584 409 2034 409 
Q 2484 409 2743 651 
Q 3003 894 3003 1313 
Q 3003 1734 2745 1975 
Q 2488 2216 2034 2216 
z
M 1403 2484 
Q 997 2584 770 2862 
Q 544 3141 544 3541 
Q 544 4100 942 4425 
Q 1341 4750 2034 4750 
Q 2731 4750 3128 4425 
Q 3525 4100 3525 3541 
Q 3525 3141 3298 2862 
Q 3072 2584 2669 2484 
Q 3125 2378 3379 2068 
Q 3634 1759 3634 1313 
Q 3634 634 3220 271 
Q 2806 -91 2034 -91 
Q 1263 -91 848 271 
Q 434 634 434 1313 
Q 434 1759 690 2068 
Q 947 2378 1403 2484 
z
M 1172 3481 
Q 1172 3119 1398 2916 
Q 1625 2713 2034 2713 
Q 2441 2713 2670 2916 
Q 2900 3119 2900 3481 
Q 2900 3844 2670 4047 
Q 2441 4250 2034 4250 
Q 1625 4250 1398 4047 
Q 1172 3844 1172 3481 
z
" transform="scale(0.015625)"/>
       </defs>
       <use xlink:href="#DejaVuSans-30"/>
       <use xlink:href="#DejaVuSans-2e" x="63.623047"/>
       <use xlink:href="#DejaVuSans-38" x="95.410156"/>
      </g>
     </g>
    </g>
    <g id="ytick_6">
     <g id="line2d_11">
      <g>
       <use xlink:href="#maf4b148721" x="45" y="61.56" style="fill: #696969; stroke: #696969; stroke-width: 0.8"/>
      </g>
     </g>
     <g id="text_12">
      <!-- 1.0 -->
      <g style="fill: #696969" transform="translate(18.91625 66.119062) scale(0.12 -0.12)">
       <use xlink:href="#DejaVuSans-31"/>
       <use xlink:href="#DejaVuSans-2e" x="63.623047"/>
       <use xlink:href="#DejaVuSans-30" x="95.410156"/>
      </g>
     </g>
    </g>
    <g id="text_13">
     <!-- Flux out the column [mL/min] -->
     <g transform="translate(6.420625 252.6825) rotate(-90) scale(0.12 -0.12)">
      <defs>
       <path id="DejaVuSans-ExtraLight-46" d="M 781 4666 
L 3147 4666 
L 3147 4406 
L 1097 4406 
L 1097 2616 
L 2947 2616 
L 2947 2363 
L 1097 2363 
L 1097 0 
L 781 0 
L 781 4666 
z
" transform="scale(0.015625)"/>
       <path id="DejaVuSans-ExtraLight-6c" d="M 725 4863 
L 1013 4863 
L 1013 0 
L 725 0 
L 725 4863 
z
" transform="scale(0.015625)"/>
       <path id="DejaVuSans-ExtraLight-75" d="M 688 1388 
L 688 3500 
L 975 3500 
L 975 1406 
Q 975 725 1194 447 
Q 1413 169 1838 169 
Q 2334 169 2688 469 
Q 3044 772 3044 1522 
L 3044 3500 
L 3331 3500 
L 3331 0 
L 3044 0 
L 3044 656 
Q 2891 338 2641 169 
Q 2272 -84 1825 -84 
Q 1306 -84 997 269 
Q 688 619 688 1388 
z
" transform="scale(0.015625)"/>
       <path id="DejaVuSans-ExtraLight-78" d="M 3338 3500 
L 2072 1819 
L 3431 0 
L 3088 0 
L 1900 1594 
L 700 0 
L 356 0 
L 1725 1831 
L 481 3500 
L 822 3500 
L 1900 2047 
L 2994 3500 
L 3338 3500 
z
" transform="scale(0.015625)"/>
       <path id="DejaVuSans-ExtraLight-6f" d="M 2806 2900 
Q 2497 3331 1962 3331 
Q 1428 3331 1119 2903 
Q 806 2478 806 1753 
Q 806 1009 1116 584 
Q 1425 156 1963 156 
Q 2497 156 2806 584 
Q 3119 1016 3119 1753 
Q 3119 2469 2806 2900 
z
M 1959 3584 
Q 2628 3584 3016 3084 
Q 3406 2581 3406 1750 
Q 3406 891 3016 394 
Q 2628 -106 1959 -106 
Q 1284 -106 894 391 
Q 506 888 506 1750 
Q 506 2591 897 3087 
Q 1288 3584 1959 3584 
z
" transform="scale(0.015625)"/>
       <path id="DejaVuSans-ExtraLight-74" d="M 1028 4494 
L 1028 3500 
L 2213 3500 
L 2213 3256 
L 1028 3256 
L 1028 1153 
Q 1028 753 1131 594 
Q 1344 244 1750 244 
L 2213 244 
L 2213 0 
L 1766 0 
Q 1338 0 1038 250 
Q 738 500 738 1153 
L 738 3256 
L 319 3256 
L 319 3500 
L 738 3500 
L 738 4494 
L 1028 4494 
z
" transform="scale(0.015625)"/>
       <path id="DejaVuSans-ExtraLight-68" d="M 3369 2113 
L 3369 0 
L 3081 0 
L 3081 2094 
Q 3081 2769 2853 3050 
Q 2625 3331 2163 3331 
Q 1631 3331 1322 3018 
Q 1013 2706 1013 1978 
L 1013 0 
L 725 0 
L 725 4863 
L 1013 4863 
L 1013 2853 
Q 1113 3122 1369 3331 
Q 1675 3584 2231 3584 
Q 2750 3584 3059 3213 
Q 3369 2838 3369 2113 
z
" transform="scale(0.015625)"/>
       <path id="DejaVuSans-ExtraLight-63" d="M 3122 3331 
L 3122 3025 
Q 2863 3184 2694 3241 
Q 2403 3331 2138 3331 
Q 1381 3331 1053 2943 
Q 725 2556 725 1747 
Q 725 931 1053 543 
Q 1381 156 2138 156 
Q 2388 156 2631 225 
Q 2878 291 3122 425 
L 3122 134 
Q 2881 22 2625 -34 
Q 2366 -91 2113 -91 
Q 1344 -91 891 325 
Q 438 744 438 1747 
Q 438 2750 891 3169 
Q 1344 3584 2113 3584 
Q 2363 3584 2644 3513 
Q 2925 3444 3122 3331 
z
" transform="scale(0.015625)"/>
       <path id="DejaVuSans-ExtraLight-6e" d="M 3369 2113 
L 3369 0 
L 3081 0 
L 3081 2094 
Q 3081 2775 2862 3053 
Q 2644 3331 2219 3331 
Q 1722 3331 1369 3031 
Q 1013 2728 1013 1978 
L 1013 0 
L 725 0 
L 725 3500 
L 1013 3500 
L 1013 2844 
Q 1166 3163 1416 3331 
Q 1784 3584 2231 3584 
Q 2750 3584 3059 3231 
Q 3369 2881 3369 2113 
z
" transform="scale(0.015625)"/>
       <path id="DejaVuSans-ExtraLight-4c" d="M 781 4666 
L 1094 4666 
L 1094 256 
L 3366 256 
L 3366 0 
L 781 0 
L 781 4666 
z
" transform="scale(0.015625)"/>
       <path id="DejaVuSans-ExtraLight-2f" d="M 1725 4666 
L 2056 4666 
L 431 -594 
L 100 -594 
L 1725 4666 
z
" transform="scale(0.015625)"/>
      </defs>
      <use xlink:href="#DejaVuSans-ExtraLight-46"/>
      <use xlink:href="#DejaVuSans-ExtraLight-6c" x="57.519531"/>
      <use xlink:href="#DejaVuSans-ExtraLight-75" x="85.302734"/>
      <use xlink:href="#DejaVuSans-ExtraLight-78" x="148.681641"/>
      <use xlink:href="#DejaVuSans-ExtraLight-20" x="207.861328"/>
      <use xlink:href="#DejaVuSans-ExtraLight-6f" x="239.648438"/>
      <use xlink:href="#DejaVuSans-ExtraLight-75" x="300.830078"/>
      <use xlink:href="#DejaVuSans-ExtraLight-74" x="364.208984"/>
      <use xlink:href="#DejaVuSans-ExtraLight-20" x="403.417969"/>
      <use xlink:href="#DejaVuSans-ExtraLight-74" x="435.205078"/>
      <use xlink:href="#DejaVuSans-ExtraLight-68" x="474.414062"/>
      <use xlink:href="#DejaVuSans-ExtraLight-65" x="537.792969"/>
      <use xlink:href="#DejaVuSans-ExtraLight-20" x="599.316406"/>
      <use xlink:href="#DejaVuSans-ExtraLight-63" x="631.103516"/>
      <use xlink:href="#DejaVuSans-ExtraLight-6f" x="686.083984"/>
      <use xlink:href="#DejaVuSans-ExtraLight-6c" x="747.265625"/>
      <use xlink:href="#DejaVuSans-ExtraLight-75" x="775.048828"/>
      <use xlink:href="#DejaVuSans-ExtraLight-6d" x="838.427734"/>
      <use xlink:href="#DejaVuSans-ExtraLight-6e" x="935.839844"/>
      <use xlink:href="#DejaVuSans-ExtraLight-20" x="999.21875"/>
      <use xlink:href="#DejaVuSans-ExtraLight-5b" x="1031.005859"/>
      <use xlink:href="#DejaVuSans-ExtraLight-6d" x="1070.019531"/>
      <use xlink:href="#DejaVuSans-ExtraLight-4c" x="1167.431641"/>
      <use xlink:href="#DejaVuSans-ExtraLight-2f" x="1223.144531"/>
      <use xlink:href="#DejaVuSans-ExtraLight-6d" x="1256.835938"/>
      <use xlink:href="#DejaVuSans-ExtraLight-69" x="1354.248047"/>
      <use xlink:href="#DejaVuSans-ExtraLight-6e" x="1382.03125"/>
      <use xlink:href="#DejaVuSans-ExtraLight-5d" x="1445.410156"/>
     </g>
    </g>
   </g>
   <g id="line2d_12">
    <path d="M 57.681818 58.568432 
L 71.290252 58.67923 
L 83.533822 58.967852 
L 92.917623 59.487645 
L 98.948389 60.099085 
L 103.839945 60.850733 
L 107.844796 61.694029 
L 111.984709 62.832102 
L 115.243788 63.942817 
L 119.119451 65.526818 
L 123.042091 67.417907 
L 126.870776 69.515545 
L 131.938498 72.594634 
L 138.016242 76.567631 
L 159.549658 90.766185 
L 167.036733 95.323264 
L 175.803951 100.302334 
L 185.44613 105.310812 
L 192.099351 108.480181 
L 197.777783 111.004597 
L 206.545002 114.587064 
L 214.824826 117.636744 
L 222.311902 120.13517 
L 230.456665 122.593928 
L 241.555153 125.549224 
L 249.970039 127.517598 
L 260.757299 129.737661 
L 271.198099 131.600708 
L 281.415755 133.189496 
L 301.363673 135.733062 
L 311.052829 136.750078 
L 311.318182 136.776068 
L 311.318182 136.776068 
" clip-path="url(#pd95ec90dd4)" style="fill: none; stroke: #000000; stroke-width: 2; stroke-linecap: square"/>
   </g>
   <g id="line2d_13">
    <path d="M 184.521682 104.85189 
L 186.326962 105.829921 
L 186.503129 106.270377 
L 186.679295 107.420761 
L 186.90244 110.697509 
L 187.207795 119.179025 
L 187.871355 146.593315 
L 188.793293 181.786717 
L 189.544937 202.543553 
L 190.337686 218.464948 
L 191.130435 230.183338 
L 191.96429 239.438251 
L 192.845122 246.870948 
L 193.772932 252.894459 
L 194.741848 257.793986 
L 195.751869 261.821219 
L 196.855846 265.312928 
L 197.998387 268.196548 
L 199.190447 270.622545 
L 200.464718 272.72627 
L 201.832944 274.563327 
L 203.107215 275.931682 
L 203.195298 275.759946 
L 203.283381 274.144073 
L 203.371465 264.918911 
L 203.547631 189.229331 
L 203.811881 119.101056 
L 204.035025 107.485051 
L 204.252297 104.914812 
L 204.475441 104.330045 
L 204.692713 104.255496 
L 205.180107 104.414169 
L 211.650043 107.304492 
L 211.826209 107.60816 
L 212.002376 108.454192 
L 212.22552 111.098296 
L 212.48977 117.336496 
L 212.971292 135.48958 
L 214.204457 183.284541 
L 214.997206 204.54886 
L 215.789955 219.915581 
L 216.629682 231.839562 
L 217.463537 240.691089 
L 218.344369 247.83024 
L 219.272179 253.637695 
L 220.241095 258.377317 
L 221.298094 262.445586 
L 222.396198 265.792984 
L 223.545677 268.597746 
L 224.778842 271.020597 
L 226.053113 273.050183 
L 227.462445 274.875545 
L 228.519444 275.945703 
L 228.607527 275.594227 
L 228.69561 272.911412 
L 228.783694 259.366839 
L 229.271087 114.347002 
L 229.488359 107.171808 
L 229.711504 105.459227 
L 229.928776 105.103579 
L 230.193025 105.081693 
L 231.032752 105.388097 
L 237.064519 107.886523 
L 237.240685 108.274316 
L 237.416852 109.318005 
L 237.634124 112.254836 
L 237.945351 120.44089 
L 238.561934 145.180983 
L 239.53085 182.021991 
L 240.323599 203.631699 
L 241.116348 219.243953 
L 241.950203 231.271688 
L 242.789929 240.314855 
L 243.670762 247.541344 
L 244.5927 253.380671 
L 245.561615 258.17535 
L 246.618614 262.286707 
L 247.722591 265.682597 
L 248.867165 268.498165 
L 250.100331 270.940439 
L 251.374602 272.984867 
L 252.742828 274.774186 
L 253.88791 275.956031 
L 253.975993 275.654004 
L 254.064076 273.270137 
L 254.15216 260.909324 
L 254.721765 110.845923 
L 254.944909 106.472139 
L 255.162181 105.490688 
L 255.385325 105.292346 
L 255.737658 105.33817 
L 257.716595 106.078191 
L 262.432682 107.950813 
L 262.608849 108.334503 
L 262.785015 109.374088 
L 263.002287 112.305447 
L 263.313514 120.483295 
L 263.930097 145.209024 
L 264.899013 182.037722 
L 265.691762 203.642642 
L 266.484511 219.251477 
L 267.27726 230.765779 
L 268.111115 239.876655 
L 268.991947 247.205531 
L 269.919757 253.153125 
L 270.888673 257.996774 
L 271.898694 261.98215 
L 273.002671 265.440688 
L 274.146875 268.3029 
L 275.338934 270.708858 
L 276.613205 272.79651 
L 277.981432 274.620641 
L 279.214597 275.955278 
L 279.30268 275.884901 
L 279.390763 274.923626 
L 279.478847 268.920496 
L 279.608035 226.27087 
L 279.872285 129.45451 
L 280.095429 110.613384 
L 280.312701 106.441362 
L 280.535845 105.442812 
L 280.753117 105.251994 
L 281.10545 105.292346 
L 282.779032 105.892844 
L 287.800597 107.829072 
L 287.976763 108.213445 
L 288.15293 109.258503 
L 288.370202 112.202172 
L 288.681429 120.405326 
L 289.298012 145.172775 
L 290.266927 182.026095 
L 291.059676 203.63717 
L 291.852426 219.248741 
L 292.645175 230.764343 
L 293.479029 239.875903 
L 294.359862 247.205189 
L 295.287672 253.152988 
L 296.256588 257.996774 
L 297.266609 261.982286 
L 298.370585 265.440825 
L 299.514912 268.303379 
L 300.706971 270.709268 
L 301.981242 272.796921 
L 303.349469 274.620983 
L 304.582634 275.954663 
L 304.670717 275.878746 
L 304.7588 274.880948 
L 304.846884 268.686042 
L 304.976072 225.372723 
L 305.240322 129.063298 
L 305.463466 110.438296 
L 305.680738 106.314149 
L 305.903882 105.326543 
L 306.121154 105.137776 
L 306.473487 105.176076 
L 308.323235 105.827869 
L 311.318182 106.917383 
L 311.318182 106.917383 
" clip-path="url(#pd95ec90dd4)" style="fill: none; stroke: #888888; stroke-width: 1.5; stroke-linecap: square"/>
   </g>
   <g id="patch_3">
    <path d="M 45 288.36 
L 45 38.88 
" style="fill: none; stroke: #000000; stroke-width: 0.8; stroke-linejoin: miter; stroke-linecap: square"/>
   </g>
   <g id="patch_4">
    <path d="M 45 288.36 
L 324 288.36 
" style="fill: none; stroke: #000000; stroke-width: 0.8; stroke-linejoin: miter; stroke-linecap: square"/>
   </g>
   <g id="legend_1">
    <g id="patch_5">
     <path d="M 52 283.36 
L 140.482812 283.36 
Q 142.482812 283.36 142.482812 281.36 
L 142.482812 241.805938 
Q 142.482812 239.805938 140.482812 239.805938 
L 52 239.805938 
Q 50 239.805938 50 241.805938 
L 50 281.36 
Q 50 283.36 52 283.36 
z
" style="fill: #ffffff; opacity: 0.8; stroke: #cccccc; stroke-linejoin: miter"/>
    </g>
    <g id="line2d_14">
     <path d="M 54 247.904375 
L 64 247.904375 
L 74 247.904375 
" style="fill: none; stroke: #000000; stroke-width: 2; stroke-linecap: square"/>
    </g>
    <g id="text_14">
     <!-- Always wet -->
     <g transform="translate(82 251.404375) scale(0.1 -0.1)">
      <defs>
       <path id="DejaVuSans-41" d="M 2188 4044 
L 1331 1722 
L 3047 1722 
L 2188 4044 
z
M 1831 4666 
L 2547 4666 
L 4325 0 
L 3669 0 
L 3244 1197 
L 1141 1197 
L 716 0 
L 50 0 
L 1831 4666 
z
" transform="scale(0.015625)"/>
       <path id="DejaVuSans-6c" d="M 603 4863 
L 1178 4863 
L 1178 0 
L 603 0 
L 603 4863 
z
" transform="scale(0.015625)"/>
       <path id="DejaVuSans-77" d="M 269 3500 
L 844 3500 
L 1563 769 
L 2278 3500 
L 2956 3500 
L 3675 769 
L 4391 3500 
L 4966 3500 
L 4050 0 
L 3372 0 
L 2619 2869 
L 1863 0 
L 1184 0 
L 269 3500 
z
" transform="scale(0.015625)"/>
       <path id="DejaVuSans-61" d="M 2194 1759 
Q 1497 1759 1228 1600 
Q 959 1441 959 1056 
Q 959 750 1161 570 
Q 1363 391 1709 391 
Q 2188 391 2477 730 
Q 2766 1069 2766 1631 
L 2766 1759 
L 2194 1759 
z
M 3341 1997 
L 3341 0 
L 2766 0 
L 2766 531 
Q 2569 213 2275 61 
Q 1981 -91 1556 -91 
Q 1019 -91 701 211 
Q 384 513 384 1019 
Q 384 1609 779 1909 
Q 1175 2209 1959 2209 
L 2766 2209 
L 2766 2266 
Q 2766 2663 2505 2880 
Q 2244 3097 1772 3097 
Q 1472 3097 1187 3025 
Q 903 2953 641 2809 
L 641 3341 
Q 956 3463 1253 3523 
Q 1550 3584 1831 3584 
Q 2591 3584 2966 3190 
Q 3341 2797 3341 1997 
z
" transform="scale(0.015625)"/>
       <path id="DejaVuSans-79" d="M 2059 -325 
Q 1816 -950 1584 -1140 
Q 1353 -1331 966 -1331 
L 506 -1331 
L 506 -850 
L 844 -850 
Q 1081 -850 1212 -737 
Q 1344 -625 1503 -206 
L 1606 56 
L 191 3500 
L 800 3500 
L 1894 763 
L 2988 3500 
L 3597 3500 
L 2059 -325 
z
" transform="scale(0.015625)"/>
       <path id="DejaVuSans-73" d="M 2834 3397 
L 2834 2853 
Q 2591 2978 2328 3040 
Q 2066 3103 1784 3103 
Q 1356 3103 1142 2972 
Q 928 2841 928 2578 
Q 928 2378 1081 2264 
Q 1234 2150 1697 2047 
L 1894 2003 
Q 2506 1872 2764 1633 
Q 3022 1394 3022 966 
Q 3022 478 2636 193 
Q 2250 -91 1575 -91 
Q 1294 -91 989 -36 
Q 684 19 347 128 
L 347 722 
Q 666 556 975 473 
Q 1284 391 1588 391 
Q 1994 391 2212 530 
Q 2431 669 2431 922 
Q 2431 1156 2273 1281 
Q 2116 1406 1581 1522 
L 1381 1569 
Q 847 1681 609 1914 
Q 372 2147 372 2553 
Q 372 3047 722 3315 
Q 1072 3584 1716 3584 
Q 2034 3584 2315 3537 
Q 2597 3491 2834 3397 
z
" transform="scale(0.015625)"/>
       <path id="DejaVuSans-20" transform="scale(0.015625)"/>
       <path id="DejaVuSans-65" d="M 3597 1894 
L 3597 1613 
L 953 1613 
Q 991 1019 1311 708 
Q 1631 397 2203 397 
Q 2534 397 2845 478 
Q 3156 559 3463 722 
L 3463 178 
Q 3153 47 2828 -22 
Q 2503 -91 2169 -91 
Q 1331 -91 842 396 
Q 353 884 353 1716 
Q 353 2575 817 3079 
Q 1281 3584 2069 3584 
Q 2775 3584 3186 3129 
Q 3597 2675 3597 1894 
z
M 3022 2063 
Q 3016 2534 2758 2815 
Q 2500 3097 2075 3097 
Q 1594 3097 1305 2825 
Q 1016 2553 972 2059 
L 3022 2063 
z
" transform="scale(0.015625)"/>
       <path id="DejaVuSans-74" d="M 1172 4494 
L 1172 3500 
L 2356 3500 
L 2356 3053 
L 1172 3053 
L 1172 1153 
Q 1172 725 1289 603 
Q 1406 481 1766 481 
L 2356 481 
L 2356 0 
L 1766 0 
Q 1100 0 847 248 
Q 594 497 594 1153 
L 594 3053 
L 172 3053 
L 172 3500 
L 594 3500 
L 594 4494 
L 1172 4494 
z
" transform="scale(0.015625)"/>
      </defs>
      <use xlink:href="#DejaVuSans-41"/>
      <use xlink:href="#DejaVuSans-6c" x="68.408203"/>
      <use xlink:href="#DejaVuSans-77" x="96.191406"/>
      <use xlink:href="#DejaVuSans-61" x="177.978516"/>
      <use xlink:href="#DejaVuSans-79" x="239.257812"/>
      <use xlink:href="#DejaVuSans-73" x="298.4375"/>
      <use xlink:href="#DejaVuSans-20" x="350.537109"/>
      <use xlink:href="#DejaVuSans-77" x="382.324219"/>
      <use xlink:href="#DejaVuSans-65" x="464.111328"/>
      <use xlink:href="#DejaVuSans-74" x="525.634766"/>
     </g>
    </g>
    <g id="line2d_15">
     <path d="M 54 269.22125 
L 64 269.22125 
L 74 269.22125 
" style="fill: none; stroke: #888888; stroke-width: 1.5; stroke-linecap: square"/>
    </g>
    <g id="text_15">
     <!-- Alternate  -->
     <g transform="translate(82 266.0825) scale(0.1 -0.1)">
      <defs>
       <path id="DejaVuSans-72" d="M 2631 2963 
Q 2534 3019 2420 3045 
Q 2306 3072 2169 3072 
Q 1681 3072 1420 2755 
Q 1159 2438 1159 1844 
L 1159 0 
L 581 0 
L 581 3500 
L 1159 3500 
L 1159 2956 
Q 1341 3275 1631 3429 
Q 1922 3584 2338 3584 
Q 2397 3584 2469 3576 
Q 2541 3569 2628 3553 
L 2631 2963 
z
" transform="scale(0.015625)"/>
       <path id="DejaVuSans-6e" d="M 3513 2113 
L 3513 0 
L 2938 0 
L 2938 2094 
Q 2938 2591 2744 2837 
Q 2550 3084 2163 3084 
Q 1697 3084 1428 2787 
Q 1159 2491 1159 1978 
L 1159 0 
L 581 0 
L 581 3500 
L 1159 3500 
L 1159 2956 
Q 1366 3272 1645 3428 
Q 1925 3584 2291 3584 
Q 2894 3584 3203 3211 
Q 3513 2838 3513 2113 
z
" transform="scale(0.015625)"/>
      </defs>
      <use xlink:href="#DejaVuSans-41"/>
      <use xlink:href="#DejaVuSans-6c" x="68.408203"/>
      <use xlink:href="#DejaVuSans-74" x="96.191406"/>
      <use xlink:href="#DejaVuSans-65" x="135.400391"/>
      <use xlink:href="#DejaVuSans-72" x="196.923828"/>
      <use xlink:href="#DejaVuSans-6e" x="236.287109"/>
      <use xlink:href="#DejaVuSans-61" x="299.666016"/>
      <use xlink:href="#DejaVuSans-74" x="360.945312"/>
      <use xlink:href="#DejaVuSans-65" x="400.154297"/>
      <use xlink:href="#DejaVuSans-20" x="461.677734"/>
     </g>
     <!-- dry/wet -->
     <g transform="translate(82 277.280313) scale(0.1 -0.1)">
      <defs>
       <path id="DejaVuSans-64" d="M 2906 2969 
L 2906 4863 
L 3481 4863 
L 3481 0 
L 2906 0 
L 2906 525 
Q 2725 213 2448 61 
Q 2172 -91 1784 -91 
Q 1150 -91 751 415 
Q 353 922 353 1747 
Q 353 2572 751 3078 
Q 1150 3584 1784 3584 
Q 2172 3584 2448 3432 
Q 2725 3281 2906 2969 
z
M 947 1747 
Q 947 1113 1208 752 
Q 1469 391 1925 391 
Q 2381 391 2643 752 
Q 2906 1113 2906 1747 
Q 2906 2381 2643 2742 
Q 2381 3103 1925 3103 
Q 1469 3103 1208 2742 
Q 947 2381 947 1747 
z
" transform="scale(0.015625)"/>
       <path id="DejaVuSans-2f" d="M 1625 4666 
L 2156 4666 
L 531 -594 
L 0 -594 
L 1625 4666 
z
" transform="scale(0.015625)"/>
      </defs>
      <use xlink:href="#DejaVuSans-64"/>
      <use xlink:href="#DejaVuSans-72" x="63.476562"/>
      <use xlink:href="#DejaVuSans-79" x="104.589844"/>
      <use xlink:href="#DejaVuSans-2f" x="163.769531"/>
      <use xlink:href="#DejaVuSans-77" x="197.460938"/>
      <use xlink:href="#DejaVuSans-65" x="279.248047"/>
      <use xlink:href="#DejaVuSans-74" x="340.771484"/>
     </g>
    </g>
   </g>
  </g>
 </g>
 <defs>
  <clipPath id="pd95ec90dd4">
   <rect x="45" y="38.88" width="279" height="249.48"/>
  </clipPath>
 </defs>
</svg>
