<?xml version="1.0" encoding="utf-8" standalone="no"?>
<!DOCTYPE svg PUBLIC "-//W3C//DTD SVG 1.1//EN"
  "http://www.w3.org/Graphics/SVG/1.1/DTD/svg11.dtd">
<svg xmlns:xlink="http://www.w3.org/1999/xlink" width="576pt" height="432pt" viewBox="0 0 576 432" xmlns="http://www.w3.org/2000/svg" version="1.1">
 <metadata>
  <rdf:RDF xmlns:dc="http://purl.org/dc/elements/1.1/" xmlns:cc="http://creativecommons.org/ns#" xmlns:rdf="http://www.w3.org/1999/02/22-rdf-syntax-ns#">
   <cc:Work>
    <dc:type rdf:resource="http://purl.org/dc/dcmitype/StillImage"/>
    <dc:date>2022-06-13T08:45:44.788032</dc:date>
    <dc:format>image/svg+xml</dc:format>
    <dc:creator>
     <cc:Agent>
      <dc:title>Matplotlib v3.5.2, https://matplotlib.org/</dc:title>
     </cc:Agent>
    </dc:creator>
   </cc:Work>
  </rdf:RDF>
 </metadata>
 <defs>
  <style type="text/css">*{stroke-linejoin: round; stroke-linecap: butt}</style>
 </defs>
 <g id="figure_1">
  <g id="patch_1">
   <path d="M 0 432 
L 576 432 
L 576 0 
L 0 0 
L 0 432 
z
" style="fill: none"/>
  </g>
  <g id="axes_1">
   <g id="patch_2">
    <path d="M 73.87375 385.2 
L 565.2 385.2 
L 565.2 10.8 
L 73.87375 10.8 
z
" style="fill: #fffafa"/>
   </g>
   <g id="matplotlib.axis_1">
    <g id="xtick_1">
     <g id="line2d_1">
      <defs>
       <path id="m5b6f5c082d" d="M 0 0 
L 0 3.5 
" style="stroke: #696969; stroke-width: 0.8"/>
      </defs>
      <g>
       <use xlink:href="#m5b6f5c082d" x="73.87375" y="385.2" style="fill: #696969; stroke: #696969; stroke-width: 0.8"/>
      </g>
     </g>
     <g id="text_1">
      <!-- 0 -->
      <g style="fill: #696969" transform="translate(70.6925 399.798437)scale(0.1 -0.1)">
       <defs>
        <path id="DejaVuSans-30" d="M 2034 4250 
Q 1547 4250 1301 3770 
Q 1056 3291 1056 2328 
Q 1056 1369 1301 889 
Q 1547 409 2034 409 
Q 2525 409 2770 889 
Q 3016 1369 3016 2328 
Q 3016 3291 2770 3770 
Q 2525 4250 2034 4250 
z
M 2034 4750 
Q 2819 4750 3233 4129 
Q 3647 3509 3647 2328 
Q 3647 1150 3233 529 
Q 2819 -91 2034 -91 
Q 1250 -91 836 529 
Q 422 1150 422 2328 
Q 422 3509 836 4129 
Q 1250 4750 2034 4750 
z
" transform="scale(0.015625)"/>
       </defs>
       <use xlink:href="#DejaVuSans-30"/>
      </g>
     </g>
    </g>
    <g id="xtick_2">
     <g id="line2d_2">
      <g>
       <use xlink:href="#m5b6f5c082d" x="148.317121" y="385.2" style="fill: #696969; stroke: #696969; stroke-width: 0.8"/>
      </g>
     </g>
     <g id="text_2">
      <!-- 2 -->
      <g style="fill: #696969" transform="translate(145.135871 399.798437)scale(0.1 -0.1)">
       <defs>
        <path id="DejaVuSans-32" d="M 1228 531 
L 3431 531 
L 3431 0 
L 469 0 
L 469 531 
Q 828 903 1448 1529 
Q 2069 2156 2228 2338 
Q 2531 2678 2651 2914 
Q 2772 3150 2772 3378 
Q 2772 3750 2511 3984 
Q 2250 4219 1831 4219 
Q 1534 4219 1204 4116 
Q 875 4013 500 3803 
L 500 4441 
Q 881 4594 1212 4672 
Q 1544 4750 1819 4750 
Q 2544 4750 2975 4387 
Q 3406 4025 3406 3419 
Q 3406 3131 3298 2873 
Q 3191 2616 2906 2266 
Q 2828 2175 2409 1742 
Q 1991 1309 1228 531 
z
" transform="scale(0.015625)"/>
       </defs>
       <use xlink:href="#DejaVuSans-32"/>
      </g>
     </g>
    </g>
    <g id="xtick_3">
     <g id="line2d_3">
      <g>
       <use xlink:href="#m5b6f5c082d" x="222.760492" y="385.2" style="fill: #696969; stroke: #696969; stroke-width: 0.8"/>
      </g>
     </g>
     <g id="text_3">
      <!-- 4 -->
      <g style="fill: #696969" transform="translate(219.579242 399.798437)scale(0.1 -0.1)">
       <defs>
        <path id="DejaVuSans-34" d="M 2419 4116 
L 825 1625 
L 2419 1625 
L 2419 4116 
z
M 2253 4666 
L 3047 4666 
L 3047 1625 
L 3713 1625 
L 3713 1100 
L 3047 1100 
L 3047 0 
L 2419 0 
L 2419 1100 
L 313 1100 
L 313 1709 
L 2253 4666 
z
" transform="scale(0.015625)"/>
       </defs>
       <use xlink:href="#DejaVuSans-34"/>
      </g>
     </g>
    </g>
    <g id="xtick_4">
     <g id="line2d_4">
      <g>
       <use xlink:href="#m5b6f5c082d" x="297.203864" y="385.2" style="fill: #696969; stroke: #696969; stroke-width: 0.8"/>
      </g>
     </g>
     <g id="text_4">
      <!-- 6 -->
      <g style="fill: #696969" transform="translate(294.022614 399.798437)scale(0.1 -0.1)">
       <defs>
        <path id="DejaVuSans-36" d="M 2113 2584 
Q 1688 2584 1439 2293 
Q 1191 2003 1191 1497 
Q 1191 994 1439 701 
Q 1688 409 2113 409 
Q 2538 409 2786 701 
Q 3034 994 3034 1497 
Q 3034 2003 2786 2293 
Q 2538 2584 2113 2584 
z
M 3366 4563 
L 3366 3988 
Q 3128 4100 2886 4159 
Q 2644 4219 2406 4219 
Q 1781 4219 1451 3797 
Q 1122 3375 1075 2522 
Q 1259 2794 1537 2939 
Q 1816 3084 2150 3084 
Q 2853 3084 3261 2657 
Q 3669 2231 3669 1497 
Q 3669 778 3244 343 
Q 2819 -91 2113 -91 
Q 1303 -91 875 529 
Q 447 1150 447 2328 
Q 447 3434 972 4092 
Q 1497 4750 2381 4750 
Q 2619 4750 2861 4703 
Q 3103 4656 3366 4563 
z
" transform="scale(0.015625)"/>
       </defs>
       <use xlink:href="#DejaVuSans-36"/>
      </g>
     </g>
    </g>
    <g id="xtick_5">
     <g id="line2d_5">
      <g>
       <use xlink:href="#m5b6f5c082d" x="371.647235" y="385.2" style="fill: #696969; stroke: #696969; stroke-width: 0.8"/>
      </g>
     </g>
     <g id="text_5">
      <!-- 8 -->
      <g style="fill: #696969" transform="translate(368.465985 399.798437)scale(0.1 -0.1)">
       <defs>
        <path id="DejaVuSans-38" d="M 2034 2216 
Q 1584 2216 1326 1975 
Q 1069 1734 1069 1313 
Q 1069 891 1326 650 
Q 1584 409 2034 409 
Q 2484 409 2743 651 
Q 3003 894 3003 1313 
Q 3003 1734 2745 1975 
Q 2488 2216 2034 2216 
z
M 1403 2484 
Q 997 2584 770 2862 
Q 544 3141 544 3541 
Q 544 4100 942 4425 
Q 1341 4750 2034 4750 
Q 2731 4750 3128 4425 
Q 3525 4100 3525 3541 
Q 3525 3141 3298 2862 
Q 3072 2584 2669 2484 
Q 3125 2378 3379 2068 
Q 3634 1759 3634 1313 
Q 3634 634 3220 271 
Q 2806 -91 2034 -91 
Q 1263 -91 848 271 
Q 434 634 434 1313 
Q 434 1759 690 2068 
Q 947 2378 1403 2484 
z
M 1172 3481 
Q 1172 3119 1398 2916 
Q 1625 2713 2034 2713 
Q 2441 2713 2670 2916 
Q 2900 3119 2900 3481 
Q 2900 3844 2670 4047 
Q 2441 4250 2034 4250 
Q 1625 4250 1398 4047 
Q 1172 3844 1172 3481 
z
" transform="scale(0.015625)"/>
       </defs>
       <use xlink:href="#DejaVuSans-38"/>
      </g>
     </g>
    </g>
    <g id="xtick_6">
     <g id="line2d_6">
      <g>
       <use xlink:href="#m5b6f5c082d" x="446.090606" y="385.2" style="fill: #696969; stroke: #696969; stroke-width: 0.8"/>
      </g>
     </g>
     <g id="text_6">
      <!-- 10 -->
      <g style="fill: #696969" transform="translate(439.728106 399.798437)scale(0.1 -0.1)">
       <defs>
        <path id="DejaVuSans-31" d="M 794 531 
L 1825 531 
L 1825 4091 
L 703 3866 
L 703 4441 
L 1819 4666 
L 2450 4666 
L 2450 531 
L 3481 531 
L 3481 0 
L 794 0 
L 794 531 
z
" transform="scale(0.015625)"/>
       </defs>
       <use xlink:href="#DejaVuSans-31"/>
       <use xlink:href="#DejaVuSans-30" x="63.623047"/>
      </g>
     </g>
    </g>
    <g id="xtick_7">
     <g id="line2d_7">
      <g>
       <use xlink:href="#m5b6f5c082d" x="520.533977" y="385.2" style="fill: #696969; stroke: #696969; stroke-width: 0.8"/>
      </g>
     </g>
     <g id="text_7">
      <!-- 12 -->
      <g style="fill: #696969" transform="translate(514.171477 399.798437)scale(0.1 -0.1)">
       <use xlink:href="#DejaVuSans-31"/>
       <use xlink:href="#DejaVuSans-32" x="63.623047"/>
      </g>
     </g>
    </g>
    <g id="text_8">
     <!-- Time [d] -->
     <g transform="translate(290.279063 417.515937)scale(0.14 -0.14)">
      <defs>
       <path id="DejaVuSans-ExtraLight-54" d="M 141 4666 
L 3769 4666 
L 3769 4409 
L 2113 4409 
L 2113 0 
L 1797 0 
L 1797 4409 
L 141 4409 
L 141 4666 
z
" transform="scale(0.015625)"/>
       <path id="DejaVuSans-ExtraLight-69" d="M 719 3500 
L 1006 3500 
L 1006 0 
L 719 0 
L 719 3500 
z
M 719 4863 
L 1006 4863 
L 1006 4469 
L 719 4469 
L 719 4863 
z
" transform="scale(0.015625)"/>
       <path id="DejaVuSans-ExtraLight-6d" d="M 3244 2738 
Q 3406 3159 3756 3375 
Q 4088 3584 4544 3584 
Q 5000 3584 5275 3263 
Q 5553 2944 5553 2113 
L 5553 0 
L 5269 0 
L 5269 2094 
Q 5269 2819 5069 3075 
Q 4869 3331 4538 3331 
Q 4056 3331 3688 3034 
Q 3284 2713 3284 1978 
L 3284 0 
L 2997 0 
L 2997 2094 
Q 2997 2794 2803 3062 
Q 2609 3331 2266 3331 
Q 1784 3331 1416 3031 
Q 1013 2709 1013 1978 
L 1013 0 
L 725 0 
L 725 3500 
L 1013 3500 
L 1013 2844 
Q 1166 3188 1488 3388 
Q 1813 3584 2284 3584 
Q 2591 3584 2875 3378 
Q 3094 3219 3244 2738 
z
" transform="scale(0.015625)"/>
       <path id="DejaVuSans-ExtraLight-65" d="M 3453 1894 
L 3453 1713 
L 797 1713 
Q 797 869 1125 531 
Q 1488 156 2203 156 
Q 2391 156 2700 238 
Q 3013 319 3319 481 
L 3319 178 
Q 3009 47 2684 -22 
Q 2359 -91 2169 -91 
Q 1359 -91 950 347 
Q 506 813 506 1713 
Q 506 2647 913 3106 
Q 1328 3584 2069 3584 
Q 2756 3584 3106 3131 
Q 3453 2656 3453 1894 
z
M 3163 1956 
Q 3163 2694 2831 3031 
Q 2553 3331 2075 3331 
Q 1553 3331 1200 3019 
Q 875 2728 809 1956 
L 3163 1956 
z
" transform="scale(0.015625)"/>
       <path id="DejaVuSans-ExtraLight-20" transform="scale(0.015625)"/>
       <path id="DejaVuSans-ExtraLight-5b" d="M 725 4863 
L 1791 4863 
L 1791 4538 
L 1038 4538 
L 1038 -581 
L 1791 -581 
L 1791 -844 
L 725 -844 
L 725 4863 
z
" transform="scale(0.015625)"/>
       <path id="DejaVuSans-ExtraLight-64" d="M 3050 2700 
L 3050 4863 
L 3331 4863 
L 3331 0 
L 3050 0 
L 3050 794 
Q 2853 338 2622 169 
Q 2269 -91 1956 -91 
Q 1334 -91 921 415 
Q 509 922 509 1747 
Q 509 2572 921 3078 
Q 1334 3584 1956 3584 
Q 2269 3584 2622 3325 
Q 2853 3156 3050 2700 
z
M 1175 2966 
Q 813 2600 813 1747 
Q 813 894 1175 528 
Q 1534 163 1934 163 
Q 2325 163 2688 528 
Q 3047 894 3047 1747 
Q 3047 2600 2688 2966 
Q 2325 3331 1934 3331 
Q 1534 3331 1175 2966 
z
" transform="scale(0.015625)"/>
       <path id="DejaVuSans-ExtraLight-5d" d="M 1791 4863 
L 1791 -844 
L 725 -844 
L 725 -581 
L 1478 -581 
L 1478 4538 
L 725 4538 
L 725 4863 
L 1791 4863 
z
" transform="scale(0.015625)"/>
      </defs>
      <use xlink:href="#DejaVuSans-ExtraLight-54"/>
      <use xlink:href="#DejaVuSans-ExtraLight-69" x="57.958984"/>
      <use xlink:href="#DejaVuSans-ExtraLight-6d" x="85.742188"/>
      <use xlink:href="#DejaVuSans-ExtraLight-65" x="183.154297"/>
      <use xlink:href="#DejaVuSans-ExtraLight-20" x="244.677734"/>
      <use xlink:href="#DejaVuSans-ExtraLight-5b" x="276.464844"/>
      <use xlink:href="#DejaVuSans-ExtraLight-64" x="315.478516"/>
      <use xlink:href="#DejaVuSans-ExtraLight-5d" x="378.955078"/>
     </g>
    </g>
   </g>
   <g id="matplotlib.axis_2">
    <g id="ytick_1">
     <g id="line2d_8">
      <defs>
       <path id="mf3e9db4e3c" d="M 0 0 
L -3.5 0 
" style="stroke: #696969; stroke-width: 0.8"/>
      </defs>
      <g>
       <use xlink:href="#mf3e9db4e3c" x="73.87375" y="333.413745" style="fill: #696969; stroke: #696969; stroke-width: 0.8"/>
      </g>
     </g>
     <g id="text_9">
      <!-- $\mathdefault{-10^{-8}}$ -->
      <g style="fill: #696969" transform="translate(35.07375 337.212963)scale(0.1 -0.1)">
       <defs>
        <path id="DejaVuSans-2212" d="M 678 2272 
L 4684 2272 
L 4684 1741 
L 678 1741 
L 678 2272 
z
" transform="scale(0.015625)"/>
       </defs>
       <use xlink:href="#DejaVuSans-2212" transform="translate(0 0.765625)"/>
       <use xlink:href="#DejaVuSans-31" transform="translate(83.789062 0.765625)"/>
       <use xlink:href="#DejaVuSans-30" transform="translate(147.412109 0.765625)"/>
       <use xlink:href="#DejaVuSans-2212" transform="translate(211.992188 39.046875)scale(0.7)"/>
       <use xlink:href="#DejaVuSans-38" transform="translate(270.644531 39.046875)scale(0.7)"/>
      </g>
     </g>
    </g>
    <g id="ytick_2">
     <g id="line2d_9">
      <g>
       <use xlink:href="#mf3e9db4e3c" x="73.87375" y="269.270391" style="fill: #696969; stroke: #696969; stroke-width: 0.8"/>
      </g>
     </g>
     <g id="text_10">
      <!-- $\mathdefault{-10^{-9}}$ -->
      <g style="fill: #696969" transform="translate(35.07375 273.06961)scale(0.1 -0.1)">
       <defs>
        <path id="DejaVuSans-39" d="M 703 97 
L 703 672 
Q 941 559 1184 500 
Q 1428 441 1663 441 
Q 2288 441 2617 861 
Q 2947 1281 2994 2138 
Q 2813 1869 2534 1725 
Q 2256 1581 1919 1581 
Q 1219 1581 811 2004 
Q 403 2428 403 3163 
Q 403 3881 828 4315 
Q 1253 4750 1959 4750 
Q 2769 4750 3195 4129 
Q 3622 3509 3622 2328 
Q 3622 1225 3098 567 
Q 2575 -91 1691 -91 
Q 1453 -91 1209 -44 
Q 966 3 703 97 
z
M 1959 2075 
Q 2384 2075 2632 2365 
Q 2881 2656 2881 3163 
Q 2881 3666 2632 3958 
Q 2384 4250 1959 4250 
Q 1534 4250 1286 3958 
Q 1038 3666 1038 3163 
Q 1038 2656 1286 2365 
Q 1534 2075 1959 2075 
z
" transform="scale(0.015625)"/>
       </defs>
       <use xlink:href="#DejaVuSans-2212" transform="translate(0 0.765625)"/>
       <use xlink:href="#DejaVuSans-31" transform="translate(83.789062 0.765625)"/>
       <use xlink:href="#DejaVuSans-30" transform="translate(147.412109 0.765625)"/>
       <use xlink:href="#DejaVuSans-2212" transform="translate(211.992188 39.046875)scale(0.7)"/>
       <use xlink:href="#DejaVuSans-39" transform="translate(270.644531 39.046875)scale(0.7)"/>
      </g>
     </g>
    </g>
    <g id="ytick_3">
     <g id="line2d_10">
      <g>
       <use xlink:href="#mf3e9db4e3c" x="73.87375" y="197.999998" style="fill: #696969; stroke: #696969; stroke-width: 0.8"/>
      </g>
     </g>
     <g id="text_11">
      <!-- $\mathdefault{0}$ -->
      <g style="fill: #696969" transform="translate(60.47375 201.799216)scale(0.1 -0.1)">
       <use xlink:href="#DejaVuSans-30" transform="translate(0 0.78125)"/>
      </g>
     </g>
    </g>
    <g id="ytick_4">
     <g id="line2d_11">
      <g>
       <use xlink:href="#mf3e9db4e3c" x="73.87375" y="126.729604" style="fill: #696969; stroke: #696969; stroke-width: 0.8"/>
      </g>
     </g>
     <g id="text_12">
      <!-- $\mathdefault{10^{-9}}$ -->
      <g style="fill: #696969" transform="translate(43.37375 130.528823)scale(0.1 -0.1)">
       <use xlink:href="#DejaVuSans-31" transform="translate(0 0.765625)"/>
       <use xlink:href="#DejaVuSans-30" transform="translate(63.623047 0.765625)"/>
       <use xlink:href="#DejaVuSans-2212" transform="translate(128.203125 39.046875)scale(0.7)"/>
       <use xlink:href="#DejaVuSans-39" transform="translate(186.855469 39.046875)scale(0.7)"/>
      </g>
     </g>
    </g>
    <g id="ytick_5">
     <g id="line2d_12">
      <g>
       <use xlink:href="#mf3e9db4e3c" x="73.87375" y="62.586251" style="fill: #696969; stroke: #696969; stroke-width: 0.8"/>
      </g>
     </g>
     <g id="text_13">
      <!-- $\mathdefault{10^{-8}}$ -->
      <g style="fill: #696969" transform="translate(43.37375 66.385469)scale(0.1 -0.1)">
       <use xlink:href="#DejaVuSans-31" transform="translate(0 0.765625)"/>
       <use xlink:href="#DejaVuSans-30" transform="translate(63.623047 0.765625)"/>
       <use xlink:href="#DejaVuSans-2212" transform="translate(128.203125 39.046875)scale(0.7)"/>
       <use xlink:href="#DejaVuSans-38" transform="translate(186.855469 39.046875)scale(0.7)"/>
      </g>
     </g>
    </g>
    <g id="text_14">
     <!-- Water flux    $\phi$ [m³/s] -->
     <g transform="translate(27.13375 271.22)rotate(-90)scale(0.14 -0.14)">
      <defs>
       <path id="DejaVuSans-ExtraLight-57" d="M 444 4666 
L 766 4666 
L 1831 369 
L 2894 4666 
L 3288 4666 
L 4344 394 
L 5406 4666 
L 5728 4666 
L 4569 0 
L 4122 0 
L 3091 4156 
L 2063 0 
L 1600 0 
L 444 4666 
z
" transform="scale(0.015625)"/>
       <path id="DejaVuSans-ExtraLight-61" d="M 2125 1975 
Q 1431 1975 1125 1728 
Q 819 1481 819 1006 
Q 819 544 1072 350 
Q 1325 156 1672 156 
Q 2328 156 2616 713 
Q 2906 1269 2906 1759 
L 2906 1975 
L 2125 1975 
z
M 3197 1997 
L 3197 0 
L 2913 0 
L 2913 950 
Q 2672 253 2275 63 
Q 1959 -91 1647 -91 
Q 1125 -91 825 188 
Q 525 469 525 1012 
Q 525 1556 916 1881 
Q 1306 2209 2194 2209 
L 2906 2209 
L 2906 2266 
Q 2906 2731 2641 3031 
Q 2378 3331 1772 3331 
Q 1472 3331 1159 3219 
Q 959 3147 641 2928 
L 641 3238 
Q 919 3409 1159 3481 
Q 1509 3584 1831 3584 
Q 2450 3584 2850 3209 
Q 3197 2888 3197 1997 
z
" transform="scale(0.015625)"/>
       <path id="DejaVuSans-ExtraLight-74" d="M 1028 4494 
L 1028 3500 
L 2213 3500 
L 2213 3256 
L 1028 3256 
L 1028 1153 
Q 1028 753 1131 594 
Q 1344 244 1750 244 
L 2213 244 
L 2213 0 
L 1766 0 
Q 1338 0 1038 250 
Q 738 500 738 1153 
L 738 3256 
L 319 3256 
L 319 3500 
L 738 3500 
L 738 4494 
L 1028 4494 
z
" transform="scale(0.015625)"/>
       <path id="DejaVuSans-ExtraLight-72" d="M 2625 3253 
Q 2556 3288 2438 3313 
Q 2331 3331 2169 3331 
Q 1638 3331 1288 2938 
Q 1013 2619 1013 1844 
L 1013 0 
L 731 0 
L 731 3500 
L 1013 3500 
L 1013 2844 
Q 1153 3125 1406 3319 
Q 1756 3584 2231 3584 
Q 2353 3584 2444 3575 
Q 2538 3575 2625 3553 
L 2625 3253 
z
" transform="scale(0.015625)"/>
       <path id="DejaVuSans-ExtraLight-66" d="M 2231 4863 
L 2231 4619 
L 1825 4619 
Q 1506 4619 1338 4453 
Q 1131 4250 1131 3809 
L 1131 3500 
L 2075 3500 
L 2075 3256 
L 1131 3256 
L 1131 0 
L 841 0 
L 841 3256 
L 291 3256 
L 291 3500 
L 841 3500 
L 841 3744 
Q 841 4328 1106 4594 
Q 1369 4863 1831 4863 
L 2231 4863 
z
" transform="scale(0.015625)"/>
       <path id="DejaVuSans-ExtraLight-6c" d="M 725 4863 
L 1013 4863 
L 1013 0 
L 725 0 
L 725 4863 
z
" transform="scale(0.015625)"/>
       <path id="DejaVuSans-ExtraLight-75" d="M 688 1388 
L 688 3500 
L 975 3500 
L 975 1406 
Q 975 725 1194 447 
Q 1413 169 1838 169 
Q 2334 169 2688 469 
Q 3044 772 3044 1522 
L 3044 3500 
L 3331 3500 
L 3331 0 
L 3044 0 
L 3044 656 
Q 2891 338 2641 169 
Q 2272 -84 1825 -84 
Q 1306 -84 997 269 
Q 688 619 688 1388 
z
" transform="scale(0.015625)"/>
       <path id="DejaVuSans-ExtraLight-78" d="M 3338 3500 
L 2072 1819 
L 3431 0 
L 3088 0 
L 1900 1594 
L 700 0 
L 356 0 
L 1725 1831 
L 481 3500 
L 822 3500 
L 1900 2047 
L 2994 3500 
L 3338 3500 
z
" transform="scale(0.015625)"/>
       <path id="DejaVuSans-Oblique-3d5" d="M 2991 4863 
L 2738 3572 
Q 3363 3572 3684 3094 
Q 4016 2606 3850 1747 
Q 3681 888 3159 400 
Q 2653 -78 2028 -78 
L 1784 -1331 
L 1213 -1331 
L 1456 -78 
Q 834 -78 509 400 
Q 178 888 347 1747 
Q 513 2606 1034 3094 
Q 1544 3572 2166 3572 
L 2419 4863 
L 2991 4863 
z
M 2128 434 
Q 2481 434 2784 756 
Q 3116 1116 3244 1747 
Q 3369 2372 3169 2738 
Q 2991 3059 2638 3059 
L 2128 434 
z
M 1556 434 
L 2066 3059 
Q 1716 3059 1413 2738 
Q 1072 2372 953 1747 
Q 834 1116 1028 756 
Q 1203 434 1556 434 
z
" transform="scale(0.015625)"/>
       <path id="DejaVuSans-ExtraLight-b3" d="M 1713 3578 
Q 1919 3528 2047 3366 
Q 2175 3197 2175 2963 
Q 2175 2606 1909 2403 
Q 1663 2213 1094 2213 
Q 916 2213 719 2244 
Q 525 2272 306 2331 
L 306 2634 
Q 469 2541 656 2497 
Q 841 2450 1050 2450 
Q 1450 2450 1672 2591 
Q 1891 2725 1891 2966 
Q 1891 3197 1688 3319 
Q 1484 3438 1088 3438 
L 813 3438 
L 813 3678 
L 1106 3678 
Q 1456 3678 1634 3781 
Q 1816 3884 1816 4081 
Q 1816 4281 1631 4388 
Q 1444 4494 1091 4494 
Q 969 4494 809 4450 
Q 650 4406 397 4297 
L 397 4591 
Q 625 4669 825 4709 
Q 1025 4750 1197 4750 
Q 1653 4750 1878 4581 
Q 2106 4409 2106 4116 
Q 2106 3922 2003 3772 
Q 1906 3631 1713 3578 
z
" transform="scale(0.015625)"/>
       <path id="DejaVuSans-ExtraLight-2f" d="M 1725 4666 
L 2056 4666 
L 431 -594 
L 100 -594 
L 1725 4666 
z
" transform="scale(0.015625)"/>
       <path id="DejaVuSans-ExtraLight-73" d="M 2706 3397 
L 2706 3081 
Q 2403 3250 2328 3269 
Q 2109 3322 1784 3331 
Q 1291 3331 1009 3134 
Q 794 2972 794 2578 
Q 794 2313 997 2163 
Q 1213 2000 1613 1913 
L 1809 1869 
Q 2306 1759 2563 1559 
Q 2859 1331 2875 966 
Q 2875 469 2581 188 
Q 2269 -91 1575 -91 
Q 1188 -91 988 -38 
Q 747 31 481 128 
L 481 488 
Q 863 269 975 238 
Q 1284 156 1588 156 
Q 2094 156 2334 366 
Q 2578 578 2578 922 
Q 2578 1209 2416 1341 
Q 2181 1528 1669 1647 
L 1469 1694 
Q 1028 1797 797 1984 
Q 506 2219 506 2553 
Q 506 3103 856 3343 
Q 1206 3584 1716 3584 
Q 2150 3584 2316 3538 
Q 2516 3481 2706 3397 
z
" transform="scale(0.015625)"/>
      </defs>
      <use xlink:href="#DejaVuSans-ExtraLight-57" transform="translate(0 0.015625)"/>
      <use xlink:href="#DejaVuSans-ExtraLight-61" transform="translate(98.876953 0.015625)"/>
      <use xlink:href="#DejaVuSans-ExtraLight-74" transform="translate(160.15625 0.015625)"/>
      <use xlink:href="#DejaVuSans-ExtraLight-65" transform="translate(199.365234 0.015625)"/>
      <use xlink:href="#DejaVuSans-ExtraLight-72" transform="translate(260.888672 0.015625)"/>
      <use xlink:href="#DejaVuSans-ExtraLight-20" transform="translate(302.001953 0.015625)"/>
      <use xlink:href="#DejaVuSans-ExtraLight-66" transform="translate(333.789062 0.015625)"/>
      <use xlink:href="#DejaVuSans-ExtraLight-6c" transform="translate(368.994141 0.015625)"/>
      <use xlink:href="#DejaVuSans-ExtraLight-75" transform="translate(396.777344 0.015625)"/>
      <use xlink:href="#DejaVuSans-ExtraLight-78" transform="translate(460.15625 0.015625)"/>
      <use xlink:href="#DejaVuSans-ExtraLight-20" transform="translate(519.335938 0.015625)"/>
      <use xlink:href="#DejaVuSans-ExtraLight-20" transform="translate(551.123047 0.015625)"/>
      <use xlink:href="#DejaVuSans-ExtraLight-20" transform="translate(582.910156 0.015625)"/>
      <use xlink:href="#DejaVuSans-ExtraLight-20" transform="translate(614.697266 0.015625)"/>
      <use xlink:href="#DejaVuSans-Oblique-3d5" transform="translate(646.484375 0.015625)"/>
      <use xlink:href="#DejaVuSans-ExtraLight-20" transform="translate(712.451172 0.015625)"/>
      <use xlink:href="#DejaVuSans-ExtraLight-5b" transform="translate(744.238281 0.015625)"/>
      <use xlink:href="#DejaVuSans-ExtraLight-6d" transform="translate(783.251953 0.015625)"/>
      <use xlink:href="#DejaVuSans-ExtraLight-b3" transform="translate(880.664062 0.015625)"/>
      <use xlink:href="#DejaVuSans-ExtraLight-2f" transform="translate(920.751953 0.015625)"/>
      <use xlink:href="#DejaVuSans-ExtraLight-73" transform="translate(954.443359 0.015625)"/>
      <use xlink:href="#DejaVuSans-ExtraLight-5d" transform="translate(1006.542969 0.015625)"/>
     </g>
    </g>
   </g>
   <g id="line2d_13">
    <path d="M 75.424654 58.900296 
L 131.257182 59.041379 
L 159.173446 59.308866 
L 177.784289 59.689201 
L 193.293325 60.222143 
L 205.700553 60.847031 
L 221.209589 61.881521 
L 232.065914 62.765712 
L 242.922239 63.860556 
L 253.778564 65.182057 
L 264.634889 66.742211 
L 283.245732 69.677816 
L 291.000249 71.119718 
L 300.305671 73.092649 
L 314.263803 76.349663 
L 322.018321 78.316595 
L 332.874646 81.323217 
L 339.07826 83.028892 
L 356.138199 87.573149 
L 376.299946 92.396402 
L 384.054463 94.073622 
L 393.359885 95.902565 
L 405.767113 98.146994 
L 418.174342 100.167027 
L 427.479763 101.488818 
L 439.886992 102.879192 
L 453.845124 104.206774 
L 467.803256 105.299377 
L 481.761388 106.151747 
L 495.71952 106.791895 
L 512.779459 107.308893 
L 531.390302 107.644411 
L 550.001145 107.7717 
L 576.366506 107.676834 
L 577 107.672151 
L 577 107.672151 
" clip-path="url(#p52f975d7d5)" style="fill: none; stroke-dasharray: 5.55,2.4; stroke-dashoffset: 0; stroke: #6a5acd; stroke-width: 1.5"/>
   </g>
   <g id="line2d_14">
    <path d="M 75.424654 337.098906 
L 131.257182 336.958075 
L 159.173446 336.691115 
L 177.784289 336.310739 
L 193.293325 335.777856 
L 207.251457 335.060058 
L 222.760492 334.004161 
L 233.616817 333.091461 
L 244.473142 331.964441 
L 255.329467 330.610292 
L 267.736696 328.793602 
L 281.694828 326.588582 
L 291.000249 324.880468 
L 300.305671 322.907576 
L 314.263803 319.650232 
L 322.018321 317.683279 
L 332.874646 314.676679 
L 339.07826 312.970978 
L 356.138199 308.426735 
L 376.299946 303.603498 
L 384.054463 301.926293 
L 393.359885 300.097336 
L 405.767113 297.852936 
L 418.174342 295.832899 
L 427.479763 294.511231 
L 439.886992 293.120851 
L 453.845124 291.793323 
L 467.803256 290.700742 
L 481.761388 289.848348 
L 495.71952 289.208314 
L 512.779459 288.69118 
L 531.390302 288.355648 
L 550.001145 288.228325 
L 576.366506 288.323118 
L 577 288.327804 
L 577 288.327804 
" clip-path="url(#p52f975d7d5)" style="fill: none; stroke-dasharray: 5.55,2.4; stroke-dashoffset: 0; stroke: #ff0000; stroke-width: 1.5"/>
   </g>
   <g id="line2d_15">
    <path d="M 75.424654 197.976835 
L 118.849953 197.987732 
L 135.909893 197.982893 
L 146.766218 197.989535 
L 287.898442 198.003297 
L 577 197.999792 
L 577 197.999792 
" clip-path="url(#p52f975d7d5)" style="fill: none; stroke-dasharray: 5.55,2.4; stroke-dashoffset: 0; stroke: #800080; stroke-width: 1.5"/>
   </g>
   <g id="line2d_16">
    <path d="M 75.424657 44.575989 
L 76.975565 28.051588 
L 78.526451 32.561254 
L 80.077359 24.679918 
L 81.628266 60.327374 
L 83.179174 47.805898 
L 84.730081 13.928998 
L 86.280988 36.853372 
L 87.831875 81.282922 
L 89.382782 40.132619 
L 90.93369 44.77656 
L 92.484597 28.414871 
L 94.035504 15.54246 
L 95.586391 31.6636 
L 97.137298 32.811413 
L 98.688206 20.474824 
L 100.239113 56.68264 
L 101.79002 53.887788 
L 103.340928 47.735411 
L 104.891814 45.084295 
L 106.442721 45.877163 
L 107.993629 46.81041 
L 109.544536 37.972049 
L 111.095444 45.322916 
L 112.64633 48.794801 
L 114.197238 17.264391 
L 115.748145 24.691099 
L 117.299052 43.93925 
L 118.84996 48.877645 
L 120.400867 33.784789 
L 121.951754 31.678598 
L 123.502661 37.164245 
L 125.053569 45.700894 
L 126.604476 31.060546 
L 128.155383 25.287659 
L 129.70627 41.3863 
L 131.257177 17.388469 
L 132.808085 25.30663 
L 134.358992 47.297914 
L 135.9099 50.886229 
L 137.460786 57.482999 
L 139.011693 30.684684 
L 140.562601 26.698803 
L 142.113508 51.258228 
L 143.664415 13.566602 
L 145.215323 45.663039 
L 146.766209 58.769096 
L 148.317117 57.767296 
L 149.868024 44.126316 
L 151.418931 45.961801 
L 152.969839 32.375865 
L 154.520726 47.465267 
L 156.071633 27.682028 
L 157.62254 28.577896 
L 159.173447 49.930321 
L 160.724355 34.387239 
L 162.275262 37.827326 
L 163.826149 59.440654 
L 165.377056 40.943888 
L 166.927964 54.161532 
L 168.478871 23.523785 
L 170.029778 27.819005 
L 171.580665 40.152655 
L 173.131572 19.01519 
L 174.68248 29.422381 
L 176.233387 53.726862 
L 177.784295 40.410356 
L 179.335202 28.822103 
L 180.886088 56.390498 
L 182.436996 13.455066 
L 183.987903 49.349072 
L 185.538811 41.687697 
L 187.089718 51.435713 
L 188.640604 46.868654 
L 190.191512 30.103132 
L 191.742419 26.27455 
L 193.293327 80.446804 
L 194.844234 45.320485 
L 196.395141 47.991663 
L 197.946028 29.272429 
L 199.496935 29.665111 
L 201.047842 49.166016 
L 202.59875 40.721386 
L 204.149657 15.835032 
L 205.700544 54.699636 
L 207.251451 26.375731 
L 208.802359 34.988958 
L 210.353266 46.846829 
L 211.904173 30.936751 
L 213.455081 57.860853 
L 215.005967 34.119621 
L 216.556875 31.007117 
L 218.107782 61.80777 
L 219.65869 24.964165 
L 221.209597 38.454537 
L 222.760483 57.566907 
L 224.311391 53.282243 
L 225.862298 50.375316 
L 227.413206 46.468114 
L 228.964113 66.274192 
L 230.515021 48.540895 
L 232.065907 36.864895 
L 233.616814 28.034184 
L 235.167722 48.371515 
L 236.718629 46.313525 
L 238.269537 60.395301 
L 239.820423 54.376398 
L 241.37133 35.645827 
L 242.922238 61.665188 
L 244.473145 32.073017 
L 246.024052 40.409441 
L 247.574939 42.308788 
L 249.125847 21.984689 
L 250.676754 53.593436 
L 252.227661 58.158268 
L 253.778569 70.772749 
L 255.329476 61.134967 
L 256.880363 64.249266 
L 258.43127 52.005671 
L 259.982177 50.682923 
L 261.533085 32.503001 
L 263.083992 57.311485 
L 264.634878 65.54815 
L 266.185786 40.760835 
L 267.736693 41.922025 
L 269.287601 64.481683 
L 270.838508 55.073579 
L 272.389416 75.307224 
L 273.940302 31.971893 
L 275.491209 43.70207 
L 277.042117 45.717734 
L 278.593024 30.552781 
L 280.143932 49.562783 
L 281.694818 63.572172 
L 283.245726 58.925042 
L 284.796633 61.618527 
L 286.34754 60.800496 
L 287.898448 47.547987 
L 289.449355 59.548862 
L 291.000242 55.969621 
L 292.551149 60.042278 
L 294.102057 57.375529 
L 295.652964 31.497671 
L 297.203871 48.513617 
L 298.754758 72.114376 
L 300.305665 70.452691 
L 301.856573 67.186825 
L 303.40748 41.401919 
L 304.958387 47.10955 
L 306.509295 79.36685 
L 308.060202 59.594606 
L 309.611088 58.554025 
L 311.161996 93.785769 
L 312.712903 57.337178 
L 314.263811 61.536651 
L 315.814718 72.04672 
L 317.365626 65.411505 
L 318.916512 87.824557 
L 320.467419 52.881756 
L 322.018327 61.999809 
L 323.569234 83.711776 
L 325.120141 61.896383 
L 326.671028 76.868528 
L 328.221935 82.686326 
L 329.772843 94.57917 
L 331.32375 76.390594 
L 332.874657 77.300677 
L 334.425565 76.797024 
L 335.976452 90.028685 
L 337.527359 81.657989 
L 339.078266 54.184432 
L 340.629173 76.982527 
L 342.180081 64.944993 
L 343.730967 76.353012 
L 345.281875 100.023516 
L 346.832782 73.640411 
L 348.38369 99.711147 
L 349.934597 75.570645 
L 351.485504 81.602887 
L 353.036391 86.168908 
L 354.587298 84.002753 
L 356.138206 78.688022 
L 357.689113 96.667174 
L 359.240021 113.338836 
L 360.790907 99.116289 
L 362.341814 88.12662 
L 363.892722 78.909691 
L 365.443629 90.71092 
L 366.994537 80.227308 
L 368.545423 94.532566 
L 370.09633 82.804223 
L 371.647238 78.175696 
L 373.198145 90.559973 
L 374.749053 116.426362 
L 376.29996 96.063314 
L 377.850847 97.741528 
L 379.401754 72.368345 
L 380.952661 83.721623 
L 382.503568 99.933408 
L 384.054476 75.248831 
L 385.605363 74.599097 
L 387.15627 108.567882 
L 388.707177 80.898022 
L 391.808992 102.98674 
L 393.359899 88.598523 
L 394.910786 108.317921 
L 396.461693 100.771868 
L 398.012601 102.809125 
L 399.563508 90.2656 
L 401.114416 80.134471 
L 402.665302 105.641808 
L 404.216209 113.340437 
L 405.767117 113.699981 
L 407.318024 108.067621 
L 408.868932 105.669589 
L 410.419839 104.855619 
L 411.970725 115.841713 
L 413.521633 100.693115 
L 415.07254 102.804752 
L 416.623448 109.424346 
L 418.174355 101.384274 
L 419.725242 113.575842 
L 421.276149 113.745031 
L 422.827056 95.086138 
L 424.377964 119.932465 
L 425.928871 80.237508 
L 427.479778 121.038273 
L 429.030665 109.725682 
L 430.581573 77.128729 
L 432.13248 93.613912 
L 433.683387 129.119609 
L 435.234294 114.737763 
L 436.785181 119.328856 
L 438.336088 95.851893 
L 439.886996 104.329087 
L 441.437903 122.214086 
L 442.988811 106.825787 
L 444.539718 107.905491 
L 446.090604 137.67647 
L 447.641512 103.980492 
L 449.192419 122.957096 
L 450.743327 160.870313 
L 452.294234 104.842784 
L 453.84512 130.817279 
L 455.396028 108.930302 
L 456.946935 121.97297 
L 458.497843 120.576891 
L 460.04875 112.09782 
L 461.599658 86.97734 
L 463.150544 117.534115 
L 464.701451 125.624252 
L 466.252359 101.787899 
L 467.803266 115.823537 
L 469.354174 110.025593 
L 470.90506 120.936908 
L 472.455968 145.258736 
L 474.006875 121.775109 
L 475.557782 121.914705 
L 477.108689 96.518291 
L 478.659576 112.838508 
L 480.210484 151.169026 
L 481.761391 117.873535 
L 483.312298 136.995815 
L 484.863206 94.226066 
L 486.414113 105.001247 
L 487.965 120.35851 
L 489.515907 104.048147 
L 491.066814 101.145993 
L 492.617722 149.669244 
L 494.168629 99.17637 
L 495.719537 131.938092 
L 497.270423 140.710637 
L 498.82133 115.046415 
L 500.372238 118.829893 
L 501.923145 110.930484 
L 503.474053 102.308224 
L 505.02496 118.894187 
L 506.575846 119.320432 
L 508.126754 100.154661 
L 509.677661 163.972422 
L 511.228569 139.462226 
L 512.779476 125.0447 
L 514.330363 122.10957 
L 515.88127 120.504018 
L 518.983084 115.429081 
L 520.533992 112.004549 
L 522.084899 111.082275 
L 523.635786 100.878758 
L 525.186693 114.730854 
L 526.737601 122.343623 
L 528.288508 105.510249 
L 529.839415 145.992113 
L 531.390302 108.817933 
L 532.941209 120.199801 
L 534.492117 129.172357 
L 536.043024 109.048177 
L 537.593932 126.341531 
L 539.144839 158.335487 
L 540.695725 138.535264 
L 542.246633 137.151861 
L 543.79754 102.601938 
L 545.348448 104.115655 
L 546.899355 111.861364 
L 548.450241 111.2154 
L 550.001149 97.320201 
L 551.552056 134.844934 
L 553.102964 111.638599 
L 554.653871 129.905598 
L 556.204758 121.183773 
L 557.755665 110.60076 
L 559.306572 155.511388 
L 560.85748 118.742644 
L 562.408387 120.969362 
L 563.959294 146.759176 
L 565.510181 109.952723 
L 565.510181 109.952723 
" clip-path="url(#p52f975d7d5)" style="fill: none; stroke: #6a5acd; stroke-opacity: 0.4; stroke-linecap: square"/>
   </g>
   <g id="line2d_17">
    <path d="M 75.424657 351.423849 
L 76.975565 367.948363 
L 78.526451 363.438768 
L 80.077359 371.320021 
L 81.628266 335.672651 
L 83.179174 348.194266 
L 84.730081 382.070997 
L 86.280988 359.14655 
L 87.831875 314.717064 
L 89.382782 355.867339 
L 90.93369 351.223413 
L 92.484597 367.585111 
L 94.035504 380.457505 
L 95.586391 364.336371 
L 97.137298 363.188569 
L 98.688206 375.525245 
L 100.239113 339.317349 
L 101.79002 342.112171 
L 103.340928 348.264614 
L 104.891814 350.915701 
L 106.442721 350.122855 
L 107.993629 349.189573 
L 109.544536 358.027867 
L 111.095444 350.677046 
L 112.64633 347.205246 
L 114.197238 378.735647 
L 115.748145 371.308852 
L 117.299052 352.060625 
L 118.84996 347.12237 
L 120.400867 362.215238 
L 121.951754 364.321464 
L 123.502661 358.83579 
L 125.053569 350.299034 
L 126.604476 364.939548 
L 128.155383 370.712385 
L 129.70627 354.613683 
L 131.257177 378.611554 
L 132.808085 370.693404 
L 134.358992 348.701815 
L 135.9099 345.11383 
L 137.460786 338.517049 
L 139.011693 365.315228 
L 140.562601 369.301193 
L 142.113508 344.74182 
L 143.664415 382.433371 
L 145.215323 350.336917 
L 146.766209 337.230927 
L 148.317117 338.232717 
L 149.868024 351.873726 
L 151.418931 350.038212 
L 152.969839 363.624141 
L 154.520726 348.534675 
L 156.071633 368.317944 
L 157.62254 367.422115 
L 159.173447 346.069636 
L 160.724355 361.612778 
L 162.275262 358.17264 
L 163.826149 336.559422 
L 165.377056 355.056076 
L 166.927964 341.838457 
L 168.478871 372.476241 
L 170.029778 368.180987 
L 171.580665 355.847281 
L 173.131572 376.984792 
L 174.68248 366.57758 
L 176.233387 342.273183 
L 177.784295 355.589618 
L 179.335202 367.177911 
L 180.886088 339.609508 
L 182.436996 382.544935 
L 183.987903 346.650898 
L 185.538811 354.312334 
L 187.089718 344.564228 
L 188.640604 349.131267 
L 190.191512 365.896714 
L 191.742419 369.725457 
L 193.293327 315.553224 
L 194.844234 350.679522 
L 196.395141 348.008296 
L 197.946028 366.727572 
L 199.496935 366.334864 
L 201.047842 346.833999 
L 202.59875 355.278657 
L 204.149657 380.164853 
L 205.700544 341.300394 
L 207.251451 369.624226 
L 208.802359 361.011021 
L 210.353266 349.153129 
L 211.904173 365.063247 
L 213.455081 338.139193 
L 215.005967 361.880402 
L 216.556875 364.992832 
L 218.107782 334.192228 
L 219.65869 371.035869 
L 221.209597 357.545423 
L 222.760483 338.433103 
L 224.311391 342.717779 
L 225.862298 345.624707 
L 227.413206 349.531578 
L 228.964113 329.725833 
L 230.515021 347.459085 
L 232.065907 359.135139 
L 233.616814 367.965612 
L 235.167722 347.628476 
L 236.718629 349.686457 
L 238.269537 335.604858 
L 239.820423 341.623771 
L 241.37133 360.354146 
L 242.922238 334.334843 
L 244.473145 363.926981 
L 246.024052 355.590591 
L 247.574939 353.691179 
L 249.125847 374.015461 
L 250.676754 342.406585 
L 252.227661 337.841691 
L 253.778569 325.227038 
L 255.329476 334.865054 
L 256.880363 331.750687 
L 258.43127 343.994266 
L 259.982177 345.317057 
L 261.533085 363.49697 
L 263.083992 338.688515 
L 264.634878 330.451851 
L 266.185786 355.239126 
L 267.736693 354.077952 
L 269.287601 331.518318 
L 270.838508 340.92637 
L 272.389416 320.692776 
L 273.940302 364.028124 
L 275.491209 352.297927 
L 277.042117 350.282296 
L 278.593024 365.447226 
L 280.143932 346.43719 
L 281.694818 332.42802 
L 283.245726 337.074953 
L 284.796633 334.381468 
L 286.34754 335.19951 
L 287.898448 348.451956 
L 289.449355 336.451143 
L 291.000242 340.030367 
L 292.551149 335.957721 
L 294.102057 338.624474 
L 295.652964 364.502316 
L 297.203871 347.48642 
L 298.754758 323.885618 
L 300.305665 325.547322 
L 301.856573 328.813183 
L 303.40748 354.598063 
L 304.958387 348.890443 
L 306.509295 316.633144 
L 308.060202 336.405393 
L 309.611088 337.445964 
L 311.161996 302.21424 
L 312.712903 338.662794 
L 314.263811 334.46332 
L 315.814718 323.953297 
L 317.365626 330.588495 
L 318.916512 308.175436 
L 320.467419 343.118244 
L 322.018327 334.000214 
L 323.569234 312.288217 
L 325.120141 334.103592 
L 326.671028 319.131469 
L 328.221935 313.313669 
L 329.772843 301.42083 
L 331.32375 319.609405 
L 332.874657 318.699327 
L 334.425565 319.202973 
L 335.976452 305.971312 
L 337.527359 314.341998 
L 339.078266 341.815549 
L 340.629173 319.017465 
L 342.180081 331.054985 
L 343.730967 319.646973 
L 345.281875 295.976479 
L 346.832782 322.359578 
L 348.38369 296.288888 
L 349.934597 320.429347 
L 351.485504 314.397101 
L 353.036391 309.831085 
L 354.587298 311.997271 
L 356.138206 317.311938 
L 357.689113 299.332809 
L 359.240021 282.661188 
L 360.790907 296.883692 
L 362.341814 307.873366 
L 363.892722 317.090282 
L 365.443629 305.289077 
L 366.994537 315.772684 
L 368.545423 301.467417 
L 370.09633 313.195765 
L 371.647238 317.824296 
L 373.198145 305.440062 
L 374.749053 279.573649 
L 376.29996 299.936686 
L 377.850847 298.258468 
L 379.401754 323.631666 
L 380.952661 312.278385 
L 382.503568 296.066602 
L 384.054476 320.751162 
L 385.605363 321.400877 
L 387.15627 287.432123 
L 388.707177 315.101943 
L 391.808992 293.013262 
L 393.359899 307.40142 
L 394.910786 287.682077 
L 396.461693 295.228131 
L 398.012601 293.190863 
L 399.563508 305.734384 
L 401.114416 315.865514 
L 402.665302 290.358197 
L 404.216209 282.659557 
L 405.767117 282.300028 
L 407.318024 287.932378 
L 408.868932 290.330395 
L 410.419839 291.144399 
L 411.970725 280.15829 
L 413.521633 295.306885 
L 415.07254 293.195249 
L 416.623448 286.575661 
L 418.174355 294.615716 
L 419.725242 282.424143 
L 421.276149 282.254954 
L 422.827056 300.913831 
L 424.377964 276.067508 
L 425.928871 315.762495 
L 427.479778 274.961733 
L 429.030665 286.274301 
L 430.581573 318.871284 
L 432.13248 302.386137 
L 433.683387 266.880383 
L 435.234294 281.262238 
L 436.785181 276.671109 
L 438.336088 300.148108 
L 439.886996 291.670899 
L 441.437903 273.785911 
L 442.988811 289.174204 
L 444.539718 288.094484 
L 446.090604 258.323546 
L 447.641512 292.019513 
L 449.192419 273.042895 
L 450.743327 235.129694 
L 452.294234 291.157234 
L 453.84512 265.182749 
L 455.396028 287.069679 
L 456.946935 274.027014 
L 458.497843 275.423113 
L 460.04875 283.902164 
L 461.599658 309.022637 
L 463.150544 278.465888 
L 464.701451 270.375756 
L 466.252359 294.212085 
L 467.803266 280.176444 
L 469.354174 285.974405 
L 470.90506 275.063085 
L 472.455968 250.741288 
L 474.006875 274.22489 
L 475.557782 274.085299 
L 477.108689 299.481659 
L 478.659576 283.161484 
L 480.210484 244.830944 
L 481.761391 278.126443 
L 483.312298 259.004154 
L 484.863206 301.77392 
L 486.414113 290.998776 
L 487.965 275.64151 
L 489.515907 291.951857 
L 491.066814 294.853997 
L 492.617722 246.330709 
L 494.168629 296.82363 
L 495.719537 264.061906 
L 497.270423 255.289348 
L 498.82133 280.9536 
L 500.372238 277.170112 
L 501.923145 285.069509 
L 503.474053 293.691761 
L 505.02496 277.105779 
L 506.575846 276.679554 
L 508.126754 295.845358 
L 509.677661 232.027579 
L 511.228569 256.537785 
L 512.779476 270.955303 
L 514.330363 273.890429 
L 515.88127 275.495976 
L 518.983084 280.570925 
L 520.533992 283.995453 
L 522.084899 284.9177 
L 523.635786 295.121191 
L 525.186693 281.26913 
L 526.737601 273.656379 
L 528.288508 290.489744 
L 529.839415 250.007922 
L 531.390302 287.182064 
L 532.941209 275.800212 
L 534.492117 266.827637 
L 536.043024 286.951817 
L 537.593932 269.658478 
L 539.144839 237.664504 
L 540.695725 257.464717 
L 542.246633 258.848176 
L 543.79754 293.398049 
L 545.348448 291.884347 
L 546.899355 284.138621 
L 548.450241 284.78459 
L 550.001149 298.679775 
L 551.552056 261.155103 
L 553.102964 284.36141 
L 554.653871 266.094429 
L 556.204758 274.816226 
L 557.755665 285.399237 
L 559.306572 240.488618 
L 560.85748 277.25733 
L 562.408387 275.030639 
L 563.959294 249.240815 
L 565.510181 286.047246 
L 565.510181 286.047246 
" clip-path="url(#p52f975d7d5)" style="fill: none; stroke: #ff0000; stroke-opacity: 0.4; stroke-linecap: square"/>
   </g>
   <g id="line2d_18">
    <path d="M 86.280988 33.473723 
L 87.831875 31.809709 
L 89.382782 33.209194 
L 90.93369 34.245035 
L 92.484597 35.759153 
L 94.035504 35.20471 
L 95.586391 35.120146 
L 97.137298 38.019131 
L 98.688206 38.09546 
L 100.239113 37.075662 
L 101.79002 37.523988 
L 103.340928 35.210975 
L 104.891814 34.874026 
L 106.442721 37.357519 
L 107.993629 38.428007 
L 109.544536 38.506133 
L 111.095444 39.706447 
L 112.64633 38.699939 
L 114.197238 38.334533 
L 115.748145 37.269103 
L 117.299052 35.853329 
L 118.84996 35.627551 
L 120.400867 33.388745 
L 121.951754 32.496342 
L 125.053569 32.651807 
L 126.604476 35.232689 
L 128.155383 35.762573 
L 129.70627 34.60061 
L 131.257177 34.691874 
L 132.808085 32.717615 
L 135.9099 34.381357 
L 137.460786 34.819643 
L 139.011693 35.626974 
L 140.562601 37.074162 
L 142.113508 36.473177 
L 143.664415 39.018885 
L 145.215323 39.268332 
L 146.766209 37.965459 
L 148.317117 37.924717 
L 149.868024 36.761063 
L 151.418931 37.288432 
L 152.969839 39.232278 
L 154.520726 38.697019 
L 156.071633 42.450428 
L 159.173447 38.612279 
L 160.724355 37.800701 
L 162.275262 35.715488 
L 163.826149 34.692258 
L 165.377056 35.794172 
L 166.927964 35.444331 
L 168.478871 35.542907 
L 170.029778 37.091146 
L 171.580665 34.091502 
L 173.131572 34.865757 
L 174.68248 35.082683 
L 176.233387 34.82599 
L 177.784295 35.113116 
L 179.335202 33.856147 
L 180.886088 34.110338 
L 182.436996 36.159674 
L 183.987903 36.433477 
L 185.538811 38.773119 
L 187.089718 38.759101 
L 188.640604 37.308621 
L 190.191512 37.760366 
L 191.742419 38.664743 
L 193.293327 35.607087 
L 194.844234 38.980932 
L 196.395141 37.387517 
L 197.946028 36.958204 
L 199.496935 36.761128 
L 201.047842 35.781562 
L 202.59875 37.256292 
L 204.149657 37.940703 
L 205.700544 36.029598 
L 207.251451 36.63034 
L 208.802359 35.086033 
L 210.353266 35.736061 
L 211.904173 37.236931 
L 213.455081 37.403671 
L 215.005967 37.89075 
L 216.556875 40.768606 
L 218.107782 41.154195 
L 219.65869 42.94258 
L 221.209597 43.103957 
L 222.760483 41.58011 
L 224.311391 42.875726 
L 225.862298 42.324181 
L 227.413206 43.889781 
L 228.964113 45.61675 
L 230.515021 44.04414 
L 232.065907 46.881098 
L 233.616814 46.241507 
L 235.167722 45.208025 
L 236.718629 44.544987 
L 238.269537 41.997451 
L 239.820423 42.356748 
L 241.37133 42.091834 
L 242.922238 42.913891 
L 244.473145 44.289277 
L 246.024052 46.822533 
L 249.125847 47.316306 
L 250.676754 45.38538 
L 252.227661 45.520193 
L 253.778569 47.319348 
L 255.329476 46.105706 
L 256.880363 47.036369 
L 258.43127 48.433939 
L 259.982177 49.297754 
L 261.533085 53.87449 
L 263.083992 51.756375 
L 264.634878 50.770107 
L 266.185786 49.479752 
L 267.736693 47.139385 
L 269.287601 46.450415 
L 272.389416 47.3917 
L 273.940302 49.526299 
L 275.491209 49.692112 
L 277.042117 48.753486 
L 278.593024 49.994512 
L 280.143932 50.995036 
L 281.694818 50.798019 
L 283.245726 50.924643 
L 284.796633 48.11513 
L 287.898448 51.150396 
L 289.449355 52.511356 
L 291.000242 55.672387 
L 292.551149 54.896148 
L 294.102057 53.821243 
L 295.652964 54.636996 
L 298.754758 54.404035 
L 300.305665 56.397315 
L 301.856573 56.260609 
L 303.40748 56.602635 
L 306.509295 57.64936 
L 308.060202 62.10761 
L 309.611088 62.550174 
L 311.161996 61.979329 
L 312.712903 62.503092 
L 314.263811 62.17671 
L 315.814718 65.148733 
L 317.365626 67.833252 
L 318.916512 68.354632 
L 320.467419 69.530755 
L 322.018327 70.913454 
L 323.569234 70.235298 
L 325.120141 72.351857 
L 326.671028 73.797118 
L 328.221935 72.074113 
L 329.772843 72.88769 
L 331.32375 71.53746 
L 334.425565 75.871016 
L 335.976452 75.267188 
L 337.527359 77.590379 
L 340.629173 77.438556 
L 342.180081 77.08703 
L 343.730967 77.546081 
L 345.281875 77.637252 
L 346.832782 78.63085 
L 349.934597 80.146357 
L 351.485504 83.683361 
L 353.036391 83.841702 
L 354.587298 86.142578 
L 356.138206 86.487369 
L 357.689113 86.23957 
L 359.240021 87.070166 
L 360.790907 85.727066 
L 362.341814 86.862696 
L 363.892722 88.510991 
L 365.443629 89.121533 
L 366.994537 90.004246 
L 368.545423 89.303208 
L 370.09633 88.472318 
L 371.647238 88.006134 
L 373.198145 86.365887 
L 374.749053 85.296776 
L 376.29996 86.870662 
L 377.850847 86.19567 
L 379.401754 86.988791 
L 382.503568 87.775891 
L 384.054476 89.565042 
L 385.605363 90.120503 
L 388.707177 89.329359 
L 390.258085 88.14459 
L 391.808992 90.524311 
L 393.359899 92.121321 
L 394.910786 92.673834 
L 396.461693 95.186504 
L 398.012601 97.931385 
L 399.563508 97.751258 
L 401.114416 100.294675 
L 402.665302 100.992236 
L 404.216209 100.980907 
L 405.767117 102.549284 
L 407.318024 102.125835 
L 410.419839 103.464256 
L 411.970725 103.94229 
L 413.521633 107.476498 
L 415.07254 104.668969 
L 416.623448 104.999367 
L 418.174355 104.791754 
L 419.725242 101.617582 
L 421.276149 100.761341 
L 422.827056 101.672772 
L 424.377964 101.627665 
L 425.928871 102.580535 
L 427.479778 102.063093 
L 429.030665 101.778376 
L 430.581573 102.788299 
L 433.683387 102.157511 
L 435.234294 103.957597 
L 436.785181 103.160141 
L 438.336088 106.691035 
L 439.886996 107.33682 
L 441.437903 107.01216 
L 442.988811 111.999699 
L 444.539718 113.562453 
L 446.090604 113.309243 
L 447.641512 113.644886 
L 449.192419 113.199635 
L 450.743327 111.930266 
L 452.294234 112.86687 
L 453.84512 113.020277 
L 455.396028 112.564206 
L 456.946935 113.112691 
L 458.497843 112.023602 
L 460.04875 113.177337 
L 461.599658 113.643625 
L 463.150544 112.872257 
L 464.701451 114.031229 
L 466.252359 111.754268 
L 467.803266 112.024608 
L 469.354174 112.610333 
L 470.90506 112.468509 
L 472.455968 113.413665 
L 474.006875 114.53503 
L 475.557782 113.60334 
L 477.108689 113.353475 
L 478.659576 113.573559 
L 480.210484 112.409951 
L 481.761391 113.709697 
L 483.312298 112.062989 
L 484.863206 111.858715 
L 486.414113 112.287581 
L 487.965 111.922441 
L 489.515907 113.760972 
L 491.066814 113.625212 
L 492.617722 111.669941 
L 494.168629 111.723467 
L 495.719537 111.241372 
L 497.270423 111.90496 
L 498.82133 113.828533 
L 500.372238 114.342374 
L 501.923145 115.802669 
L 503.474053 117.516434 
L 505.02496 116.763177 
L 506.575846 118.52802 
L 508.126754 117.745838 
L 509.677661 116.570125 
L 511.228569 116.271757 
L 512.779476 114.779468 
L 514.330363 115.052732 
L 515.88127 116.599919 
L 517.432177 115.564477 
L 518.983084 116.289014 
L 520.533992 117.189222 
L 522.084899 116.170722 
L 523.635786 115.987783 
L 525.186693 114.965925 
L 526.737601 115.169204 
L 528.288508 116.033428 
L 529.839415 116.721844 
L 531.390302 117.573038 
L 532.941209 116.677012 
L 534.492117 116.039323 
L 536.043024 117.102059 
L 537.593932 116.831391 
L 539.144839 114.697641 
L 540.695725 116.254593 
L 542.246633 115.020941 
L 543.79754 116.200405 
L 545.348448 116.256294 
L 546.899355 115.231651 
L 548.450241 116.864546 
L 550.001149 116.453131 
L 551.552056 115.601781 
L 553.102964 115.745878 
L 554.653871 114.554211 
L 554.653871 114.554211 
" clip-path="url(#p52f975d7d5)" style="fill: none; stroke: #6a5acd; stroke-width: 2.5; stroke-linecap: square"/>
   </g>
   <g id="line2d_19">
    <path d="M 86.280988 362.526251 
L 87.831875 364.19028 
L 89.382782 362.790798 
L 90.93369 361.754954 
L 92.484597 360.240842 
L 94.035504 360.795284 
L 95.586391 360.879843 
L 97.137298 357.980856 
L 98.688206 357.904527 
L 100.239113 358.924324 
L 101.79002 358.476002 
L 103.340928 360.789022 
L 104.891814 361.125968 
L 106.442721 358.642473 
L 107.993629 357.571987 
L 109.544536 357.493865 
L 111.095444 356.293547 
L 112.64633 357.300059 
L 114.197238 357.665463 
L 115.748145 358.730899 
L 117.299052 360.146678 
L 118.84996 360.372454 
L 120.400867 362.611263 
L 121.951754 363.503673 
L 125.053569 363.3482 
L 126.604476 360.767315 
L 128.155383 360.237429 
L 129.70627 361.399397 
L 131.257177 361.308134 
L 132.808085 363.282388 
L 135.9099 361.618638 
L 137.460786 361.180355 
L 139.011693 360.373019 
L 140.562601 358.925827 
L 142.113508 359.526813 
L 143.664415 356.981098 
L 145.215323 356.731645 
L 146.766209 358.034533 
L 148.317117 358.075271 
L 149.868024 359.238925 
L 151.418931 358.71156 
L 152.969839 356.767717 
L 154.520726 357.302972 
L 156.071633 353.549566 
L 159.173447 357.387719 
L 160.724355 358.199294 
L 162.275262 360.284502 
L 163.826149 361.307729 
L 165.377056 360.205816 
L 166.927964 360.555658 
L 168.478871 360.457086 
L 170.029778 358.908845 
L 171.580665 361.908492 
L 173.131572 361.134235 
L 174.68248 360.917312 
L 176.233387 361.174 
L 177.784295 360.886873 
L 179.335202 362.143831 
L 180.886088 361.889638 
L 182.436996 359.840301 
L 183.987903 359.566502 
L 185.538811 357.226858 
L 187.089718 357.24088 
L 188.640604 358.691358 
L 190.191512 358.239615 
L 191.742419 357.335238 
L 193.293327 360.392881 
L 194.844234 357.019032 
L 196.395141 358.612446 
L 197.946028 359.041756 
L 199.496935 359.238833 
L 201.047842 360.218404 
L 202.59875 358.743687 
L 204.149657 358.059276 
L 205.700544 359.970378 
L 207.251451 359.369635 
L 208.802359 360.913949 
L 210.353266 360.263918 
L 211.904173 358.763049 
L 213.455081 358.596309 
L 215.005967 358.109228 
L 216.556875 355.231372 
L 218.107782 354.845782 
L 219.65869 353.057399 
L 221.209597 352.896027 
L 222.760483 354.419855 
L 224.311391 353.124237 
L 225.862298 353.67578 
L 227.413206 352.110181 
L 228.964113 350.383224 
L 230.515021 351.955833 
L 232.065907 349.118869 
L 233.616814 349.758463 
L 235.167722 350.791949 
L 236.718629 351.454984 
L 238.269537 354.002542 
L 239.820423 353.643263 
L 241.37133 353.908175 
L 242.922238 353.086114 
L 244.473145 351.710726 
L 246.024052 349.177495 
L 249.125847 348.68372 
L 250.676754 350.614635 
L 252.227661 350.479814 
L 253.778569 348.680662 
L 255.329476 349.8943 
L 256.880363 348.963635 
L 258.43127 347.566063 
L 259.982177 346.702248 
L 261.533085 342.125481 
L 263.083992 344.243598 
L 264.634878 345.229869 
L 266.185786 346.520234 
L 267.736693 348.860603 
L 269.287601 349.549573 
L 272.389416 348.608299 
L 273.940302 346.473703 
L 275.491209 346.307891 
L 277.042117 347.246512 
L 278.593024 346.00549 
L 280.143932 345.004968 
L 281.694818 345.201985 
L 283.245726 345.075364 
L 284.796633 347.884875 
L 287.898448 344.84961 
L 289.449355 343.488648 
L 291.000242 340.327617 
L 292.551149 341.103856 
L 294.102057 342.178751 
L 295.652964 341.362998 
L 298.754758 341.595958 
L 300.305665 339.602683 
L 301.856573 339.739387 
L 303.40748 339.39736 
L 306.509295 338.350636 
L 308.060202 333.892387 
L 309.611088 333.449818 
L 311.161996 334.020666 
L 312.712903 333.496902 
L 314.263811 333.823281 
L 315.814718 330.85126 
L 317.365626 328.166741 
L 318.916512 327.645361 
L 320.467419 326.469239 
L 322.018327 325.086541 
L 323.569234 325.764696 
L 325.120141 323.64814 
L 326.671028 322.202881 
L 328.221935 323.925882 
L 329.772843 323.112305 
L 331.32375 324.462534 
L 334.425565 320.128973 
L 335.976452 320.732801 
L 337.527359 318.409613 
L 340.629173 318.561435 
L 342.180081 318.912961 
L 343.730967 318.453912 
L 345.281875 318.362737 
L 346.832782 317.369139 
L 349.934597 315.853632 
L 351.485504 312.316629 
L 353.036391 312.158287 
L 354.587298 309.857413 
L 356.138206 309.512622 
L 357.689113 309.76042 
L 359.240021 308.929825 
L 360.790907 310.272923 
L 362.341814 309.137295 
L 363.892722 307.489001 
L 365.443629 306.87846 
L 366.994537 305.995744 
L 368.545423 306.696787 
L 370.09633 307.527679 
L 371.647238 307.993863 
L 373.198145 309.63411 
L 374.749053 310.70322 
L 376.29996 309.129336 
L 377.850847 309.804326 
L 379.401754 309.011205 
L 382.503568 308.224103 
L 384.054476 306.434952 
L 385.605363 305.879488 
L 388.707177 306.670631 
L 390.258085 307.855399 
L 391.808992 305.475677 
L 393.359899 303.878665 
L 394.910786 303.326151 
L 396.461693 300.813481 
L 398.012601 298.068601 
L 399.563508 298.248729 
L 401.114416 295.705315 
L 402.665302 295.007754 
L 404.216209 295.019082 
L 405.767117 293.450712 
L 407.318024 293.87416 
L 410.419839 292.535739 
L 411.970725 292.057703 
L 413.521633 288.523497 
L 415.07254 291.331026 
L 416.623448 291.000629 
L 418.174355 291.208241 
L 419.725242 294.382415 
L 421.276149 295.238661 
L 422.827056 294.327229 
L 424.377964 294.372336 
L 425.928871 293.419465 
L 427.479778 293.936906 
L 429.030665 294.221623 
L 430.581573 293.2117 
L 433.683387 293.842488 
L 435.234294 292.042404 
L 436.785181 292.839861 
L 438.336088 289.308967 
L 439.886996 288.663182 
L 441.437903 288.987845 
L 442.988811 284.000303 
L 444.539718 282.437541 
L 446.090604 282.690751 
L 447.641512 282.355108 
L 449.192419 282.80036 
L 450.743327 284.069726 
L 452.294234 283.133123 
L 453.84512 282.979716 
L 455.396028 283.435786 
L 456.946935 282.887302 
L 458.497843 283.976391 
L 460.04875 282.822655 
L 461.599658 282.356368 
L 463.150544 283.127735 
L 464.701451 281.968762 
L 466.252359 284.245717 
L 467.803266 283.975378 
L 469.354174 283.389653 
L 470.90506 283.531476 
L 472.455968 282.58632 
L 474.006875 281.464956 
L 475.557782 282.396648 
L 477.108689 282.646514 
L 478.659576 282.426432 
L 480.210484 283.590041 
L 481.761391 282.290293 
L 483.312298 283.937002 
L 484.863206 284.141276 
L 486.414113 283.71241 
L 487.965 284.07755 
L 489.515907 282.239025 
L 491.066814 282.374786 
L 492.617722 284.330055 
L 494.168629 284.27653 
L 495.719537 284.758624 
L 497.270423 284.095039 
L 498.82133 282.171464 
L 500.372238 281.657623 
L 501.923145 280.197327 
L 503.474053 278.483563 
L 505.02496 279.236821 
L 506.575846 277.471978 
L 508.126754 278.25416 
L 509.677661 279.429874 
L 511.228569 279.728238 
L 512.779476 281.220522 
L 514.330363 280.947258 
L 515.88127 279.400071 
L 517.432177 280.435515 
L 518.983084 279.71098 
L 520.533992 278.810769 
L 522.084899 279.82927 
L 523.635786 280.012208 
L 525.186693 281.034066 
L 526.737601 280.830787 
L 528.288508 279.966563 
L 529.839415 279.278147 
L 531.390302 278.426953 
L 532.941209 279.322977 
L 534.492117 279.960669 
L 536.043024 278.897937 
L 537.593932 279.168606 
L 539.144839 281.302353 
L 540.695725 279.745401 
L 542.246633 280.979054 
L 543.79754 279.799591 
L 545.348448 279.743701 
L 546.899355 280.768344 
L 548.450241 279.13545 
L 550.001149 279.546863 
L 551.552056 280.398213 
L 553.102964 280.254116 
L 554.653871 281.44578 
L 554.653871 281.44578 
" clip-path="url(#p52f975d7d5)" style="fill: none; stroke: #ff0000; stroke-width: 2.5; stroke-linecap: square"/>
   </g>
   <g id="line2d_20">
    <path d="M 75.424657 197.992343 
L 123.502661 198.002485 
L 154.520726 197.99766 
L 565.510181 197.999872 
L 565.510181 197.999872 
" clip-path="url(#p52f975d7d5)" style="fill: none; stroke: #800080; stroke-width: 1.5; stroke-linecap: square"/>
   </g>
   <g id="line2d_21">
    <path d="M 73.87375 197.999998 
L 565.2 197.999998 
" clip-path="url(#p52f975d7d5)" style="fill: none; stroke-dasharray: 1,1.65; stroke-dashoffset: 0; stroke: #000000"/>
   </g>
   <g id="patch_3">
    <path d="M 73.87375 385.2 
L 73.87375 10.8 
" style="fill: none; stroke: #696969; stroke-width: 0.5; stroke-linejoin: miter; stroke-linecap: square"/>
   </g>
   <g id="patch_4">
    <path d="M 565.2 385.2 
L 565.2 10.8 
" style="fill: none; stroke: #696969; stroke-width: 0.5; stroke-linejoin: miter; stroke-linecap: square"/>
   </g>
   <g id="patch_5">
    <path d="M 73.87375 385.2 
L 565.2 385.2 
" style="fill: none; stroke: #696969; stroke-width: 0.5; stroke-linejoin: miter; stroke-linecap: square"/>
   </g>
   <g id="legend_1">
    <g id="patch_6">
     <path d="M 83.67375 191 
L 172.01375 191 
Q 174.81375 191 174.81375 188.2 
L 174.81375 127.86 
Q 174.81375 125.06 172.01375 125.06 
L 83.67375 125.06 
Q 80.87375 125.06 80.87375 127.86 
L 80.87375 188.2 
Q 80.87375 191 83.67375 191 
z
" style="fill: #fffafa; opacity: 0.8; stroke: #cccccc; stroke-linejoin: miter"/>
    </g>
    <g id="line2d_22">
     <path d="M 86.47375 136.4 
L 100.47375 136.4 
L 114.47375 136.4 
" style="fill: none; stroke: #6a5acd; stroke-width: 2.5; stroke-linecap: square"/>
    </g>
    <g id="text_15">
     <!-- $\phi_\mathtt{Out}$ ⬆️ -->
     <g transform="translate(125.67375 141.3)scale(0.14 -0.14)">
      <defs>
       <path id="DejaVuSansMono-4f" d="M 2828 2328 
Q 2828 3356 2617 3797 
Q 2406 4238 1925 4238 
Q 1447 4238 1236 3797 
Q 1025 3356 1025 2328 
Q 1025 1303 1236 862 
Q 1447 422 1925 422 
Q 2406 422 2617 861 
Q 2828 1300 2828 2328 
z
M 3488 2328 
Q 3488 1109 3102 509 
Q 2716 -91 1925 -91 
Q 1134 -91 750 506 
Q 366 1103 366 2328 
Q 366 3550 752 4150 
Q 1138 4750 1925 4750 
Q 2716 4750 3102 4150 
Q 3488 3550 3488 2328 
z
" transform="scale(0.015625)"/>
       <path id="DejaVuSansMono-75" d="M 609 1325 
L 609 3494 
L 1184 3494 
L 1184 1325 
Q 1184 853 1351 631 
Q 1519 409 1869 409 
Q 2275 409 2490 695 
Q 2706 981 2706 1516 
L 2706 3494 
L 3284 3494 
L 3284 0 
L 2706 0 
L 2706 525 
Q 2553 222 2289 65 
Q 2025 -91 1672 -91 
Q 1134 -91 871 261 
Q 609 613 609 1325 
z
" transform="scale(0.015625)"/>
       <path id="DejaVuSansMono-74" d="M 1919 4494 
L 1919 3500 
L 3225 3500 
L 3225 3053 
L 1919 3053 
L 1919 1153 
Q 1919 766 2066 612 
Q 2213 459 2578 459 
L 3225 459 
L 3225 0 
L 2522 0 
Q 1875 0 1609 259 
Q 1344 519 1344 1153 
L 1344 3053 
L 409 3053 
L 409 3500 
L 1344 3500 
L 1344 4494 
L 1919 4494 
z
" transform="scale(0.015625)"/>
       <path id="DejaVuSans-20" transform="scale(0.015625)"/>
       <path id="DejaVuSans-2b06" d="M 1094 3238 
L 2681 4825 
L 4269 3238 
L 3416 3238 
L 3416 0 
L 1947 0 
L 1947 3238 
L 1094 3238 
z
" transform="scale(0.015625)"/>
       <path id="DejaVuSans-fe0f" transform="scale(0.015625)"/>
      </defs>
      <use xlink:href="#DejaVuSans-Oblique-3d5" transform="translate(0 0.015625)"/>
      <use xlink:href="#DejaVuSansMono-4f" transform="translate(65.966797 -16.390625)scale(0.7)"/>
      <use xlink:href="#DejaVuSansMono-75" transform="translate(108.110352 -16.390625)scale(0.7)"/>
      <use xlink:href="#DejaVuSansMono-74" transform="translate(150.253906 -16.390625)scale(0.7)"/>
      <use xlink:href="#DejaVuSans-20" transform="translate(195.131836 0.015625)"/>
      <use xlink:href="#DejaVuSans-2b06" transform="translate(226.918945 0.015625)"/>
      <use xlink:href="#DejaVuSans-fe0f" transform="translate(310.708008 0.015625)"/>
     </g>
    </g>
    <g id="line2d_23">
     <path d="M 86.47375 156.98 
L 100.47375 156.98 
L 114.47375 156.98 
" style="fill: none; stroke: #ff0000; stroke-width: 2.5; stroke-linecap: square"/>
    </g>
    <g id="text_16">
     <!-- $\phi_\mathtt{In}$ ⬇️ -->
     <g transform="translate(125.67375 161.88)scale(0.14 -0.14)">
      <defs>
       <path id="DejaVuSansMono-49" d="M 628 4666 
L 3219 4666 
L 3219 4134 
L 2241 4134 
L 2241 531 
L 3219 531 
L 3219 0 
L 628 0 
L 628 531 
L 1606 531 
L 1606 4134 
L 628 4134 
L 628 4666 
z
" transform="scale(0.015625)"/>
       <path id="DejaVuSansMono-6e" d="M 3284 2169 
L 3284 0 
L 2706 0 
L 2706 2169 
Q 2706 2641 2540 2862 
Q 2375 3084 2022 3084 
Q 1619 3084 1401 2798 
Q 1184 2513 1184 1978 
L 1184 0 
L 609 0 
L 609 3500 
L 1184 3500 
L 1184 2975 
Q 1338 3275 1600 3429 
Q 1863 3584 2222 3584 
Q 2756 3584 3020 3232 
Q 3284 2881 3284 2169 
z
" transform="scale(0.015625)"/>
       <path id="DejaVuSans-2b07" d="M 1094 1428 
L 1947 1428 
L 1947 4666 
L 3416 4666 
L 3416 1428 
L 4269 1428 
L 2681 -159 
L 1094 1428 
z
" transform="scale(0.015625)"/>
      </defs>
      <use xlink:href="#DejaVuSans-Oblique-3d5" transform="translate(0 0.015625)"/>
      <use xlink:href="#DejaVuSansMono-49" transform="translate(65.966797 -16.390625)scale(0.7)"/>
      <use xlink:href="#DejaVuSansMono-6e" transform="translate(108.110352 -16.390625)scale(0.7)"/>
      <use xlink:href="#DejaVuSans-20" transform="translate(152.988281 0.015625)"/>
      <use xlink:href="#DejaVuSans-2b07" transform="translate(184.775391 0.015625)"/>
      <use xlink:href="#DejaVuSans-fe0f" transform="translate(268.564453 0.015625)"/>
     </g>
    </g>
    <g id="line2d_24">
     <path d="M 86.47375 177.56 
L 100.47375 177.56 
L 114.47375 177.56 
" style="fill: none; stroke: #800080; stroke-width: 1.5; stroke-linecap: square"/>
    </g>
    <g id="text_17">
     <!-- $\phi_\mathtt{Net}$ -->
     <g transform="translate(125.67375 182.46)scale(0.14 -0.14)">
      <defs>
       <path id="DejaVuSansMono-4e" d="M 434 4666 
L 1234 4666 
L 2809 825 
L 2809 4666 
L 3419 4666 
L 3419 0 
L 2619 0 
L 1044 3841 
L 1044 0 
L 434 0 
L 434 4666 
z
" transform="scale(0.015625)"/>
       <path id="DejaVuSansMono-65" d="M 3475 1894 
L 3475 1613 
L 984 1613 
L 984 1594 
Q 984 1022 1282 709 
Q 1581 397 2125 397 
Q 2400 397 2700 484 
Q 3000 572 3341 750 
L 3341 178 
Q 3013 44 2708 -23 
Q 2403 -91 2119 -91 
Q 1303 -91 843 398 
Q 384 888 384 1747 
Q 384 2584 834 3084 
Q 1284 3584 2034 3584 
Q 2703 3584 3089 3131 
Q 3475 2678 3475 1894 
z
M 2900 2063 
Q 2888 2569 2661 2833 
Q 2434 3097 2009 3097 
Q 1594 3097 1325 2822 
Q 1056 2547 1006 2059 
L 2900 2063 
z
" transform="scale(0.015625)"/>
      </defs>
      <use xlink:href="#DejaVuSans-Oblique-3d5" transform="translate(0 0.015625)"/>
      <use xlink:href="#DejaVuSansMono-4e" transform="translate(65.966797 -16.390625)scale(0.7)"/>
      <use xlink:href="#DejaVuSansMono-65" transform="translate(108.110352 -16.390625)scale(0.7)"/>
      <use xlink:href="#DejaVuSansMono-74" transform="translate(150.253906 -16.390625)scale(0.7)"/>
     </g>
    </g>
   </g>
  </g>
 </g>
 <defs>
  <clipPath id="p52f975d7d5">
   <rect x="73.87375" y="10.8" width="491.32625" height="374.4"/>
  </clipPath>
 </defs>
</svg>
