<?xml version="1.0" encoding="utf-8" standalone="no"?>
<!DOCTYPE svg PUBLIC "-//W3C//DTD SVG 1.1//EN"
  "http://www.w3.org/Graphics/SVG/1.1/DTD/svg11.dtd">
<svg xmlns:xlink="http://www.w3.org/1999/xlink" width="576pt" height="432pt" viewBox="0 0 576 432" xmlns="http://www.w3.org/2000/svg" version="1.1">
 <metadata>
  <rdf:RDF xmlns:dc="http://purl.org/dc/elements/1.1/" xmlns:cc="http://creativecommons.org/ns#" xmlns:rdf="http://www.w3.org/1999/02/22-rdf-syntax-ns#">
   <cc:Work>
    <dc:type rdf:resource="http://purl.org/dc/dcmitype/StillImage"/>
    <dc:date>2022-06-13T08:45:45.766131</dc:date>
    <dc:format>image/svg+xml</dc:format>
    <dc:creator>
     <cc:Agent>
      <dc:title>Matplotlib v3.5.2, https://matplotlib.org/</dc:title>
     </cc:Agent>
    </dc:creator>
   </cc:Work>
  </rdf:RDF>
 </metadata>
 <defs>
  <style type="text/css">*{stroke-linejoin: round; stroke-linecap: butt}</style>
 </defs>
 <g id="figure_1">
  <g id="patch_1">
   <path d="M 0 432 
L 576 432 
L 576 0 
L 0 0 
L 0 432 
z
" style="fill: none"/>
  </g>
  <g id="axes_1">
   <g id="patch_2">
    <path d="M 78.327363 385.2 
L 565.2 385.2 
L 565.2 10.8 
L 78.327363 10.8 
z
" style="fill: #fffafa"/>
   </g>
   <g id="matplotlib.axis_1">
    <g id="xtick_1">
     <g id="line2d_1">
      <defs>
       <path id="m6defe94920" d="M 0 0 
L 0 3.5 
" style="stroke: #696969; stroke-width: 0.8"/>
      </defs>
      <g>
       <use xlink:href="#m6defe94920" x="78.327363" y="385.2" style="fill: #696969; stroke: #696969; stroke-width: 0.8"/>
      </g>
     </g>
     <g id="text_1">
      <!-- 0 -->
      <g style="fill: #696969" transform="translate(75.146113 399.798437)scale(0.1 -0.1)">
       <defs>
        <path id="DejaVuSans-30" d="M 2034 4250 
Q 1547 4250 1301 3770 
Q 1056 3291 1056 2328 
Q 1056 1369 1301 889 
Q 1547 409 2034 409 
Q 2525 409 2770 889 
Q 3016 1369 3016 2328 
Q 3016 3291 2770 3770 
Q 2525 4250 2034 4250 
z
M 2034 4750 
Q 2819 4750 3233 4129 
Q 3647 3509 3647 2328 
Q 3647 1150 3233 529 
Q 2819 -91 2034 -91 
Q 1250 -91 836 529 
Q 422 1150 422 2328 
Q 422 3509 836 4129 
Q 1250 4750 2034 4750 
z
" transform="scale(0.015625)"/>
       </defs>
       <use xlink:href="#DejaVuSans-30"/>
      </g>
     </g>
    </g>
    <g id="xtick_2">
     <g id="line2d_2">
      <g>
       <use xlink:href="#m6defe94920" x="152.095945" y="385.2" style="fill: #696969; stroke: #696969; stroke-width: 0.8"/>
      </g>
     </g>
     <g id="text_2">
      <!-- 2 -->
      <g style="fill: #696969" transform="translate(148.914695 399.798437)scale(0.1 -0.1)">
       <defs>
        <path id="DejaVuSans-32" d="M 1228 531 
L 3431 531 
L 3431 0 
L 469 0 
L 469 531 
Q 828 903 1448 1529 
Q 2069 2156 2228 2338 
Q 2531 2678 2651 2914 
Q 2772 3150 2772 3378 
Q 2772 3750 2511 3984 
Q 2250 4219 1831 4219 
Q 1534 4219 1204 4116 
Q 875 4013 500 3803 
L 500 4441 
Q 881 4594 1212 4672 
Q 1544 4750 1819 4750 
Q 2544 4750 2975 4387 
Q 3406 4025 3406 3419 
Q 3406 3131 3298 2873 
Q 3191 2616 2906 2266 
Q 2828 2175 2409 1742 
Q 1991 1309 1228 531 
z
" transform="scale(0.015625)"/>
       </defs>
       <use xlink:href="#DejaVuSans-32"/>
      </g>
     </g>
    </g>
    <g id="xtick_3">
     <g id="line2d_3">
      <g>
       <use xlink:href="#m6defe94920" x="225.864526" y="385.2" style="fill: #696969; stroke: #696969; stroke-width: 0.8"/>
      </g>
     </g>
     <g id="text_3">
      <!-- 4 -->
      <g style="fill: #696969" transform="translate(222.683276 399.798437)scale(0.1 -0.1)">
       <defs>
        <path id="DejaVuSans-34" d="M 2419 4116 
L 825 1625 
L 2419 1625 
L 2419 4116 
z
M 2253 4666 
L 3047 4666 
L 3047 1625 
L 3713 1625 
L 3713 1100 
L 3047 1100 
L 3047 0 
L 2419 0 
L 2419 1100 
L 313 1100 
L 313 1709 
L 2253 4666 
z
" transform="scale(0.015625)"/>
       </defs>
       <use xlink:href="#DejaVuSans-34"/>
      </g>
     </g>
    </g>
    <g id="xtick_4">
     <g id="line2d_4">
      <g>
       <use xlink:href="#m6defe94920" x="299.633107" y="385.2" style="fill: #696969; stroke: #696969; stroke-width: 0.8"/>
      </g>
     </g>
     <g id="text_4">
      <!-- 6 -->
      <g style="fill: #696969" transform="translate(296.451857 399.798437)scale(0.1 -0.1)">
       <defs>
        <path id="DejaVuSans-36" d="M 2113 2584 
Q 1688 2584 1439 2293 
Q 1191 2003 1191 1497 
Q 1191 994 1439 701 
Q 1688 409 2113 409 
Q 2538 409 2786 701 
Q 3034 994 3034 1497 
Q 3034 2003 2786 2293 
Q 2538 2584 2113 2584 
z
M 3366 4563 
L 3366 3988 
Q 3128 4100 2886 4159 
Q 2644 4219 2406 4219 
Q 1781 4219 1451 3797 
Q 1122 3375 1075 2522 
Q 1259 2794 1537 2939 
Q 1816 3084 2150 3084 
Q 2853 3084 3261 2657 
Q 3669 2231 3669 1497 
Q 3669 778 3244 343 
Q 2819 -91 2113 -91 
Q 1303 -91 875 529 
Q 447 1150 447 2328 
Q 447 3434 972 4092 
Q 1497 4750 2381 4750 
Q 2619 4750 2861 4703 
Q 3103 4656 3366 4563 
z
" transform="scale(0.015625)"/>
       </defs>
       <use xlink:href="#DejaVuSans-36"/>
      </g>
     </g>
    </g>
    <g id="xtick_5">
     <g id="line2d_5">
      <g>
       <use xlink:href="#m6defe94920" x="373.401689" y="385.2" style="fill: #696969; stroke: #696969; stroke-width: 0.8"/>
      </g>
     </g>
     <g id="text_5">
      <!-- 8 -->
      <g style="fill: #696969" transform="translate(370.220439 399.798437)scale(0.1 -0.1)">
       <defs>
        <path id="DejaVuSans-38" d="M 2034 2216 
Q 1584 2216 1326 1975 
Q 1069 1734 1069 1313 
Q 1069 891 1326 650 
Q 1584 409 2034 409 
Q 2484 409 2743 651 
Q 3003 894 3003 1313 
Q 3003 1734 2745 1975 
Q 2488 2216 2034 2216 
z
M 1403 2484 
Q 997 2584 770 2862 
Q 544 3141 544 3541 
Q 544 4100 942 4425 
Q 1341 4750 2034 4750 
Q 2731 4750 3128 4425 
Q 3525 4100 3525 3541 
Q 3525 3141 3298 2862 
Q 3072 2584 2669 2484 
Q 3125 2378 3379 2068 
Q 3634 1759 3634 1313 
Q 3634 634 3220 271 
Q 2806 -91 2034 -91 
Q 1263 -91 848 271 
Q 434 634 434 1313 
Q 434 1759 690 2068 
Q 947 2378 1403 2484 
z
M 1172 3481 
Q 1172 3119 1398 2916 
Q 1625 2713 2034 2713 
Q 2441 2713 2670 2916 
Q 2900 3119 2900 3481 
Q 2900 3844 2670 4047 
Q 2441 4250 2034 4250 
Q 1625 4250 1398 4047 
Q 1172 3844 1172 3481 
z
" transform="scale(0.015625)"/>
       </defs>
       <use xlink:href="#DejaVuSans-38"/>
      </g>
     </g>
    </g>
    <g id="xtick_6">
     <g id="line2d_6">
      <g>
       <use xlink:href="#m6defe94920" x="447.17027" y="385.2" style="fill: #696969; stroke: #696969; stroke-width: 0.8"/>
      </g>
     </g>
     <g id="text_6">
      <!-- 10 -->
      <g style="fill: #696969" transform="translate(440.80777 399.798437)scale(0.1 -0.1)">
       <defs>
        <path id="DejaVuSans-31" d="M 794 531 
L 1825 531 
L 1825 4091 
L 703 3866 
L 703 4441 
L 1819 4666 
L 2450 4666 
L 2450 531 
L 3481 531 
L 3481 0 
L 794 0 
L 794 531 
z
" transform="scale(0.015625)"/>
       </defs>
       <use xlink:href="#DejaVuSans-31"/>
       <use xlink:href="#DejaVuSans-30" x="63.623047"/>
      </g>
     </g>
    </g>
    <g id="xtick_7">
     <g id="line2d_7">
      <g>
       <use xlink:href="#m6defe94920" x="520.938851" y="385.2" style="fill: #696969; stroke: #696969; stroke-width: 0.8"/>
      </g>
     </g>
     <g id="text_7">
      <!-- 12 -->
      <g style="fill: #696969" transform="translate(514.576351 399.798437)scale(0.1 -0.1)">
       <use xlink:href="#DejaVuSans-31"/>
       <use xlink:href="#DejaVuSans-32" x="63.623047"/>
      </g>
     </g>
    </g>
    <g id="text_8">
     <!-- Time [d] -->
     <g transform="translate(292.505869 417.515937)scale(0.14 -0.14)">
      <defs>
       <path id="DejaVuSans-ExtraLight-54" d="M 141 4666 
L 3769 4666 
L 3769 4409 
L 2113 4409 
L 2113 0 
L 1797 0 
L 1797 4409 
L 141 4409 
L 141 4666 
z
" transform="scale(0.015625)"/>
       <path id="DejaVuSans-ExtraLight-69" d="M 719 3500 
L 1006 3500 
L 1006 0 
L 719 0 
L 719 3500 
z
M 719 4863 
L 1006 4863 
L 1006 4469 
L 719 4469 
L 719 4863 
z
" transform="scale(0.015625)"/>
       <path id="DejaVuSans-ExtraLight-6d" d="M 3244 2738 
Q 3406 3159 3756 3375 
Q 4088 3584 4544 3584 
Q 5000 3584 5275 3263 
Q 5553 2944 5553 2113 
L 5553 0 
L 5269 0 
L 5269 2094 
Q 5269 2819 5069 3075 
Q 4869 3331 4538 3331 
Q 4056 3331 3688 3034 
Q 3284 2713 3284 1978 
L 3284 0 
L 2997 0 
L 2997 2094 
Q 2997 2794 2803 3062 
Q 2609 3331 2266 3331 
Q 1784 3331 1416 3031 
Q 1013 2709 1013 1978 
L 1013 0 
L 725 0 
L 725 3500 
L 1013 3500 
L 1013 2844 
Q 1166 3188 1488 3388 
Q 1813 3584 2284 3584 
Q 2591 3584 2875 3378 
Q 3094 3219 3244 2738 
z
" transform="scale(0.015625)"/>
       <path id="DejaVuSans-ExtraLight-65" d="M 3453 1894 
L 3453 1713 
L 797 1713 
Q 797 869 1125 531 
Q 1488 156 2203 156 
Q 2391 156 2700 238 
Q 3013 319 3319 481 
L 3319 178 
Q 3009 47 2684 -22 
Q 2359 -91 2169 -91 
Q 1359 -91 950 347 
Q 506 813 506 1713 
Q 506 2647 913 3106 
Q 1328 3584 2069 3584 
Q 2756 3584 3106 3131 
Q 3453 2656 3453 1894 
z
M 3163 1956 
Q 3163 2694 2831 3031 
Q 2553 3331 2075 3331 
Q 1553 3331 1200 3019 
Q 875 2728 809 1956 
L 3163 1956 
z
" transform="scale(0.015625)"/>
       <path id="DejaVuSans-ExtraLight-20" transform="scale(0.015625)"/>
       <path id="DejaVuSans-ExtraLight-5b" d="M 725 4863 
L 1791 4863 
L 1791 4538 
L 1038 4538 
L 1038 -581 
L 1791 -581 
L 1791 -844 
L 725 -844 
L 725 4863 
z
" transform="scale(0.015625)"/>
       <path id="DejaVuSans-ExtraLight-64" d="M 3050 2700 
L 3050 4863 
L 3331 4863 
L 3331 0 
L 3050 0 
L 3050 794 
Q 2853 338 2622 169 
Q 2269 -91 1956 -91 
Q 1334 -91 921 415 
Q 509 922 509 1747 
Q 509 2572 921 3078 
Q 1334 3584 1956 3584 
Q 2269 3584 2622 3325 
Q 2853 3156 3050 2700 
z
M 1175 2966 
Q 813 2600 813 1747 
Q 813 894 1175 528 
Q 1534 163 1934 163 
Q 2325 163 2688 528 
Q 3047 894 3047 1747 
Q 3047 2600 2688 2966 
Q 2325 3331 1934 3331 
Q 1534 3331 1175 2966 
z
" transform="scale(0.015625)"/>
       <path id="DejaVuSans-ExtraLight-5d" d="M 1791 4863 
L 1791 -844 
L 725 -844 
L 725 -581 
L 1478 -581 
L 1478 4538 
L 725 4538 
L 725 4863 
L 1791 4863 
z
" transform="scale(0.015625)"/>
      </defs>
      <use xlink:href="#DejaVuSans-ExtraLight-54"/>
      <use xlink:href="#DejaVuSans-ExtraLight-69" x="57.958984"/>
      <use xlink:href="#DejaVuSans-ExtraLight-6d" x="85.742188"/>
      <use xlink:href="#DejaVuSans-ExtraLight-65" x="183.154297"/>
      <use xlink:href="#DejaVuSans-ExtraLight-20" x="244.677734"/>
      <use xlink:href="#DejaVuSans-ExtraLight-5b" x="276.464844"/>
      <use xlink:href="#DejaVuSans-ExtraLight-64" x="315.478516"/>
      <use xlink:href="#DejaVuSans-ExtraLight-5d" x="378.955078"/>
     </g>
    </g>
   </g>
   <g id="matplotlib.axis_2">
    <g id="ytick_1">
     <g id="line2d_8">
      <defs>
       <path id="m6a54dbe244" d="M 0 0 
L -3.5 0 
" style="stroke: #696969; stroke-width: 0.8"/>
      </defs>
      <g>
       <use xlink:href="#m6a54dbe244" x="78.327363" y="350.857638" style="fill: #696969; stroke: #696969; stroke-width: 0.8"/>
      </g>
     </g>
     <g id="text_9">
      <!-- $\mathdefault{-10^{-8}}$ -->
      <g style="fill: #696969" transform="translate(39.527363 354.656857)scale(0.1 -0.1)">
       <defs>
        <path id="DejaVuSans-2212" d="M 678 2272 
L 4684 2272 
L 4684 1741 
L 678 1741 
L 678 2272 
z
" transform="scale(0.015625)"/>
       </defs>
       <use xlink:href="#DejaVuSans-2212" transform="translate(0 0.765625)"/>
       <use xlink:href="#DejaVuSans-31" transform="translate(83.789062 0.765625)"/>
       <use xlink:href="#DejaVuSans-30" transform="translate(147.412109 0.765625)"/>
       <use xlink:href="#DejaVuSans-2212" transform="translate(211.992188 39.046875)scale(0.7)"/>
       <use xlink:href="#DejaVuSans-38" transform="translate(270.644531 39.046875)scale(0.7)"/>
      </g>
     </g>
    </g>
    <g id="ytick_2">
     <g id="line2d_9">
      <g>
       <use xlink:href="#m6a54dbe244" x="78.327363" y="301.724826" style="fill: #696969; stroke: #696969; stroke-width: 0.8"/>
      </g>
     </g>
     <g id="text_10">
      <!-- $\mathdefault{-10^{-9}}$ -->
      <g style="fill: #696969" transform="translate(39.527363 305.524045)scale(0.1 -0.1)">
       <defs>
        <path id="DejaVuSans-39" d="M 703 97 
L 703 672 
Q 941 559 1184 500 
Q 1428 441 1663 441 
Q 2288 441 2617 861 
Q 2947 1281 2994 2138 
Q 2813 1869 2534 1725 
Q 2256 1581 1919 1581 
Q 1219 1581 811 2004 
Q 403 2428 403 3163 
Q 403 3881 828 4315 
Q 1253 4750 1959 4750 
Q 2769 4750 3195 4129 
Q 3622 3509 3622 2328 
Q 3622 1225 3098 567 
Q 2575 -91 1691 -91 
Q 1453 -91 1209 -44 
Q 966 3 703 97 
z
M 1959 2075 
Q 2384 2075 2632 2365 
Q 2881 2656 2881 3163 
Q 2881 3666 2632 3958 
Q 2384 4250 1959 4250 
Q 1534 4250 1286 3958 
Q 1038 3666 1038 3163 
Q 1038 2656 1286 2365 
Q 1534 2075 1959 2075 
z
" transform="scale(0.015625)"/>
       </defs>
       <use xlink:href="#DejaVuSans-2212" transform="translate(0 0.765625)"/>
       <use xlink:href="#DejaVuSans-31" transform="translate(83.789062 0.765625)"/>
       <use xlink:href="#DejaVuSans-30" transform="translate(147.412109 0.765625)"/>
       <use xlink:href="#DejaVuSans-2212" transform="translate(211.992188 39.046875)scale(0.7)"/>
       <use xlink:href="#DejaVuSans-39" transform="translate(270.644531 39.046875)scale(0.7)"/>
      </g>
     </g>
    </g>
    <g id="ytick_3">
     <g id="line2d_10">
      <g>
       <use xlink:href="#m6a54dbe244" x="78.327363" y="252.592014" style="fill: #696969; stroke: #696969; stroke-width: 0.8"/>
      </g>
     </g>
     <g id="text_11">
      <!-- $\mathdefault{-10^{-10}}$ -->
      <g style="fill: #696969" transform="translate(35.027363 256.391232)scale(0.1 -0.1)">
       <use xlink:href="#DejaVuSans-2212" transform="translate(0 0.765625)"/>
       <use xlink:href="#DejaVuSans-31" transform="translate(83.789062 0.765625)"/>
       <use xlink:href="#DejaVuSans-30" transform="translate(147.412109 0.765625)"/>
       <use xlink:href="#DejaVuSans-2212" transform="translate(211.992188 39.046875)scale(0.7)"/>
       <use xlink:href="#DejaVuSans-31" transform="translate(270.644531 39.046875)scale(0.7)"/>
       <use xlink:href="#DejaVuSans-30" transform="translate(315.180664 39.046875)scale(0.7)"/>
      </g>
     </g>
    </g>
    <g id="ytick_4">
     <g id="line2d_11">
      <g>
       <use xlink:href="#m6a54dbe244" x="78.327363" y="198" style="fill: #696969; stroke: #696969; stroke-width: 0.8"/>
      </g>
     </g>
     <g id="text_12">
      <!-- $\mathdefault{0}$ -->
      <g style="fill: #696969" transform="translate(64.927363 201.799219)scale(0.1 -0.1)">
       <use xlink:href="#DejaVuSans-30" transform="translate(0 0.78125)"/>
      </g>
     </g>
    </g>
    <g id="ytick_5">
     <g id="line2d_12">
      <g>
       <use xlink:href="#m6a54dbe244" x="78.327363" y="143.407986" style="fill: #696969; stroke: #696969; stroke-width: 0.8"/>
      </g>
     </g>
     <g id="text_13">
      <!-- $\mathdefault{10^{-10}}$ -->
      <g style="fill: #696969" transform="translate(43.427363 147.207205)scale(0.1 -0.1)">
       <use xlink:href="#DejaVuSans-31" transform="translate(0 0.765625)"/>
       <use xlink:href="#DejaVuSans-30" transform="translate(63.623047 0.765625)"/>
       <use xlink:href="#DejaVuSans-2212" transform="translate(128.203125 39.046875)scale(0.7)"/>
       <use xlink:href="#DejaVuSans-31" transform="translate(186.855469 39.046875)scale(0.7)"/>
       <use xlink:href="#DejaVuSans-30" transform="translate(231.391602 39.046875)scale(0.7)"/>
      </g>
     </g>
    </g>
    <g id="ytick_6">
     <g id="line2d_13">
      <g>
       <use xlink:href="#m6a54dbe244" x="78.327363" y="94.275174" style="fill: #696969; stroke: #696969; stroke-width: 0.8"/>
      </g>
     </g>
     <g id="text_14">
      <!-- $\mathdefault{10^{-9}}$ -->
      <g style="fill: #696969" transform="translate(47.827363 98.074393)scale(0.1 -0.1)">
       <use xlink:href="#DejaVuSans-31" transform="translate(0 0.765625)"/>
       <use xlink:href="#DejaVuSans-30" transform="translate(63.623047 0.765625)"/>
       <use xlink:href="#DejaVuSans-2212" transform="translate(128.203125 39.046875)scale(0.7)"/>
       <use xlink:href="#DejaVuSans-39" transform="translate(186.855469 39.046875)scale(0.7)"/>
      </g>
     </g>
    </g>
    <g id="ytick_7">
     <g id="line2d_14">
      <g>
       <use xlink:href="#m6a54dbe244" x="78.327363" y="45.142362" style="fill: #696969; stroke: #696969; stroke-width: 0.8"/>
      </g>
     </g>
     <g id="text_15">
      <!-- $\mathdefault{10^{-8}}$ -->
      <g style="fill: #696969" transform="translate(47.827363 48.941581)scale(0.1 -0.1)">
       <use xlink:href="#DejaVuSans-31" transform="translate(0 0.765625)"/>
       <use xlink:href="#DejaVuSans-30" transform="translate(63.623047 0.765625)"/>
       <use xlink:href="#DejaVuSans-2212" transform="translate(128.203125 39.046875)scale(0.7)"/>
       <use xlink:href="#DejaVuSans-38" transform="translate(186.855469 39.046875)scale(0.7)"/>
      </g>
     </g>
    </g>
    <g id="text_16">
     <!-- Oxygen flux    $m$ [kg/s/m²] -->
     <g transform="translate(27.087363 289.63)rotate(-90)scale(0.14 -0.14)">
      <defs>
       <path id="DejaVuSans-ExtraLight-4f" d="M 3738 3922 
Q 3288 4506 2522 4506 
Q 1756 4506 1303 3922 
Q 853 3338 853 2328 
Q 853 1325 1303 741 
Q 1756 156 2522 156 
Q 3288 156 3738 741 
Q 4184 1325 4184 2328 
Q 4184 3338 3738 3922 
z
M 2522 4750 
Q 3428 4750 3972 4094 
Q 4516 3434 4516 2328 
Q 4516 1225 3972 569 
Q 3428 -91 2522 -91 
Q 1613 -91 1066 566 
Q 522 1222 522 2328 
Q 522 3434 1066 4094 
Q 1613 4750 2522 4750 
z
" transform="scale(0.015625)"/>
       <path id="DejaVuSans-ExtraLight-78" d="M 3338 3500 
L 2072 1819 
L 3431 0 
L 3088 0 
L 1900 1594 
L 700 0 
L 356 0 
L 1725 1831 
L 481 3500 
L 822 3500 
L 1900 2047 
L 2994 3500 
L 3338 3500 
z
" transform="scale(0.015625)"/>
       <path id="DejaVuSans-ExtraLight-79" d="M 1906 -325 
Q 1719 -791 1503 -969 
Q 1213 -1209 934 -1209 
L 506 -1209 
L 506 -966 
L 872 -966 
Q 1100 -966 1272 -819 
Q 1494 -628 1638 -259 
L 1741 0 
L 344 3500 
L 650 3500 
L 1894 381 
L 3141 3500 
L 3444 3500 
L 1906 -325 
z
" transform="scale(0.015625)"/>
       <path id="DejaVuSans-ExtraLight-67" d="M 3050 1791 
Q 3050 2519 2754 2920 
Q 2459 3322 1925 3322 
Q 1397 3322 1101 2920 
Q 806 2519 806 1791 
Q 806 1066 1101 664 
Q 1397 263 1925 263 
Q 2459 263 2754 664 
Q 3050 1066 3050 1791 
z
M 3338 434 
Q 3338 -656 2922 -993 
Q 2506 -1331 1869 -1331 
Q 1566 -1331 1297 -1288 
Q 1028 -1241 775 -1147 
L 775 -819 
Q 1028 -956 1275 -1022 
Q 1522 -1088 1778 -1088 
Q 2300 -1088 2675 -866 
Q 3050 -644 3050 331 
L 3050 878 
Q 2922 519 2697 313 
Q 2353 -3 1925 0 
Q 1259 0 887 470 
Q 516 941 516 1794 
Q 516 2644 887 3114 
Q 1259 3584 1925 3584 
Q 2350 3584 2656 3316 
Q 2894 3106 3050 2756 
L 3050 3500 
L 3338 3500 
L 3338 434 
z
" transform="scale(0.015625)"/>
       <path id="DejaVuSans-ExtraLight-6e" d="M 3369 2113 
L 3369 0 
L 3081 0 
L 3081 2094 
Q 3081 2775 2862 3053 
Q 2644 3331 2219 3331 
Q 1722 3331 1369 3031 
Q 1013 2728 1013 1978 
L 1013 0 
L 725 0 
L 725 3500 
L 1013 3500 
L 1013 2844 
Q 1166 3163 1416 3331 
Q 1784 3584 2231 3584 
Q 2750 3584 3059 3231 
Q 3369 2881 3369 2113 
z
" transform="scale(0.015625)"/>
       <path id="DejaVuSans-ExtraLight-66" d="M 2231 4863 
L 2231 4619 
L 1825 4619 
Q 1506 4619 1338 4453 
Q 1131 4250 1131 3809 
L 1131 3500 
L 2075 3500 
L 2075 3256 
L 1131 3256 
L 1131 0 
L 841 0 
L 841 3256 
L 291 3256 
L 291 3500 
L 841 3500 
L 841 3744 
Q 841 4328 1106 4594 
Q 1369 4863 1831 4863 
L 2231 4863 
z
" transform="scale(0.015625)"/>
       <path id="DejaVuSans-ExtraLight-6c" d="M 725 4863 
L 1013 4863 
L 1013 0 
L 725 0 
L 725 4863 
z
" transform="scale(0.015625)"/>
       <path id="DejaVuSans-ExtraLight-75" d="M 688 1388 
L 688 3500 
L 975 3500 
L 975 1406 
Q 975 725 1194 447 
Q 1413 169 1838 169 
Q 2334 169 2688 469 
Q 3044 772 3044 1522 
L 3044 3500 
L 3331 3500 
L 3331 0 
L 3044 0 
L 3044 656 
Q 2891 338 2641 169 
Q 2272 -84 1825 -84 
Q 1306 -84 997 269 
Q 688 619 688 1388 
z
" transform="scale(0.015625)"/>
       <path id="DejaVuSans-Oblique-6d" d="M 5747 2113 
L 5338 0 
L 4763 0 
L 5166 2094 
Q 5191 2228 5203 2325 
Q 5216 2422 5216 2491 
Q 5216 2772 5059 2928 
Q 4903 3084 4622 3084 
Q 4203 3084 3875 2770 
Q 3547 2456 3450 1953 
L 3066 0 
L 2491 0 
L 2900 2094 
Q 2925 2209 2937 2307 
Q 2950 2406 2950 2484 
Q 2950 2769 2794 2926 
Q 2638 3084 2363 3084 
Q 1938 3084 1609 2770 
Q 1281 2456 1184 1953 
L 800 0 
L 225 0 
L 909 3500 
L 1484 3500 
L 1375 2956 
Q 1609 3263 1923 3423 
Q 2238 3584 2597 3584 
Q 2978 3584 3223 3384 
Q 3469 3184 3519 2828 
Q 3781 3197 4126 3390 
Q 4472 3584 4856 3584 
Q 5306 3584 5551 3325 
Q 5797 3066 5797 2591 
Q 5797 2488 5784 2364 
Q 5772 2241 5747 2113 
z
" transform="scale(0.015625)"/>
       <path id="DejaVuSans-ExtraLight-6b" d="M 1016 4863 
L 1306 4863 
L 1306 1909 
L 3047 3500 
L 3441 3500 
L 1631 1847 
L 3500 0 
L 3128 0 
L 1306 1794 
L 1306 0 
L 1016 0 
L 1016 4863 
z
" transform="scale(0.015625)"/>
       <path id="DejaVuSans-ExtraLight-2f" d="M 1725 4666 
L 2056 4666 
L 431 -594 
L 100 -594 
L 1725 4666 
z
" transform="scale(0.015625)"/>
       <path id="DejaVuSans-ExtraLight-73" d="M 2706 3397 
L 2706 3081 
Q 2403 3250 2328 3269 
Q 2109 3322 1784 3331 
Q 1291 3331 1009 3134 
Q 794 2972 794 2578 
Q 794 2313 997 2163 
Q 1213 2000 1613 1913 
L 1809 1869 
Q 2306 1759 2563 1559 
Q 2859 1331 2875 966 
Q 2875 469 2581 188 
Q 2269 -91 1575 -91 
Q 1188 -91 988 -38 
Q 747 31 481 128 
L 481 488 
Q 863 269 975 238 
Q 1284 156 1588 156 
Q 2094 156 2334 366 
Q 2578 578 2578 922 
Q 2578 1209 2416 1341 
Q 2181 1528 1669 1647 
L 1469 1694 
Q 1028 1797 797 1984 
Q 506 2219 506 2553 
Q 506 3103 856 3343 
Q 1206 3584 1716 3584 
Q 2150 3584 2316 3538 
Q 2516 3481 2706 3397 
z
" transform="scale(0.015625)"/>
       <path id="DejaVuSans-ExtraLight-b2" d="M 653 2550 
L 2163 2550 
L 2163 2291 
L 294 2291 
L 294 2597 
Q 547 2803 597 2838 
Q 1772 3700 1772 3950 
Q 1772 4247 1597 4369 
Q 1422 4494 1081 4494 
Q 919 4494 728 4416 
Q 538 4334 313 4178 
L 313 4466 
Q 553 4609 763 4678 
Q 969 4750 1150 4750 
Q 1563 4750 1809 4544 
Q 2056 4338 2056 3994 
Q 2056 3528 966 2769 
Q 766 2628 653 2550 
z
" transform="scale(0.015625)"/>
      </defs>
      <use xlink:href="#DejaVuSans-ExtraLight-4f" transform="translate(0 0.015625)"/>
      <use xlink:href="#DejaVuSans-ExtraLight-78" transform="translate(78.710938 0.015625)"/>
      <use xlink:href="#DejaVuSans-ExtraLight-79" transform="translate(137.890625 0.015625)"/>
      <use xlink:href="#DejaVuSans-ExtraLight-67" transform="translate(197.070312 0.015625)"/>
      <use xlink:href="#DejaVuSans-ExtraLight-65" transform="translate(257.080078 0.015625)"/>
      <use xlink:href="#DejaVuSans-ExtraLight-6e" transform="translate(318.603516 0.015625)"/>
      <use xlink:href="#DejaVuSans-ExtraLight-20" transform="translate(381.982422 0.015625)"/>
      <use xlink:href="#DejaVuSans-ExtraLight-66" transform="translate(413.769531 0.015625)"/>
      <use xlink:href="#DejaVuSans-ExtraLight-6c" transform="translate(448.974609 0.015625)"/>
      <use xlink:href="#DejaVuSans-ExtraLight-75" transform="translate(476.757812 0.015625)"/>
      <use xlink:href="#DejaVuSans-ExtraLight-78" transform="translate(540.136719 0.015625)"/>
      <use xlink:href="#DejaVuSans-ExtraLight-20" transform="translate(599.316406 0.015625)"/>
      <use xlink:href="#DejaVuSans-ExtraLight-20" transform="translate(631.103516 0.015625)"/>
      <use xlink:href="#DejaVuSans-ExtraLight-20" transform="translate(662.890625 0.015625)"/>
      <use xlink:href="#DejaVuSans-ExtraLight-20" transform="translate(694.677734 0.015625)"/>
      <use xlink:href="#DejaVuSans-Oblique-6d" transform="translate(726.464844 0.015625)"/>
      <use xlink:href="#DejaVuSans-ExtraLight-20" transform="translate(823.876953 0.015625)"/>
      <use xlink:href="#DejaVuSans-ExtraLight-5b" transform="translate(855.664062 0.015625)"/>
      <use xlink:href="#DejaVuSans-ExtraLight-6b" transform="translate(894.677734 0.015625)"/>
      <use xlink:href="#DejaVuSans-ExtraLight-67" transform="translate(952.587891 0.015625)"/>
      <use xlink:href="#DejaVuSans-ExtraLight-2f" transform="translate(1012.597656 0.015625)"/>
      <use xlink:href="#DejaVuSans-ExtraLight-73" transform="translate(1046.289062 0.015625)"/>
      <use xlink:href="#DejaVuSans-ExtraLight-2f" transform="translate(1098.388672 0.015625)"/>
      <use xlink:href="#DejaVuSans-ExtraLight-6d" transform="translate(1132.080078 0.015625)"/>
      <use xlink:href="#DejaVuSans-ExtraLight-b2" transform="translate(1229.492188 0.015625)"/>
      <use xlink:href="#DejaVuSans-ExtraLight-5d" transform="translate(1269.580078 0.015625)"/>
     </g>
    </g>
   </g>
   <g id="line2d_15">
    <path d="M 79.864209 320.061448 
L 141.338026 319.92361 
L 170.53809 319.648374 
L 190.517081 319.235099 
L 205.885535 318.705283 
L 221.25399 317.94477 
L 235.085599 317.101283 
L 247.380362 316.128527 
L 259.675126 314.928016 
L 275.04358 313.149782 
L 291.94888 310.934931 
L 301.169953 309.455786 
L 315.001562 306.979292 
L 324.222634 305.189379 
L 347.275316 300.29254 
L 359.57008 297.808419 
L 379.54907 294.132165 
L 390.306988 292.405164 
L 405.675443 290.205372 
L 419.507052 288.452327 
L 430.26497 287.298411 
L 445.633424 286.015124 
L 461.001879 284.964799 
L 476.370333 284.139394 
L 493.275633 283.469172 
L 511.717779 283.01102 
L 533.233615 282.710445 
L 554.749451 282.627719 
L 577 282.704153 
L 577 282.704153 
" clip-path="url(#pd3799041bb)" style="fill: none; stroke-dasharray: 5.55,2.4; stroke-dashoffset: 0; stroke: #ff0000; stroke-width: 1.5"/>
   </g>
   <g id="line2d_16">
    <path d="M 79.864209 115.580742 
L 81.401054 102.71922 
L 82.9379 97.022433 
L 84.474745 93.69711 
L 86.011591 91.485069 
L 87.548436 89.895486 
L 89.085281 88.693258 
L 90.622127 87.750255 
L 92.158972 86.989521 
L 95.232663 85.83668 
L 98.306354 85.003632 
L 101.380045 84.372929 
L 105.990581 83.669314 
L 112.137963 83.009557 
L 119.82219 82.445717 
L 129.043263 81.992158 
L 141.338026 81.621153 
L 155.169635 81.427772 
L 170.53809 81.448477 
L 185.906544 81.714009 
L 199.738153 82.172996 
L 213.569762 82.862366 
L 219.717144 83.141952 
L 227.401371 83.542287 
L 239.696135 84.502398 
L 250.454053 85.549726 
L 262.748817 86.954168 
L 265.822507 87.265497 
L 271.969889 87.860729 
L 278.117271 88.543186 
L 282.727807 89.115284 
L 291.94888 90.539523 
L 301.169953 92.196189 
L 313.464716 94.451654 
L 319.612098 95.66318 
L 328.833171 97.741807 
L 336.517398 99.595262 
L 338.054243 99.690414 
L 341.127934 100.287765 
L 354.959543 103.398988 
L 358.033234 103.937257 
L 368.791152 106.240144 
L 379.54907 108.576098 
L 382.622761 108.686444 
L 388.770143 109.767846 
L 414.896516 114.348981 
L 425.654434 116.048012 
L 428.728125 116.260966 
L 434.875506 116.91238 
L 453.317652 118.956763 
L 467.149261 120.268894 
L 471.759797 120.59879 
L 487.128251 121.56697 
L 497.88617 122.136012 
L 514.791469 122.818981 
L 531.696769 123.290361 
L 548.602069 123.548181 
L 576.265287 123.617267 
L 577 123.615715 
L 577 123.615715 
" clip-path="url(#pd3799041bb)" style="fill: none; stroke-dasharray: 5.55,2.4; stroke-dashoffset: 0; stroke: #6a5acd; stroke-width: 1.5"/>
   </g>
   <g id="line2d_17">
    <path d="M 79.864209 316.4421 
L 81.401054 312.90041 
L 82.9379 310.122111 
L 84.474745 307.871063 
L 86.011591 305.993669 
L 87.548436 304.392864 
L 89.085281 303.005842 
L 92.158972 300.710221 
L 95.232663 298.87785 
L 98.306354 297.374722 
L 101.380045 296.114723 
L 105.990581 294.558161 
L 110.601118 293.292371 
L 115.211654 292.235274 
L 121.359036 291.065257 
L 129.043263 289.882928 
L 136.72749 288.932808 
L 145.948563 288.03378 
L 155.169635 287.349802 
L 165.927554 286.77797 
L 178.222317 286.364965 
L 196.664462 286.015667 
L 216.643453 285.634017 
L 218.180299 285.333488 
L 221.25399 285.088715 
L 224.32768 284.829878 
L 258.13828 283.417245 
L 264.285662 283.009663 
L 267.359353 282.283795 
L 268.896198 282.062783 
L 270.433044 281.689764 
L 275.04358 281.213502 
L 276.580426 281.087531 
L 278.117271 280.518478 
L 281.190962 280.109932 
L 301.169953 278.344685 
L 308.85418 277.439759 
L 310.391025 277.095396 
L 311.927871 276.619419 
L 316.538407 275.840038 
L 336.517398 272.953106 
L 338.054243 271.929918 
L 339.591089 271.449954 
L 344.201625 270.692636 
L 350.349007 269.786186 
L 353.422698 269.386722 
L 356.496389 268.481762 
L 359.57008 267.992283 
L 365.717461 267.321015 
L 376.475379 266.403311 
L 379.54907 266.174344 
L 382.622761 264.526899 
L 385.696452 264.104 
L 394.917525 263.457298 
L 405.675443 263.005636 
L 422.580743 262.541335 
L 425.654434 262.477547 
L 427.191279 262.308939 
L 428.728125 261.958321 
L 431.801815 261.725017 
L 437.949197 261.586924 
L 453.317652 261.545439 
L 471.759797 261.523685 
L 477.907179 261.387381 
L 491.738788 261.410293 
L 519.402006 261.639686 
L 577 262.251266 
L 577 262.251266 
" clip-path="url(#pd3799041bb)" style="fill: none; stroke-dasharray: 5.55,2.4; stroke-dashoffset: 0; stroke: #800080; stroke-width: 1.5"/>
   </g>
   <g id="line2d_18">
    <path d="M 79.864213 331.034131 
L 81.401062 343.691652 
L 82.93789 340.237372 
L 84.47474 346.274289 
L 86.011589 318.968958 
L 87.548438 328.560321 
L 89.085287 354.50937 
L 90.622137 336.9496 
L 92.158965 302.917304 
L 93.695814 334.437776 
L 95.232664 330.8806 
L 96.769513 343.413407 
L 98.306362 353.27346 
L 99.843191 340.924923 
L 101.38004 340.045723 
L 102.916889 349.495426 
L 104.453738 321.76074 
L 105.990587 323.90153 
L 107.527437 328.614206 
L 109.064265 330.644897 
L 112.137963 329.32271 
L 113.674813 336.092706 
L 115.211662 330.462092 
L 116.74849 327.802747 
L 118.28534 351.954544 
L 119.822189 346.265734 
L 121.359038 331.521892 
L 122.895888 327.739265 
L 124.432737 339.300167 
L 125.969565 340.913504 
L 127.506415 336.711562 
L 129.043264 330.17254 
L 130.580113 341.386946 
L 132.116962 345.80885 
L 133.653791 333.477494 
L 135.19064 351.859491 
L 136.727489 345.794311 
L 138.264339 328.949095 
L 139.801188 326.200755 
L 141.338016 321.147723 
L 142.874866 341.674712 
L 144.411715 344.727899 
L 145.948564 325.9158 
L 147.485413 354.786943 
L 149.022262 330.201558 
L 150.559091 320.162573 
L 152.09594 320.929929 
L 153.632789 331.37873 
L 155.169638 329.972754 
L 156.706488 340.379365 
L 158.243317 328.821068 
L 159.780165 343.974745 
L 161.317015 343.288554 
L 162.853864 326.932887 
L 164.390713 338.838693 
L 165.927563 336.2036 
L 167.464391 319.648211 
L 169.00124 333.81636 
L 170.53809 323.69187 
L 172.074939 347.159936 
L 173.611788 343.869838 
L 175.148616 334.422411 
L 176.685466 350.613416 
L 178.222315 342.641653 
L 179.759164 324.024863 
L 181.296014 334.225045 
L 182.832863 343.101497 
L 184.369691 321.984529 
L 185.906541 354.872399 
L 187.44339 327.378125 
L 188.980239 333.246665 
L 190.517088 325.779768 
L 192.053917 329.278049 
L 193.590766 342.120121 
L 195.127615 345.052879 
L 196.664465 303.557789 
L 198.201313 330.463988 
L 199.738163 328.417871 
L 201.274992 342.756545 
L 202.811841 342.455737 
L 204.34869 327.518378 
L 205.885539 333.986854 
L 207.422388 353.049293 
L 208.959217 323.279722 
L 210.496066 344.975337 
L 212.032915 338.377756 
L 213.569765 329.294795 
L 215.106614 341.481698 
L 216.643463 320.858291 
L 218.180291 339.043688 
L 219.717141 341.427761 
L 221.25399 317.834977 
L 222.790839 346.056633 
L 224.327689 335.723162 
L 225.864517 321.083422 
L 227.401366 324.365417 
L 228.938216 326.592078 
L 230.475065 329.584681 
L 232.011914 314.413788 
L 233.548763 327.997184 
L 235.085592 336.94086 
L 236.622441 343.704864 
L 238.15929 328.126934 
L 239.69614 329.703316 
L 241.232989 318.91703 
L 242.769817 323.527423 
L 244.306667 337.874599 
L 245.843516 317.944218 
L 247.380365 340.611336 
L 248.917214 334.225791 
L 250.454043 332.77087 
L 251.990892 348.338955 
L 253.527741 324.127047 
L 255.06459 320.630409 
L 256.60144 310.967781 
L 258.138289 318.350351 
L 259.675118 315.964795 
L 261.211966 325.343186 
L 262.748816 326.356424 
L 264.285665 340.281954 
L 265.822514 321.279063 
L 267.359343 314.969907 
L 268.896192 333.956574 
L 270.433041 333.067133 
L 271.969891 315.786804 
L 273.50674 322.993225 
L 275.043589 307.494607 
L 276.580417 340.68881 
L 278.117267 331.703661 
L 279.654116 330.159719 
L 281.190965 341.77582 
L 282.727815 327.214428 
L 284.264643 316.483621 
L 285.801492 320.0431 
L 287.338342 317.979932 
L 288.875191 318.60654 
L 290.41204 328.757708 
L 291.948889 319.565271 
L 293.485718 322.306901 
L 295.022567 319.187317 
L 296.559416 321.230008 
L 298.096266 341.052033 
L 299.633115 328.018122 
L 301.169943 309.940274 
L 302.706793 311.213114 
L 304.243642 313.714712 
L 305.780491 333.46553 
L 307.31734 329.093581 
L 308.854189 304.384992 
L 310.391039 319.530227 
L 311.927867 320.327288 
L 313.464716 293.340335 
L 315.001566 321.259361 
L 316.538415 318.042629 
L 318.075264 309.992115 
L 319.612113 315.074574 
L 321.148942 297.906519 
L 322.685791 324.672166 
L 324.22264 317.687897 
L 325.75949 301.056846 
L 327.296338 317.767083 
L 328.833167 306.29867 
L 330.370017 301.842325 
L 331.906866 292.732596 
L 333.443715 306.664762 
L 334.980564 305.967656 
L 336.517413 306.353441 
L 338.054242 296.218194 
L 339.591091 302.630009 
L 341.12794 323.674322 
L 342.66479 306.211345 
L 344.201639 315.431898 
L 345.738467 306.693538 
L 347.275316 288.562307 
L 348.812166 308.771351 
L 350.349015 288.801608 
L 351.885864 307.292825 
L 353.422714 302.672218 
L 354.959542 299.174721 
L 356.496391 300.833985 
L 358.033241 304.904938 
L 361.106939 278.363001 
L 362.643767 289.257219 
L 364.180617 297.675138 
L 365.717466 304.735153 
L 367.254315 295.695613 
L 368.791165 303.725893 
L 370.327993 292.76828 
L 371.864842 301.752013 
L 373.401692 305.297395 
L 374.938541 295.811265 
L 376.47539 275.997995 
L 378.012239 291.595765 
L 379.549068 290.310276 
L 381.085917 309.745751 
L 382.622766 301.049314 
L 384.159615 288.63134 
L 385.696464 307.53933 
L 387.233293 308.037001 
L 388.770143 282.017464 
L 390.306991 303.212116 
L 393.38069 286.292529 
L 394.917539 297.313635 
L 396.454368 282.208924 
L 397.991217 287.989085 
L 399.528066 286.428569 
L 401.064916 296.036711 
L 402.601765 303.796999 
L 404.138593 284.25879 
L 405.675442 278.361752 
L 407.212292 278.086358 
L 408.749141 282.400651 
L 410.28599 284.237495 
L 411.82284 284.861009 
L 413.359668 276.445821 
L 414.896517 288.049409 
L 416.433367 286.431928 
L 417.970216 281.361427 
L 419.507065 287.519984 
L 421.043893 278.181429 
L 422.580743 278.051832 
L 424.117592 292.344242 
L 425.654441 273.312345 
L 427.19129 303.718088 
L 428.728139 272.465339 
L 430.264968 281.13059 
L 431.801818 306.099372 
L 433.338666 293.472006 
L 434.875516 267.378026 
L 436.412365 277.291428 
L 437.949194 273.774694 
L 439.486043 291.75771 
L 441.022892 285.2643 
L 442.559741 271.564677 
L 444.096591 283.351871 
L 445.63344 282.524822 
L 447.170268 264.547549 
L 448.707117 285.531333 
L 450.243967 270.995538 
L 451.780816 254.192048 
L 453.317665 284.870841 
L 454.854494 266.845535 
L 456.391343 281.739837 
L 457.928192 271.749358 
L 459.465042 272.818749 
L 461.001891 279.31357 
L 462.53874 298.555462 
L 464.075568 275.149467 
L 465.612418 268.952552 
L 467.149267 287.210809 
L 468.686116 276.459726 
L 470.222966 280.900874 
L 471.759794 272.542972 
L 473.296643 261.681331 
L 474.833493 271.900929 
L 476.370342 271.794004 
L 477.907191 291.247221 
L 479.44402 278.746221 
L 480.980869 259.145202 
L 482.517718 274.889457 
L 484.054567 264.786951 
L 485.591416 293.003057 
L 487.128266 284.749464 
L 488.665094 272.986037 
L 490.201943 285.479509 
L 491.738792 287.702504 
L 493.275642 259.817843 
L 494.812491 289.211212 
L 496.34934 266.486538 
L 497.886169 263.446336 
L 499.423018 277.055015 
L 500.959867 274.156923 
L 502.496717 280.207738 
L 504.033566 286.812249 
L 505.570415 274.107644 
L 507.107243 273.781163 
L 508.644093 288.461871 
L 510.180942 251.926756 
L 511.717791 263.906337 
L 513.25464 269.396475 
L 514.791469 271.644736 
L 516.328318 272.874561 
L 519.402016 276.761892 
L 520.938866 279.385028 
L 522.475715 280.091455 
L 524.012544 287.90717 
L 525.549393 277.296707 
L 527.086242 271.465458 
L 528.623091 284.359554 
L 530.159941 261.382543 
L 531.696769 281.825922 
L 533.233618 273.1076 
L 534.770467 267.36168 
L 536.307317 281.649557 
L 539.381015 255.601209 
L 540.917844 264.241574 
L 542.454693 264.732322 
L 543.991542 286.58727 
L 545.528392 285.427798 
L 547.065241 279.494692 
L 548.602069 279.989495 
L 550.138918 290.63299 
L 551.675768 265.526352 
L 553.212617 279.665345 
L 554.749466 267.133149 
L 556.286295 272.353883 
L 557.823144 280.460304 
L 559.359993 257.068835 
L 560.896843 274.22373 
L 562.433692 272.518119 
L 563.970541 261.065465 
L 565.50737 280.956669 
L 565.50737 280.956669 
" clip-path="url(#pd3799041bb)" style="fill: none; stroke: #ff0000; stroke-opacity: 0.5; stroke-width: 0.5; stroke-linecap: square"/>
   </g>
   <g id="line2d_19">
    <path d="M 79.864213 73.278024 
L 81.401062 56.098569 
L 82.93789 58.361658 
L 84.47474 53.180982 
L 86.011589 79.571315 
L 87.548438 69.243492 
L 89.085287 43.912618 
L 90.622137 60.840194 
L 92.158965 95.645621 
L 93.695814 63.77513 
L 95.232664 67.010791 
L 96.769513 54.526355 
L 98.306362 44.09164 
L 99.843191 56.90096 
L 101.38004 58.477923 
L 102.916889 48.509007 
L 104.453738 76.015322 
L 105.990587 73.631067 
L 107.527437 68.613303 
L 109.064265 67.336258 
L 110.601114 69.227092 
L 112.137963 67.817023 
L 113.674813 61.984667 
L 115.211662 67.301138 
L 116.74849 70.037045 
L 118.28534 45.176262 
L 119.822189 51.443084 
L 121.359038 65.740527 
L 122.895888 69.743542 
L 124.432737 57.818172 
L 125.969565 57.447532 
L 127.506415 60.645726 
L 129.043264 67.640248 
L 130.580113 55.945321 
L 132.116962 50.704748 
L 133.653791 64.278992 
L 135.19064 45.257607 
L 136.727489 51.82489 
L 138.264339 68.882884 
L 139.801188 71.892087 
L 141.338016 75.803323 
L 142.874866 56.740452 
L 144.411715 52.468648 
L 145.948564 71.981828 
L 147.485413 42.805262 
L 149.022262 68.203969 
L 150.559091 76.724293 
L 152.09594 76.357472 
L 153.632789 66.3559 
L 155.169638 67.431932 
L 156.706488 57.102573 
L 158.243317 68.037233 
L 159.780165 53.148713 
L 161.317015 53.969282 
L 162.853864 70.614221 
L 164.390713 58.886252 
L 165.927563 61.414777 
L 167.464391 77.554169 
L 169.00124 63.989608 
L 170.53809 73.089274 
L 172.074939 50.680252 
L 173.611788 52.722263 
L 175.148616 63.375528 
L 176.685466 46.352938 
L 178.222315 53.974561 
L 179.759164 73.868047 
L 181.296014 62.585737 
L 182.832863 54.600247 
L 184.369691 76.219235 
L 185.906541 41.981548 
L 187.44339 70.028356 
L 188.980239 64.057203 
L 190.517088 71.355708 
L 192.053917 67.705065 
L 193.590766 55.384448 
L 195.127615 52.557743 
L 196.664465 94.137374 
L 198.201313 67.045177 
L 199.738163 68.901111 
L 201.274992 54.47652 
L 202.811841 55.229616 
L 204.34869 69.762582 
L 205.885539 63.719935 
L 207.422388 43.997345 
L 208.959217 74.234447 
L 210.496066 52.228062 
L 212.032915 59.386675 
L 213.569765 68.078275 
L 215.106614 55.574765 
L 216.643463 76.357854 
L 218.180291 57.864583 
L 219.717141 56.514781 
L 221.25399 79.871929 
L 222.790839 51.009864 
L 224.327689 61.815502 
L 225.864517 76.875723 
L 227.401366 72.887625 
L 230.475065 67.826039 
L 232.011914 83.162554 
L 233.548763 69.008825 
L 235.085592 60.631634 
L 236.622441 53.783252 
L 238.15929 69.680701 
L 239.69614 67.883285 
L 241.232989 78.799318 
L 242.769817 73.949664 
L 244.306667 59.877348 
L 245.843516 79.986619 
L 247.380365 56.917736 
L 248.917214 63.816981 
L 250.454043 65.39344 
L 251.990892 48.955366 
L 253.527741 73.393398 
L 255.06459 77.001792 
L 256.60144 87.524479 
L 258.138289 79.441666 
L 259.675118 82.435523 
L 261.211966 73.997583 
L 262.748816 71.668464 
L 264.285665 57.422497 
L 265.822514 76.499594 
L 267.359343 82.903275 
L 268.896192 64.253073 
L 270.433041 64.881044 
L 271.969891 81.391516 
L 273.50674 75.13415 
L 275.043589 90.550625 
L 276.580417 57.17725 
L 278.117267 66.406288 
L 279.654116 67.543491 
L 281.190965 55.974104 
L 282.727815 70.531565 
L 284.264643 81.146364 
L 285.801492 77.643814 
L 287.338342 80.212092 
L 288.875191 79.562361 
L 290.41204 69.311101 
L 291.948889 77.891945 
L 293.485718 76.942807 
L 295.022567 78.115527 
L 296.559416 77.137301 
L 298.096266 56.424885 
L 299.633115 69.581975 
L 301.169943 87.78401 
L 302.706793 87.049738 
L 304.243642 84.362856 
L 305.780491 65.607349 
L 307.31734 68.623166 
L 308.854189 95.103275 
L 310.391039 79.383523 
L 311.927867 77.370504 
L 313.464716 105.993052 
L 315.001566 76.680127 
L 316.538415 80.469803 
L 318.075264 89.111056 
L 319.612113 83.359602 
L 321.148942 100.668698 
L 322.685791 74.236663 
L 324.22264 80.426585 
L 325.75949 97.825242 
L 327.296338 80.947558 
L 328.833167 92.579011 
L 330.370017 96.856113 
L 331.906866 107.206005 
L 333.443715 91.45252 
L 334.980564 92.158296 
L 336.517413 91.767608 
L 338.054242 102.930988 
L 339.591091 96.914268 
L 341.12794 74.576323 
L 342.66479 92.637338 
L 344.201639 83.64987 
L 345.738467 90.945764 
L 347.275316 110.721564 
L 348.812166 90.283892 
L 350.349015 110.532424 
L 351.885864 91.598186 
L 353.422714 95.647898 
L 354.959542 98.747189 
L 356.496391 98.645259 
L 358.033241 94.638988 
L 359.57009 108.378405 
L 361.106939 120.62908 
L 362.643767 110.30427 
L 364.180617 102.545663 
L 365.717466 93.937055 
L 367.254315 103.199601 
L 368.791165 94.659221 
L 370.327993 107.74557 
L 371.864842 97.544138 
L 373.401692 92.497312 
L 374.938541 104.142261 
L 376.47539 122.993882 
L 378.012239 107.617568 
L 379.549068 109.537411 
L 381.085917 90.254166 
L 382.622766 98.434483 
L 384.159615 110.814007 
L 385.696464 91.272803 
L 387.233293 90.76662 
L 388.770143 117.69026 
L 390.306991 97.364514 
L 391.843841 104.179431 
L 393.38069 114.378685 
L 394.917539 102.252724 
L 396.454368 117.859629 
L 397.991217 109.201144 
L 399.528066 113.5685 
L 401.064916 103.327424 
L 402.601765 94.565008 
L 404.138593 115.426822 
L 405.675442 121.559243 
L 407.212292 121.033432 
L 408.749141 117.163993 
L 410.28599 115.83758 
L 411.82284 114.985796 
L 413.359668 120.74088 
L 414.896517 111.970085 
L 416.433367 113.570084 
L 417.970216 118.490121 
L 419.507065 110.983198 
L 421.043893 122.266894 
L 422.580743 121.964372 
L 424.117592 107.574179 
L 425.654441 127.263785 
L 427.19129 96.133898 
L 428.728139 128.582315 
L 430.264968 116.379425 
L 431.801818 94.328466 
L 433.338666 107.41487 
L 434.875516 132.13521 
L 436.412365 123.495858 
L 437.949194 126.192219 
L 439.486043 108.487363 
L 441.022892 114.630944 
L 442.559741 129.067747 
L 444.096591 116.658782 
L 445.63344 117.577243 
L 447.170268 133.840579 
L 448.707117 114.038902 
L 450.243967 128.448432 
L 451.780816 151.802696 
L 453.317665 115.065268 
L 454.854494 133.441477 
L 456.391343 118.077061 
L 457.928192 127.701294 
L 459.465042 127.852516 
L 461.001891 119.088762 
L 462.53874 102.071707 
L 464.075568 125.756775 
L 465.612418 131.895513 
L 467.149267 113.315082 
L 468.686116 123.759462 
L 470.222966 119.972616 
L 473.296643 136.93764 
L 474.833493 127.679392 
L 476.370342 127.230058 
L 477.907191 109.666866 
L 479.44402 121.415001 
L 480.980869 141.607501 
L 482.517718 125.56905 
L 484.054567 134.563171 
L 485.591416 107.014007 
L 487.128266 113.845393 
L 488.665094 127.619086 
L 490.201943 115.196437 
L 491.738792 111.628227 
L 493.275642 139.004677 
L 494.812491 110.906355 
L 496.34934 130.489651 
L 497.886169 137.364174 
L 499.423018 123.829092 
L 500.959867 126.470494 
L 502.496717 120.76854 
L 504.033566 113.327552 
L 505.570415 124.935603 
L 507.107243 124.080566 
L 508.644093 112.664057 
L 510.180942 149.843712 
L 511.717791 135.142209 
L 513.25464 130.032291 
L 514.791469 126.856834 
L 516.328318 126.147732 
L 517.865168 125.758972 
L 519.402016 122.232385 
L 522.475715 119.342805 
L 524.012544 112.697327 
L 525.549393 122.956907 
L 527.086242 129.618772 
L 528.623091 115.304085 
L 530.159941 137.396363 
L 531.696769 118.586844 
L 533.233618 126.789391 
L 534.770467 130.267454 
L 536.307317 117.162374 
L 537.844166 131.429622 
L 539.381015 142.723831 
L 540.917844 135.285523 
L 542.454693 134.115493 
L 543.991542 112.909607 
L 545.528392 114.884651 
L 547.065241 120.877886 
L 548.602069 117.702493 
L 550.138918 109.830815 
L 551.675768 133.14778 
L 553.212617 119.499131 
L 554.749466 133.136573 
L 556.286295 128.822623 
L 557.823144 120.502993 
L 559.359993 142.263745 
L 560.896843 124.750224 
L 562.433692 127.10599 
L 563.970541 139.504157 
L 565.50737 119.126071 
L 565.50737 119.126071 
" clip-path="url(#pd3799041bb)" style="fill: none; stroke: #6a5acd; stroke-opacity: 0.5; stroke-width: 0.5; stroke-linecap: square"/>
   </g>
   <g id="line2d_20">
    <path d="M 79.864213 306.895748 
L 81.401062 304.950833 
L 82.93789 294.026721 
L 84.47474 305.721936 
L 86.011589 272.299163 
L 87.548438 274.947009 
L 89.085287 306.880107 
L 90.622137 283.176715 
L 92.158965 256.425844 
L 93.695814 284.984715 
L 95.232664 278.235769 
L 96.769513 291.283586 
L 98.306362 293.93039 
L 99.843191 287.560212 
L 101.38004 293.24396 
L 102.916889 298.033578 
L 104.453738 267.830282 
L 105.990587 266.945249 
L 107.527437 267.072254 
L 109.064265 278.945257 
L 110.601114 288.367337 
L 112.137963 266.241104 
L 113.674813 285.357658 
L 115.211662 276.383228 
L 116.74849 274.593121 
L 118.28534 288.709578 
L 119.822189 291.544864 
L 121.359038 270.561028 
L 122.895888 270.102851 
L 124.432737 275.82482 
L 125.969565 292.770281 
L 127.506415 277.249907 
L 129.043264 276.660711 
L 130.580113 281.540635 
L 132.116962 266.029509 
L 133.653791 279.320193 
L 135.19064 288.361066 
L 136.727489 289.968195 
L 138.264339 275.652517 
L 139.801188 275.616394 
L 141.338016 254.297778 
L 142.874866 293.988588 
L 144.411715 282.656157 
L 145.948564 273.338143 
L 147.485413 298.615394 
L 149.022262 282.434859 
L 150.559091 250.735243 
L 152.09594 260.374836 
L 153.632789 276.965029 
L 155.169638 271.220086 
L 156.706488 282.730874 
L 158.243317 259.827731 
L 159.780165 280.594317 
L 161.317015 282.252373 
L 162.853864 270.170523 
L 164.390713 284.310287 
L 165.927563 280.367035 
L 167.464391 257.677358 
L 169.00124 280.227471 
L 170.53809 252.726908 
L 172.074939 293.954711 
L 173.611788 267.086496 
L 175.148616 280.742395 
L 176.685466 284.096607 
L 178.222315 266.698069 
L 179.759164 271.396408 
L 181.296014 264.039995 
L 182.832863 288.295598 
L 184.369691 272.447628 
L 185.906541 285.772682 
L 187.44339 268.651807 
L 188.980239 272.954632 
L 190.517088 262.620432 
L 192.053917 263.119827 
L 193.590766 284.783849 
L 195.127615 289.117636 
L 196.664465 243.431231 
L 198.201313 273.190517 
L 199.738163 268.364277 
L 201.274992 281.308212 
L 202.811841 287.451396 
L 204.34869 266.859447 
L 205.885539 279.241623 
L 207.422388 288.195598 
L 208.959217 266.074413 
L 210.496066 283.022041 
L 212.032915 284.312836 
L 213.569765 270.072003 
L 215.106614 276.822498 
L 216.643463 259.123509 
L 218.180291 271.233014 
L 219.717141 289.327146 
L 221.25399 263.091156 
L 222.790839 281.594169 
L 224.327689 278.848189 
L 225.864517 269.156229 
L 227.401366 263.250114 
L 228.938216 258.793735 
L 230.475065 270.920483 
L 232.011914 258.036418 
L 233.548763 262.31882 
L 235.085592 280.513237 
L 236.622441 286.142102 
L 238.15929 274.556902 
L 239.69614 273.459301 
L 241.232989 264.286252 
L 242.769817 265.811367 
L 244.306667 283.664322 
L 245.843516 265.7204 
L 247.380365 283.60765 
L 248.917214 283.149361 
L 250.454043 282.867884 
L 251.990892 287.894839 
L 253.527741 267.006907 
L 255.06459 264.968509 
L 256.60144 263.914354 
L 258.138289 264.602854 
L 259.675118 268.154388 
L 261.211966 284.127472 
L 262.748816 275.10116 
L 264.285665 285.508636 
L 265.822514 267.378484 
L 267.359343 262.127617 
L 268.896192 284.473664 
L 270.433041 281.025543 
L 271.969891 253.396538 
L 273.50674 272.741105 
L 275.043589 256.442642 
L 276.580417 287.768745 
L 278.117267 281.284606 
L 279.654116 275.371469 
L 281.190965 287.541877 
L 282.727815 272.934448 
L 284.264643 260.793826 
L 285.801492 265.057743 
L 287.338342 268.334822 
L 288.875191 268.746503 
L 290.41204 277.938714 
L 291.948889 261.570034 
L 293.485718 280.545847 
L 295.022567 258.879033 
L 296.559416 273.140332 
L 298.096266 283.33363 
L 299.633115 271.948182 
L 301.169943 255.404031 
L 302.706793 262.211767 
L 304.243642 262.981567 
L 305.780491 290.596838 
L 307.31734 274.467576 
L 308.854189 264.019383 
L 310.391039 275.604611 
L 311.927867 265.473732 
L 313.464716 251.300191 
L 315.001566 269.126676 
L 316.538415 271.15133 
L 318.075264 267.317958 
L 319.612113 267.546445 
L 321.148942 249.895525 
L 322.685791 280.712888 
L 324.22264 267.312409 
L 325.75949 256.913557 
L 327.296338 272.428494 
L 328.833167 262.12488 
L 330.370017 256.383921 
L 331.906866 254.739232 
L 333.443715 256.316122 
L 334.980564 255.701954 
L 336.517413 256.040886 
L 338.054242 253.835655 
L 339.591091 262.577066 
L 341.12794 274.563554 
L 342.66479 261.835622 
L 344.201639 272.620502 
L 345.738467 248.954777 
L 347.275316 240.021613 
L 348.812166 265.788449 
L 350.349015 241.095272 
L 351.885864 263.211135 
L 353.422714 254.176017 
L 354.959542 239.724622 
L 356.496391 260.417505 
L 358.033241 264.850049 
L 359.57009 248.426885 
L 361.106939 221.898478 
L 362.643767 244.785582 
L 364.180617 261.021756 
L 365.717466 259.081155 
L 367.254315 250.216917 
L 368.791165 255.787361 
L 370.327993 257.405701 
L 371.864842 260.271123 
L 373.401692 250.064725 
L 374.938541 257.891378 
L 376.47539 219.389844 
L 378.012239 245.47685 
L 379.549068 250.757569 
L 381.085917 272.052312 
L 382.622766 260.658525 
L 384.159615 242.068135 
L 385.696464 262.905926 
L 387.233293 263.343077 
L 388.770143 232.577309 
L 390.306991 268.11399 
L 391.843841 250.624792 
L 393.38069 250.076252 
L 394.917539 257.382483 
L 397.991217 213.55909 
L 399.528066 243.53535 
L 401.064916 254.958342 
L 402.601765 255.662069 
L 404.138593 236.197046 
L 405.675442 228.659829 
L 407.212292 222.525792 
L 408.749141 231.955788 
L 410.28599 239.819515 
L 411.82284 238.858746 
L 413.359668 207.032136 
L 414.896517 247.379464 
L 416.433367 243.593732 
L 417.970216 232.717343 
L 419.507065 229.054882 
L 421.043893 232.080702 
L 422.580743 228.884641 
L 424.117592 254.251054 
L 425.654441 225.826287 
L 427.19129 265.29223 
L 428.728139 227.18698 
L 430.264968 212.207703 
L 431.801818 270.367771 
L 433.338666 259.624059 
L 434.875516 214.571359 
L 436.412365 232.911001 
L 437.949194 222.992677 
L 439.486043 255.214946 
L 442.559741 223.920459 
L 444.096591 237.542871 
L 445.63344 236.82594 
L 447.170268 208.122447 
L 448.707117 237.378386 
L 450.243967 217.276279 
L 451.780816 210.645669 
L 453.317665 239.741771 
L 454.854494 217.379079 
L 456.391343 233.048183 
L 457.928192 218.005125 
L 459.465042 225.695683 
L 461.001891 218.335364 
L 462.53874 263.667313 
L 464.075568 230.274669 
L 465.612418 221.884986 
L 467.149267 250.848124 
L 468.686116 227.974522 
L 470.222966 240.007988 
L 471.759794 226.612356 
L 473.296643 207.654268 
L 474.833493 218.843161 
L 476.370342 215.740706 
L 477.907191 257.50467 
L 479.44402 230.949724 
L 480.980869 212.819119 
L 482.517718 227.26848 
L 484.054567 212.047234 
L 485.591416 255.392592 
L 487.128266 226.212922 
L 488.665094 225.55957 
L 490.201943 248.174802 
L 491.738792 238.894228 
L 493.275642 207.490098 
L 494.812491 251.296106 
L 496.34934 202.681723 
L 497.886169 216.325147 
L 499.423018 233.147815 
L 500.959867 227.24032 
L 502.496717 239.426975 
L 504.033566 245.861817 
L 505.570415 217.889157 
L 507.107243 210.31244 
L 508.644093 255.518139 
L 510.180942 203.770468 
L 511.717791 210.350714 
L 513.25464 215.81175 
L 514.791469 212.748823 
L 516.328318 216.652066 
L 517.865168 228.117389 
L 519.402016 220.18603 
L 520.938866 231.518226 
L 522.475715 227.445728 
L 524.012544 252.925144 
L 525.549393 229.403474 
L 527.086242 226.029587 
L 528.623091 236.168116 
L 530.159941 208.064401 
L 531.696769 238.137365 
L 534.770467 206.017952 
L 536.307317 224.307796 
L 537.844166 216.830717 
L 539.381015 204.489388 
L 540.917844 212.358029 
L 542.454693 210.048089 
L 543.991542 238.59371 
L 545.528392 244.543277 
L 547.065241 233.688065 
L 548.602069 213.027491 
L 550.138918 255.056659 
L 551.675768 209.789069 
L 553.212617 224.760423 
L 554.749466 217.570501 
L 556.286295 227.68991 
L 557.823144 239.82311 
L 559.359993 207.736387 
L 560.896843 217.573328 
L 562.433692 219.695593 
L 563.970541 213.654546 
L 565.50737 233.920714 
L 565.50737 233.920714 
" clip-path="url(#pd3799041bb)" style="fill: none; stroke: #800080; stroke-opacity: 0.5; stroke-width: 0.5; stroke-linecap: square"/>
   </g>
   <g id="line2d_21">
    <path d="M 78.327363 198 
L 565.2 198 
" clip-path="url(#pd3799041bb)" style="fill: none; stroke-dasharray: 1,1.65; stroke-dashoffset: 0; stroke: #000000"/>
   </g>
   <g id="line2d_22">
    <path d="M 90.622137 59.020391 
L 92.158965 57.478606 
L 93.695814 58.419907 
L 95.232664 59.161698 
L 96.769513 60.153668 
L 98.306362 59.714857 
L 99.843191 59.714157 
L 101.38004 61.825293 
L 102.916889 61.903233 
L 104.453738 61.106332 
L 105.990587 61.427994 
L 107.527437 59.56047 
L 109.064265 59.282306 
L 110.601114 61.215167 
L 112.137963 62.017492 
L 113.674813 61.964827 
L 115.211662 62.899645 
L 116.74849 62.103023 
L 118.28534 61.836069 
L 119.822189 61.012786 
L 121.359038 59.799612 
L 122.895888 59.562268 
L 124.432737 57.820466 
L 125.969565 57.118428 
L 129.043264 57.246532 
L 130.580113 59.245701 
L 132.116962 59.701328 
L 133.653791 58.796178 
L 135.19064 58.881154 
L 136.727489 57.406746 
L 139.801188 58.651427 
L 141.338016 58.966817 
L 142.874866 59.609144 
L 144.411715 60.815916 
L 145.948564 60.337799 
L 147.485413 62.319352 
L 149.022262 62.459749 
L 150.559091 61.420512 
L 152.09594 61.366835 
L 153.632789 60.509548 
L 155.169638 60.846106 
L 156.706488 62.354602 
L 158.243317 61.946896 
L 159.780165 64.770477 
L 162.853864 61.761299 
L 164.390713 61.168491 
L 165.927563 59.502375 
L 167.464391 58.657151 
L 169.00124 59.506487 
L 170.53809 59.230655 
L 172.074939 59.355423 
L 173.611788 60.575225 
L 175.148616 58.200859 
L 176.685466 58.7687 
L 178.222315 58.915571 
L 179.759164 58.716313 
L 181.296014 58.89461 
L 182.832863 57.969469 
L 184.369691 58.138747 
L 185.906541 59.769879 
L 187.44339 59.960547 
L 188.980239 61.793076 
L 190.517088 61.84084 
L 192.053917 60.740131 
L 193.590766 61.116062 
L 195.127615 61.79828 
L 196.664465 59.387287 
L 198.201313 62.053848 
L 199.738163 60.814973 
L 201.274992 60.518041 
L 202.811841 60.376396 
L 204.34869 59.617555 
L 205.885539 60.731671 
L 207.422388 61.196122 
L 208.959217 59.776702 
L 210.496066 60.238841 
L 212.032915 59.029363 
L 213.569765 59.548079 
L 215.106614 60.688106 
L 216.643463 60.815149 
L 218.180291 61.147884 
L 219.717141 63.40024 
L 221.25399 63.694996 
L 222.790839 65.063753 
L 224.327689 65.16921 
L 225.864517 64.016638 
L 227.401366 65.063942 
L 228.938216 64.659246 
L 232.011914 67.189428 
L 233.548763 66.004137 
L 235.085592 68.252174 
L 236.622441 67.761598 
L 238.15929 66.992279 
L 239.69614 66.542956 
L 241.232989 64.584054 
L 242.769817 64.866555 
L 244.306667 64.665498 
L 245.843516 65.349578 
L 247.380365 66.415377 
L 248.917214 68.405285 
L 251.990892 68.893209 
L 253.527741 67.405367 
L 255.06459 67.523604 
L 256.60144 68.91146 
L 258.138289 68.00781 
L 259.675118 68.766199 
L 261.211966 69.79738 
L 262.748816 70.448072 
L 264.285665 74.080964 
L 265.822514 72.471099 
L 267.359343 71.743867 
L 268.896192 70.716016 
L 270.433041 68.901839 
L 271.969891 68.345635 
L 275.043589 68.962539 
L 276.580417 70.629411 
L 278.117267 70.774364 
L 279.654116 70.068416 
L 282.727815 71.802603 
L 284.264643 71.652522 
L 285.801492 71.761075 
L 287.338342 69.55056 
L 291.948889 72.899546 
L 293.485718 75.347983 
L 295.022567 74.890177 
L 296.559416 74.059432 
L 298.096266 74.742224 
L 301.169943 74.576505 
L 302.706793 76.125761 
L 304.243642 76.049375 
L 305.780491 76.258235 
L 307.31734 76.789879 
L 308.854189 77.14685 
L 310.391039 80.713364 
L 311.927867 81.188342 
L 313.464716 80.762669 
L 315.001566 81.186941 
L 316.538415 80.975221 
L 319.612113 85.354723 
L 321.148942 85.748293 
L 322.685791 86.592875 
L 324.22264 87.717687 
L 325.75949 87.152708 
L 327.296338 88.864342 
L 328.833167 90.028255 
L 330.370017 88.625735 
L 331.906866 89.277588 
L 333.443715 88.283371 
L 334.980564 89.830045 
L 336.517413 91.575441 
L 338.054242 91.130176 
L 339.591091 92.922909 
L 342.66479 92.786423 
L 344.201639 92.437203 
L 345.738467 92.867806 
L 347.275316 93.029826 
L 348.812166 93.862171 
L 351.885864 94.990376 
L 353.422714 97.882411 
L 354.959542 97.990169 
L 356.496391 99.730553 
L 358.033241 100.076297 
L 359.57009 99.947412 
L 361.106939 100.602654 
L 362.643767 99.447853 
L 364.180617 100.381448 
L 365.717466 101.704497 
L 367.254315 102.267631 
L 368.791165 102.952425 
L 370.327993 102.478598 
L 371.864842 101.847544 
L 373.401692 101.50575 
L 374.938541 100.191037 
L 376.47539 99.272526 
L 378.012239 100.535772 
L 379.549068 100.144495 
L 381.085917 100.817065 
L 384.159615 101.42883 
L 385.696464 102.987732 
L 387.233293 103.274091 
L 390.306991 102.709638 
L 391.843841 101.683998 
L 393.38069 103.437557 
L 394.917539 104.661987 
L 396.454368 105.071653 
L 397.991217 107.071236 
L 399.528066 109.294122 
L 401.064916 109.164821 
L 402.601765 110.877948 
L 404.138593 111.482005 
L 405.675442 111.434092 
L 407.212292 112.632545 
L 408.749141 112.213301 
L 410.28599 112.976956 
L 413.359668 113.848099 
L 414.896517 116.795875 
L 416.433367 114.675362 
L 417.970216 114.966282 
L 419.507065 114.706965 
L 421.043893 112.406544 
L 422.580743 111.828235 
L 424.117592 112.516866 
L 425.654441 112.634384 
L 427.19129 113.360558 
L 428.728139 112.985011 
L 430.264968 112.768234 
L 431.801818 113.671022 
L 434.875516 113.170963 
L 436.412365 114.522036 
L 437.949194 113.860235 
L 439.486043 116.572196 
L 441.022892 117.045395 
L 442.559741 116.952369 
L 444.096591 120.715758 
L 445.63344 121.785588 
L 447.170268 121.584261 
L 448.707117 121.825824 
L 450.243967 121.372736 
L 451.780816 120.479014 
L 453.317665 121.253132 
L 454.854494 121.375902 
L 456.391343 121.076972 
L 457.928192 121.50278 
L 459.465042 120.784613 
L 461.001891 121.761251 
L 462.53874 122.105314 
L 464.075568 121.463154 
L 465.612418 122.314157 
L 467.149267 120.651892 
L 468.686116 120.885583 
L 470.222966 121.386338 
L 471.759794 121.267997 
L 474.833493 122.861792 
L 476.370342 121.95291 
L 477.907191 121.755729 
L 479.44402 121.934784 
L 480.980869 120.957591 
L 482.517718 121.855366 
L 484.054567 120.566853 
L 485.591416 120.335089 
L 487.128266 120.706158 
L 488.665094 120.525871 
L 490.201943 121.856188 
L 491.738792 121.811564 
L 493.275642 120.311036 
L 494.812491 120.277561 
L 496.34934 119.820475 
L 497.886169 120.432251 
L 499.423018 121.997762 
L 500.959867 122.325035 
L 502.496717 123.344514 
L 504.033566 124.63975 
L 505.570415 124.048146 
L 507.107243 125.411379 
L 508.644093 124.888036 
L 510.180942 123.97118 
L 511.717791 123.638709 
L 513.25464 122.537849 
L 514.791469 122.68903 
L 516.328318 123.900683 
L 517.865168 123.141259 
L 520.938866 124.371356 
L 522.475715 123.628506 
L 524.012544 123.41671 
L 525.549393 122.570016 
L 527.086242 122.795663 
L 528.623091 123.462647 
L 530.159941 123.927681 
L 531.696769 124.595706 
L 533.233618 123.854906 
L 534.770467 123.450392 
L 536.307317 124.213701 
L 537.844166 123.796516 
L 539.381015 122.203143 
L 540.917844 123.347058 
L 542.454693 122.401095 
L 543.991542 123.258945 
L 545.528392 123.368803 
L 547.065241 122.779567 
L 548.602069 124.099684 
L 550.138918 123.732014 
L 551.675768 123.110804 
L 553.212617 123.255527 
L 554.749466 122.401689 
L 554.749466 122.401689 
" clip-path="url(#pd3799041bb)" style="fill: none; stroke: #6a5acd; stroke-width: 2.5; stroke-linecap: square"/>
   </g>
   <g id="line2d_23">
    <path d="M 90.622137 339.538398 
L 92.158965 340.813019 
L 93.695814 339.741037 
L 95.232664 338.947597 
L 96.769513 337.787811 
L 98.306362 338.212505 
L 99.843191 338.277275 
L 101.38004 336.056697 
L 102.916889 335.99823 
L 104.453738 336.779378 
L 105.990587 336.435971 
L 107.527437 338.207708 
L 109.064265 338.465804 
L 110.601114 336.563485 
L 112.137963 335.74351 
L 113.674813 335.683669 
L 115.211662 334.764244 
L 116.74849 335.535217 
L 118.28534 335.81511 
L 119.822189 336.631218 
L 121.359038 337.715683 
L 122.895888 337.888624 
L 124.432737 339.603517 
L 125.969565 340.287089 
L 129.043264 340.167998 
L 130.580113 338.19108 
L 132.116962 337.785196 
L 133.653791 338.675246 
L 135.19064 338.60534 
L 136.727489 340.117588 
L 139.801188 338.843181 
L 141.338016 338.507463 
L 142.874866 337.889056 
L 144.411715 336.78053 
L 145.948564 337.240875 
L 147.485413 335.290898 
L 149.022262 335.09982 
L 150.559091 336.097812 
L 152.09594 336.129017 
L 153.632789 337.020358 
L 155.169638 336.616405 
L 156.706488 335.127451 
L 158.243317 335.537448 
L 159.780165 332.662397 
L 162.853864 335.602363 
L 164.390713 336.224016 
L 165.927563 337.821253 
L 167.464391 338.605029 
L 169.00124 337.760981 
L 170.53809 338.028955 
L 172.074939 337.95345 
L 173.611788 336.767522 
L 175.148616 339.065204 
L 176.685466 338.472135 
L 178.222315 338.305976 
L 179.759164 338.502596 
L 181.296014 338.28266 
L 182.832863 339.24547 
L 184.369691 339.050763 
L 185.906541 337.481002 
L 187.44339 337.271277 
L 188.980239 335.479146 
L 190.517088 335.489887 
L 192.053917 336.60093 
L 193.590766 336.254902 
L 195.127615 335.562163 
L 196.664465 337.90427 
L 198.201313 335.319954 
L 199.738163 336.540485 
L 201.274992 336.869329 
L 202.811841 337.020287 
L 204.34869 337.770623 
L 205.885539 336.641013 
L 207.422388 336.116765 
L 208.959217 337.58064 
L 210.496066 337.12048 
L 212.032915 338.3034 
L 213.569765 337.805486 
L 215.106614 336.655844 
L 216.643463 336.528124 
L 218.180291 336.155028 
L 219.717141 333.950635 
L 221.25399 333.655279 
L 222.790839 332.285405 
L 224.327689 332.161796 
L 225.864517 333.329025 
L 227.401366 332.336602 
L 228.938216 332.759075 
L 232.011914 330.237028 
L 233.548763 331.441623 
L 235.085592 329.268552 
L 236.622441 329.758471 
L 238.15929 330.550105 
L 239.69614 331.05798 
L 241.232989 333.00937 
L 242.769817 332.734168 
L 244.306667 332.937086 
L 245.843516 332.3074 
L 247.380365 331.253874 
L 248.917214 329.313459 
L 251.990892 328.935235 
L 253.527741 330.414286 
L 255.06459 330.311015 
L 256.60144 328.932892 
L 258.138289 329.86252 
L 259.675118 329.149645 
L 261.211966 328.079127 
L 262.748816 327.417458 
L 264.285665 323.911725 
L 265.822514 325.534171 
L 267.359343 326.289639 
L 268.896192 327.278038 
L 270.433041 329.070724 
L 271.969891 329.598465 
L 275.043589 328.877463 
L 276.580417 327.242396 
L 278.117267 327.115386 
L 279.654116 327.834356 
L 281.190965 326.883753 
L 282.727815 326.117368 
L 284.264643 326.26828 
L 285.801492 326.17129 
L 287.338342 328.323332 
L 291.948889 324.955891 
L 293.485718 322.53459 
L 295.022567 323.129177 
L 296.559416 323.95253 
L 298.096266 323.327676 
L 301.169943 323.506119 
L 302.706793 321.979302 
L 304.243642 322.084015 
L 305.780491 321.822027 
L 308.854189 321.020253 
L 310.391039 317.605304 
L 311.927867 317.266303 
L 313.464716 317.703563 
L 315.001566 317.302368 
L 316.538415 317.55237 
L 318.075264 315.275848 
L 319.612113 313.219548 
L 321.148942 312.820179 
L 322.685791 311.919287 
L 324.22264 310.860162 
L 325.75949 311.379619 
L 327.296338 309.758369 
L 328.833167 308.651324 
L 330.370017 309.971116 
L 331.906866 309.347928 
L 333.443715 310.382183 
L 336.517413 307.062743 
L 338.054242 307.525265 
L 339.591091 305.745739 
L 342.66479 305.862033 
L 344.201639 306.131296 
L 345.738467 305.779671 
L 347.275316 305.709833 
L 348.812166 304.948752 
L 351.885864 303.787898 
L 353.422714 301.078608 
L 354.959542 300.957321 
L 356.496391 299.194887 
L 358.033241 298.930783 
L 359.57009 299.120592 
L 361.106939 298.484369 
L 362.643767 299.513161 
L 364.180617 298.643288 
L 365.717466 297.380721 
L 367.254315 296.913055 
L 368.791165 296.236909 
L 373.401692 297.767437 
L 374.938541 299.02384 
L 376.47539 299.842762 
L 378.012239 298.637191 
L 379.549068 299.154223 
L 381.085917 298.546705 
L 384.159615 297.943797 
L 385.696464 296.573335 
L 387.233293 296.147859 
L 390.306991 296.753861 
L 391.843841 297.661376 
L 393.38069 295.838545 
L 394.917539 294.615259 
L 396.454368 294.192042 
L 399.528066 290.164841 
L 401.064916 290.302815 
L 402.601765 288.3546 
L 404.138593 287.820279 
L 405.675442 287.828956 
L 407.212292 286.627609 
L 408.749141 286.951964 
L 411.82284 285.926754 
L 413.359668 285.560586 
L 414.896517 282.853439 
L 416.433367 285.003963 
L 417.970216 284.750884 
L 419.507065 284.909911 
L 421.043893 287.341279 
L 422.580743 287.997151 
L 424.117592 287.299007 
L 425.654441 287.333559 
L 427.19129 286.603674 
L 428.728139 287.000026 
L 430.264968 287.218115 
L 431.801818 286.44453 
L 434.875516 286.927703 
L 436.412365 285.548867 
L 437.949194 286.159707 
L 439.486043 283.455097 
L 441.022892 282.960436 
L 442.559741 283.209122 
L 444.096591 279.388743 
L 445.63344 278.191692 
L 447.170268 278.385647 
L 448.707117 278.128549 
L 450.243967 278.469605 
L 451.780816 279.44192 
L 453.317665 278.724496 
L 454.854494 278.606989 
L 456.391343 278.956331 
L 457.928192 278.536201 
L 459.465042 279.370426 
L 461.001891 278.486683 
L 462.53874 278.129514 
L 464.075568 278.720369 
L 465.612418 277.832613 
L 467.149267 279.576726 
L 468.686116 279.369651 
L 470.222966 278.920995 
L 471.759794 279.029628 
L 473.296643 278.305654 
L 474.833493 277.446707 
L 476.370342 278.160368 
L 477.907191 278.351761 
L 479.44402 278.183182 
L 480.980869 279.074488 
L 482.517718 278.078902 
L 484.054567 279.340255 
L 485.591416 279.496726 
L 487.128266 279.168221 
L 488.665094 279.447913 
L 490.201943 278.039631 
L 491.738792 278.143622 
L 493.275642 279.641328 
L 494.812491 279.600328 
L 496.34934 279.969605 
L 497.886169 279.461309 
L 499.423018 277.98788 
L 500.959867 277.594286 
L 502.496717 276.475722 
L 504.033566 275.163005 
L 505.570415 275.739989 
L 507.107243 274.388147 
L 508.644093 274.987287 
L 510.180942 275.887865 
L 511.717791 276.116408 
L 513.25464 277.259473 
L 514.791469 277.050157 
L 516.328318 275.865037 
L 517.865168 276.658171 
L 519.402016 276.103188 
L 520.938866 275.41364 
L 522.475715 276.193796 
L 524.012544 276.333924 
L 525.549393 277.116651 
L 527.086242 276.960943 
L 528.623091 276.298961 
L 530.159941 275.771645 
L 531.696769 275.119643 
L 533.233618 275.805984 
L 534.770467 276.294446 
L 536.307317 275.48041 
L 537.844166 275.687738 
L 539.381015 277.322155 
L 540.917844 276.129554 
L 542.454693 277.074513 
L 543.991542 276.171062 
L 545.528392 276.128251 
L 547.065241 276.913112 
L 548.602069 275.662341 
L 550.138918 275.977477 
L 551.675768 276.629597 
L 553.212617 276.519222 
L 554.749466 277.432018 
L 554.749466 277.432018 
" clip-path="url(#pd3799041bb)" style="fill: none; stroke: #ff0000; stroke-width: 2.5; stroke-linecap: square"/>
   </g>
   <g id="line2d_24">
    <path d="M 90.622137 293.014506 
L 92.158965 292.067157 
L 93.695814 289.806499 
L 95.232664 288.522247 
L 96.769513 285.676025 
L 98.306362 285.951951 
L 99.843191 286.682979 
L 101.38004 283.310166 
L 102.916889 283.461758 
L 104.453738 284.073159 
L 105.990587 283.492972 
L 107.527437 284.186202 
L 109.064265 284.21063 
L 110.601114 282.662843 
L 112.137963 281.638763 
L 113.674813 280.225693 
L 115.211662 279.497002 
L 118.28534 280.390515 
L 119.822189 281.117241 
L 121.359038 280.525679 
L 122.895888 279.803694 
L 124.432737 281.132435 
L 125.969565 281.546623 
L 129.043264 281.559469 
L 130.580113 279.904593 
L 132.116962 280.200373 
L 133.653791 280.880014 
L 135.19064 281.020098 
L 136.727489 283.05003 
L 139.801188 281.370086 
L 141.338016 280.752213 
L 142.874866 280.465407 
L 145.948564 280.893911 
L 147.485413 279.350909 
L 149.022262 278.50247 
L 150.559091 278.948927 
L 152.09594 278.673053 
L 153.632789 280.027896 
L 156.706488 277.480547 
L 158.243317 277.922387 
L 159.780165 274.319743 
L 161.317015 275.759476 
L 162.853864 276.237512 
L 164.390713 277.291555 
L 165.927563 277.840394 
L 167.464391 277.640257 
L 169.00124 276.882809 
L 170.53809 277.02195 
L 172.074939 277.74069 
L 173.611788 277.083213 
L 175.148616 278.164052 
L 176.685466 277.154 
L 178.222315 276.663095 
L 179.759164 276.814876 
L 181.296014 275.873919 
L 182.832863 277.490122 
L 185.906541 276.329952 
L 187.44339 275.802062 
L 188.980239 274.678501 
L 190.517088 275.619643 
L 192.053917 276.89064 
L 193.590766 277.000393 
L 195.127615 276.14848 
L 196.664465 277.415896 
L 198.201313 276.108172 
L 199.738163 277.050927 
L 201.274992 277.860551 
L 202.811841 278.149662 
L 204.34869 278.773865 
L 207.422388 275.967364 
L 208.959217 278.119789 
L 210.496066 277.689742 
L 212.032915 278.464776 
L 213.569765 278.287057 
L 215.106614 276.990056 
L 216.643463 276.85191 
L 218.180291 275.847809 
L 219.717141 274.391074 
L 221.25399 274.086531 
L 222.790839 272.699565 
L 224.327689 272.295901 
L 225.864517 273.689563 
L 227.401366 273.522954 
L 228.938216 274.20579 
L 230.475065 273.859108 
L 232.011914 271.801756 
L 233.548763 273.28363 
L 235.085592 272.152206 
L 236.622441 272.633245 
L 238.15929 273.724825 
L 239.69614 274.998816 
L 241.232989 276.853555 
L 242.769817 276.672274 
L 244.306667 276.899062 
L 245.843516 276.954759 
L 247.380365 276.052637 
L 248.917214 274.711273 
L 250.454043 275.496009 
L 251.990892 275.59918 
L 253.527741 276.979724 
L 255.06459 277.043858 
L 256.60144 275.773851 
L 258.138289 276.989121 
L 259.675118 276.766873 
L 261.211966 275.27304 
L 262.748816 274.491594 
L 264.285665 272.330274 
L 265.822514 274.080818 
L 267.359343 275.120753 
L 268.896192 275.710522 
L 270.433041 277.282575 
L 271.969891 277.51418 
L 273.50674 276.183939 
L 275.043589 275.670173 
L 276.580417 274.385125 
L 278.117267 274.452843 
L 279.654116 275.311927 
L 281.190965 273.822839 
L 282.727815 273.778473 
L 284.264643 273.938213 
L 285.801492 273.963598 
L 287.338342 275.488782 
L 290.41204 272.675449 
L 291.948889 271.919241 
L 293.485718 269.794381 
L 295.022567 271.818234 
L 296.559416 272.566974 
L 298.096266 272.519399 
L 299.633115 272.988812 
L 301.169943 272.822358 
L 302.706793 271.513174 
L 304.243642 271.889184 
L 305.780491 271.115215 
L 307.31734 271.500632 
L 308.854189 271.143407 
L 310.391039 269.096496 
L 311.927867 269.906817 
L 313.464716 270.438885 
L 315.001566 270.225107 
L 316.538415 270.781997 
L 318.075264 267.949764 
L 319.612113 266.816784 
L 321.148942 266.372129 
L 322.685791 265.02583 
L 324.22264 264.485282 
L 325.75949 264.646867 
L 327.296338 263.729661 
L 328.833167 263.052497 
L 330.370017 263.743635 
L 331.906866 263.340658 
L 333.443715 264.678244 
L 334.980564 262.286776 
L 336.517413 261.151971 
L 338.054242 261.745167 
L 339.591091 260.06504 
L 341.12794 260.146705 
L 342.66479 260.029154 
L 344.201639 259.683466 
L 345.738467 259.939385 
L 347.275316 260.554752 
L 348.812166 260.306759 
L 350.349015 259.681064 
L 351.885864 258.912576 
L 353.422714 257.473282 
L 354.959542 257.260877 
L 356.496391 255.348989 
L 358.033241 255.632337 
L 359.57009 256.220402 
L 361.106939 255.706767 
L 362.643767 255.907796 
L 364.180617 255.461143 
L 365.717466 254.591511 
L 367.254315 254.727559 
L 368.791165 254.105125 
L 370.327993 255.029778 
L 371.864842 255.698967 
L 373.401692 256.148555 
L 374.938541 257.049823 
L 376.47539 257.245854 
L 378.012239 256.403585 
L 379.549068 257.688697 
L 381.085917 257.466197 
L 382.622766 257.124837 
L 385.696464 256.613074 
L 387.233293 255.404943 
L 388.770143 255.949405 
L 391.843841 256.472811 
L 393.38069 254.237241 
L 394.917539 253.020842 
L 396.454368 252.397416 
L 397.991217 248.75971 
L 399.528066 245.524105 
L 401.064916 245.942867 
L 402.601765 239.012207 
L 404.138593 238.795852 
L 405.675442 238.363684 
L 407.212292 236.12265 
L 408.749141 235.661529 
L 410.28599 236.896303 
L 411.82284 235.919589 
L 413.359668 235.787014 
L 414.896517 233.439455 
L 416.433367 237.492702 
L 417.970216 237.394512 
L 419.507065 236.706639 
L 421.043893 242.814893 
L 422.580743 245.087048 
L 424.117592 243.467889 
L 425.654441 245.193146 
L 427.19129 243.567361 
L 428.728139 244.643277 
L 430.264968 245.136537 
L 431.801818 244.794242 
L 433.338666 245.158387 
L 434.875516 245.687807 
L 436.412365 242.428909 
L 437.949194 243.199049 
L 439.486043 237.884417 
L 441.022892 236.781663 
L 442.559741 238.617267 
L 444.096591 231.537233 
L 445.63344 228.813656 
L 447.170268 229.042574 
L 448.707117 228.561553 
L 450.243967 228.251065 
L 451.780816 230.251369 
L 453.317665 229.595263 
L 454.854494 229.459565 
L 456.391343 230.346582 
L 457.928192 229.756487 
L 459.465042 231.88219 
L 462.53874 230.522987 
L 464.075568 231.069487 
L 465.612418 229.469416 
L 467.149267 232.759161 
L 468.686116 232.619264 
L 470.222966 232.27353 
L 471.759794 232.378383 
L 473.296643 231.959175 
L 474.833493 229.993277 
L 476.370342 229.722494 
L 477.907191 229.967466 
L 479.44402 229.789244 
L 480.980869 230.517225 
L 482.517718 228.349365 
L 484.054567 229.994949 
L 485.591416 229.663446 
L 487.128266 229.495578 
L 488.665094 230.656052 
L 490.201943 228.023723 
L 491.738792 228.588873 
L 493.275642 230.791719 
L 494.812491 230.166431 
L 496.34934 230.050778 
L 497.886169 230.075267 
L 499.423018 228.579103 
L 500.959867 227.56518 
L 502.496717 225.407643 
L 504.033566 223.664616 
L 505.570415 224.275414 
L 507.107243 222.730166 
L 508.644093 223.89712 
L 510.180942 224.909992 
L 511.717791 224.529853 
L 513.25464 226.277231 
L 514.791469 225.608997 
L 516.328318 224.286849 
L 517.865168 225.505446 
L 519.402016 225.355577 
L 520.938866 223.857009 
L 522.475715 225.061262 
L 524.012544 224.772411 
L 525.549393 225.338814 
L 527.086242 225.610941 
L 528.623091 224.800095 
L 530.159941 223.749471 
L 531.696769 223.073609 
L 533.233618 223.545308 
L 534.770467 224.685144 
L 536.307317 223.367616 
L 537.844166 222.275884 
L 539.381015 224.492326 
L 540.917844 222.733723 
L 542.454693 223.846791 
L 543.991542 222.475667 
L 545.528392 222.866043 
L 547.065241 225.11972 
L 548.602069 224.01496 
L 550.138918 224.064467 
L 551.675768 225.078214 
L 553.212617 225.164648 
L 554.749466 226.756157 
L 554.749466 226.756157 
" clip-path="url(#pd3799041bb)" style="fill: none; stroke: #800080; stroke-width: 2.5; stroke-linecap: square"/>
   </g>
   <g id="patch_3">
    <path d="M 78.327363 385.2 
L 78.327363 10.8 
" style="fill: none; stroke: #696969; stroke-width: 0.5; stroke-linejoin: miter; stroke-linecap: square"/>
   </g>
   <g id="patch_4">
    <path d="M 565.2 385.2 
L 565.2 10.8 
" style="fill: none; stroke: #696969; stroke-width: 0.5; stroke-linejoin: miter; stroke-linecap: square"/>
   </g>
   <g id="patch_5">
    <path d="M 78.327363 385.2 
L 565.2 385.2 
" style="fill: none; stroke: #696969; stroke-width: 0.5; stroke-linejoin: miter; stroke-linecap: square"/>
   </g>
   <g id="legend_1">
    <g id="patch_6">
     <path d="M 88.127363 191 
L 180.947363 191 
Q 183.747363 191 183.747363 188.2 
L 183.747363 127.951875 
Q 183.747363 125.151875 180.947363 125.151875 
L 88.127363 125.151875 
Q 85.327363 125.151875 85.327363 127.951875 
L 85.327363 188.2 
Q 85.327363 191 88.127363 191 
z
" style="fill: #fffafa; opacity: 0.8; stroke: #cccccc; stroke-linejoin: miter"/>
    </g>
    <g id="line2d_25">
     <path d="M 90.927363 136.489687 
L 104.927363 136.489687 
L 118.927363 136.489687 
" style="fill: none; stroke: #6a5acd; stroke-width: 2.5; stroke-linecap: square"/>
    </g>
    <g id="text_17">
     <!-- $m_\mathtt{out}$ ⬆️ -->
     <g transform="translate(130.127363 141.389687)scale(0.14 -0.14)">
      <defs>
       <path id="DejaVuSansMono-6f" d="M 1925 3097 
Q 1488 3097 1263 2756 
Q 1038 2416 1038 1747 
Q 1038 1081 1263 739 
Q 1488 397 1925 397 
Q 2366 397 2591 739 
Q 2816 1081 2816 1747 
Q 2816 2416 2591 2756 
Q 2366 3097 1925 3097 
z
M 1925 3584 
Q 2653 3584 3039 3112 
Q 3425 2641 3425 1747 
Q 3425 850 3040 379 
Q 2656 -91 1925 -91 
Q 1197 -91 812 379 
Q 428 850 428 1747 
Q 428 2641 812 3112 
Q 1197 3584 1925 3584 
z
" transform="scale(0.015625)"/>
       <path id="DejaVuSansMono-75" d="M 609 1325 
L 609 3494 
L 1184 3494 
L 1184 1325 
Q 1184 853 1351 631 
Q 1519 409 1869 409 
Q 2275 409 2490 695 
Q 2706 981 2706 1516 
L 2706 3494 
L 3284 3494 
L 3284 0 
L 2706 0 
L 2706 525 
Q 2553 222 2289 65 
Q 2025 -91 1672 -91 
Q 1134 -91 871 261 
Q 609 613 609 1325 
z
" transform="scale(0.015625)"/>
       <path id="DejaVuSansMono-74" d="M 1919 4494 
L 1919 3500 
L 3225 3500 
L 3225 3053 
L 1919 3053 
L 1919 1153 
Q 1919 766 2066 612 
Q 2213 459 2578 459 
L 3225 459 
L 3225 0 
L 2522 0 
Q 1875 0 1609 259 
Q 1344 519 1344 1153 
L 1344 3053 
L 409 3053 
L 409 3500 
L 1344 3500 
L 1344 4494 
L 1919 4494 
z
" transform="scale(0.015625)"/>
       <path id="DejaVuSans-20" transform="scale(0.015625)"/>
       <path id="DejaVuSans-2b06" d="M 1094 3238 
L 2681 4825 
L 4269 3238 
L 3416 3238 
L 3416 0 
L 1947 0 
L 1947 3238 
L 1094 3238 
z
" transform="scale(0.015625)"/>
       <path id="DejaVuSans-fe0f" transform="scale(0.015625)"/>
      </defs>
      <use xlink:href="#DejaVuSans-Oblique-6d" transform="translate(0 0.609375)"/>
      <use xlink:href="#DejaVuSansMono-6f" transform="translate(97.412109 -15.796875)scale(0.7)"/>
      <use xlink:href="#DejaVuSansMono-75" transform="translate(139.555664 -15.796875)scale(0.7)"/>
      <use xlink:href="#DejaVuSansMono-74" transform="translate(181.699219 -15.796875)scale(0.7)"/>
      <use xlink:href="#DejaVuSans-20" transform="translate(226.577148 0.609375)"/>
      <use xlink:href="#DejaVuSans-2b06" transform="translate(258.364258 0.609375)"/>
      <use xlink:href="#DejaVuSans-fe0f" transform="translate(342.15332 0.609375)"/>
     </g>
    </g>
    <g id="line2d_26">
     <path d="M 90.927363 157.039062 
L 104.927363 157.039062 
L 118.927363 157.039062 
" style="fill: none; stroke: #ff0000; stroke-width: 2.5; stroke-linecap: square"/>
    </g>
    <g id="text_18">
     <!-- $m_\mathtt{in}$ ⬇️ -->
     <g transform="translate(130.127363 161.939062)scale(0.14 -0.14)">
      <defs>
       <path id="DejaVuSansMono-69" d="M 800 3500 
L 2272 3500 
L 2272 447 
L 3413 447 
L 3413 0 
L 556 0 
L 556 447 
L 1697 447 
L 1697 3053 
L 800 3053 
L 800 3500 
z
M 1697 4863 
L 2272 4863 
L 2272 4134 
L 1697 4134 
L 1697 4863 
z
" transform="scale(0.015625)"/>
       <path id="DejaVuSansMono-6e" d="M 3284 2169 
L 3284 0 
L 2706 0 
L 2706 2169 
Q 2706 2641 2540 2862 
Q 2375 3084 2022 3084 
Q 1619 3084 1401 2798 
Q 1184 2513 1184 1978 
L 1184 0 
L 609 0 
L 609 3500 
L 1184 3500 
L 1184 2975 
Q 1338 3275 1600 3429 
Q 1863 3584 2222 3584 
Q 2756 3584 3020 3232 
Q 3284 2881 3284 2169 
z
" transform="scale(0.015625)"/>
       <path id="DejaVuSans-2b07" d="M 1094 1428 
L 1947 1428 
L 1947 4666 
L 3416 4666 
L 3416 1428 
L 4269 1428 
L 2681 -159 
L 1094 1428 
z
" transform="scale(0.015625)"/>
      </defs>
      <use xlink:href="#DejaVuSans-Oblique-6d" transform="translate(0 0.09375)"/>
      <use xlink:href="#DejaVuSansMono-69" transform="translate(97.412109 -16.3125)scale(0.7)"/>
      <use xlink:href="#DejaVuSansMono-6e" transform="translate(139.555664 -16.3125)scale(0.7)"/>
      <use xlink:href="#DejaVuSans-20" transform="translate(184.433594 0.09375)"/>
      <use xlink:href="#DejaVuSans-2b07" transform="translate(216.220703 0.09375)"/>
      <use xlink:href="#DejaVuSans-fe0f" transform="translate(300.009766 0.09375)"/>
     </g>
    </g>
    <g id="line2d_27">
     <path d="M 90.927363 177.588437 
L 104.927363 177.588437 
L 118.927363 177.588437 
" style="fill: none; stroke: #800080; stroke-width: 2.5; stroke-linecap: square"/>
    </g>
    <g id="text_19">
     <!-- $m_\mathtt{net}$ -->
     <g transform="translate(130.127363 182.488437)scale(0.14 -0.14)">
      <defs>
       <path id="DejaVuSansMono-65" d="M 3475 1894 
L 3475 1613 
L 984 1613 
L 984 1594 
Q 984 1022 1282 709 
Q 1581 397 2125 397 
Q 2400 397 2700 484 
Q 3000 572 3341 750 
L 3341 178 
Q 3013 44 2708 -23 
Q 2403 -91 2119 -91 
Q 1303 -91 843 398 
Q 384 888 384 1747 
Q 384 2584 834 3084 
Q 1284 3584 2034 3584 
Q 2703 3584 3089 3131 
Q 3475 2678 3475 1894 
z
M 2900 2063 
Q 2888 2569 2661 2833 
Q 2434 3097 2009 3097 
Q 1594 3097 1325 2822 
Q 1056 2547 1006 2059 
L 2900 2063 
z
" transform="scale(0.015625)"/>
      </defs>
      <use xlink:href="#DejaVuSans-Oblique-6d"/>
      <use xlink:href="#DejaVuSansMono-6e" transform="translate(97.412109 -16.40625)scale(0.7)"/>
      <use xlink:href="#DejaVuSansMono-65" transform="translate(139.555664 -16.40625)scale(0.7)"/>
      <use xlink:href="#DejaVuSansMono-74" transform="translate(181.699219 -16.40625)scale(0.7)"/>
     </g>
    </g>
   </g>
  </g>
 </g>
 <defs>
  <clipPath id="pd3799041bb">
   <rect x="78.327363" y="10.8" width="486.872637" height="374.4"/>
  </clipPath>
 </defs>
</svg>
